<?xml version="1.0" encoding="UTF-8"?>
<svg width="16px" height="16px" viewBox="0 0 16 16" xmlns="http://www.w3.org/2000/svg">
 <g fill="#2e3436">
  <path d="m2 7h2c0.55078 0 1 0.44922 1 1v4c0 0.55078-0.44922 1-1 1h-2c-0.55078 0-1-0.44922-1-1v-4c0-0.55078 0.44922-1 1-1z"/>
  <path d="m12 7h2c0.55078 0 1 0.44922 1 1v4c0 0.55078-0.44922 1-1 1h-2c-0.55078 0-1-0.44922-1-1v-4c0-0.55078 0.44922-1 1-1z"/>
  <path d="m1 7h2v4h-2z"/>
  <path d="m13 7h2v4h-2z"/>
  <path d="m13 10v3c0 0.5625-0.4375 1-1 1h-5.5v2h5.5c1.6445 0 3-1.3555 3-3v-3z"/>
  <path d="m4.5 0.9375c-2.1641 1.25-3.5 3.5625-3.5 6.0625h2c0-1.7852 0.95312-3.4375 2.5-4.3281 1.5469-0.89453 3.4531-0.89453 5 0 1.5469 0.89062 2.5 2.543 2.5 4.3281h2c0-2.5-1.3359-4.8125-3.5-6.0625s-4.8359-1.25-7 0z"/>
 </g>
</svg>
