<?xml version="1.0" encoding="UTF-8"?>
<svg width="16px" height="16px" viewBox="0 0 16 16" xmlns="http://www.w3.org/2000/svg">
 <g fill="#2e3436">
  <path d="m2 9h2c0.55078 0 1 0.44922 1 1v5c0 0.55078-0.44922 1-1 1h-2c-0.55078 0-1-0.44922-1-1v-5c0-0.55078 0.44922-1 1-1z"/>
  <path d="m12 9h2c0.55078 0 1 0.44922 1 1v5c0 0.55078-0.44922 1-1 1h-2c-0.55078 0-1-0.44922-1-1v-5c0-0.55078 0.44922-1 1-1z"/>
  <path d="m1 7h2v4h-2z"/>
  <path d="m13 7h2v4h-2z"/>
  <path d="m4.5 0.9375c-2.1641 1.25-3.5 3.5625-3.5 6.0625h2c0-1.7852 0.95312-3.4375 2.5-4.332 1.5469-0.89062 3.4531-0.89062 5 0 1.5469 0.89453 2.5 2.5469 2.5 4.332h2c0-2.5-1.3359-4.8125-3.5-6.0625s-4.8359-1.25-7 0z"/>
 </g>
</svg>
