<?xml version="1.0" encoding="UTF-8"?>
<svg id="svg10" width="16" height="16" version="1.1" xmlns="http://www.w3.org/2000/svg" xmlns:cc="http://creativecommons.org/ns#" xmlns:dc="http://purl.org/dc/elements/1.1/" xmlns:rdf="http://www.w3.org/1999/02/22-rdf-syntax-ns#" xmlns:xlink="http://www.w3.org/1999/xlink">
 <metadata id="metadata16">
  <rdf:RDF>
   <cc:Work rdf:about="">
    <dc:format>image/svg+xml</dc:format>
    <dc:type rdf:resource="http://purl.org/dc/dcmitype/StillImage"/>
    <dc:title/>
   </cc:Work>
  </rdf:RDF>
 </metadata>
 <g id="g8" transform="translate(0,-4.1)" style="color:#000000;fill:#474747">
  <path id="path2" d="m8 6.086-5.707 3.207 1.414 1.414 4.293-1.793 4.293 1.793 1.414-1.414z" font-weight="400" overflow="visible" style="font-feature-settings:normal;font-variant-alternates:normal;font-variant-caps:normal;font-variant-ligatures:normal;font-variant-numeric:normal;font-variant-position:normal;isolation:auto;mix-blend-mode:normal;shape-padding:0;text-decoration-color:#000000;text-decoration-line:none;text-decoration-style:solid;text-indent:0;text-orientation:mixed;text-transform:none;white-space:normal"/>
  <path id="path4" d="m13 10v1h1v-1zm-11 0v1h1v-1z" overflow="visible"/>
  <path id="path6" d="m2 10c0 0.554 0.446 1 1 1s1-0.446 1-1-0.446-1-1-1-1 0.446-1 1zm10 0c0 0.554 0.446 1 1 1s1-0.446 1-1-0.446-1-1-1-1 0.446-1 1z" overflow="visible"/>
 </g>
 <use id="use18" transform="matrix(1,0,0,-1,0,15.986)" width="100%" height="100%" xlink:href="#g8"/>
</svg>
