<?xml version="1.0" encoding="UTF-8"?>
<svg width="17.414" height="16" xmlns="http://www.w3.org/2000/svg">
 <g fill="#2e3436">
  <path d="M4.293 4.293L.586 8l3.707 3.707 1.414-1.414L3.414 8l2.293-2.293z" font-family="sans-serif" font-weight="400" overflow="visible" style="font-feature-settings:normal;font-variant-alternates:normal;font-variant-caps:normal;font-variant-ligatures:normal;font-variant-numeric:normal;font-variant-position:normal;isolation:auto;mix-blend-mode:normal;shape-padding:0;text-decoration-color:#000;text-decoration-line:none;text-decoration-style:solid;text-indent:0;text-orientation:mixed;text-transform:none" white-space="normal"/>
  <path d="M5 11h1v1H5zM5 4h1v1H5z" overflow="visible"/>
  <path d="M5 4c.554 0 1 .446 1 1s-.446 1-1 1-1-.446-1-1 .446-1 1-1zM5 10c.554 0 1 .446 1 1s-.446 1-1 1-1-.446-1-1 .446-1 1-1zM7 7c.554 0 1 .446 1 1s-.446 1-1 1-1-.446-1-1 .446-1 1-1zM11 7c.554 0 1 .446 1 1s-.446 1-1 1-1-.446-1-1 .446-1 1-1z" overflow="visible"/>
  <path d="M13.707 4.293l-1.414 1.414L14.586 8l-2.293 2.293 1.414 1.414L17.414 8z" font-family="sans-serif" font-weight="400" overflow="visible" style="font-feature-settings:normal;font-variant-alternates:normal;font-variant-caps:normal;font-variant-ligatures:normal;font-variant-numeric:normal;font-variant-position:normal;isolation:auto;mix-blend-mode:normal;shape-padding:0;text-decoration-color:#000;text-decoration-line:none;text-decoration-style:solid;text-indent:0;text-orientation:mixed;text-transform:none" white-space="normal"/>
  <path d="M13 4c.554 0 1 .446 1 1s-.446 1-1 1-1-.446-1-1 .446-1 1-1zM13 10c.554 0 1 .446 1 1s-.446 1-1 1-1-.446-1-1 .446-1 1-1z" overflow="visible"/>
  <path d="m12 4h1v1h-1zm0 7h1v1h-1z" overflow="visible"/>
 </g>
</svg>
