<?xml version="1.0" encoding="UTF-8"?>
<svg id="svg1903" width="97.966" height="138.95" version="1.0" xmlns="http://www.w3.org/2000/svg" xmlns:cc="http://creativecommons.org/ns#" xmlns:dc="http://purl.org/dc/elements/1.1/" xmlns:rdf="http://www.w3.org/1999/02/22-rdf-syntax-ns#">
 <metadata id="metadata24">
  <rdf:RDF>
   <cc:Work rdf:about="">
    <dc:format>image/svg+xml</dc:format>
    <dc:type rdf:resource="http://purl.org/dc/dcmitype/StillImage"/>
    <dc:title/>
   </cc:Work>
  </rdf:RDF>
 </metadata>
 <g id="layer1" transform="matrix(.30686 0 0 .30686 -57.947 -76.524)" style="fill:#fff">
  <g id="g3963" transform="translate(925.83 120.88)" style="fill:#fff">
   <g id="g3771" transform="matrix(2.9149 0 0 2.9149 -717.59 128.5)" style="fill:#fff">
    <g id="g3773" style="fill:#fff">
     <path id="path3775" d="m86.068 0c-24.602 0-29.217 35.041-15.377 35.041 13.838 0 39.98-35.041 15.377-35.041z" style="fill:#fff"/>
     <path id="path3777" d="m45.217 30.699c7.369 0.45 15.454-28.122 1.604-26.325-13.845 1.797-8.976 25.875-1.604 26.325z" style="fill:#fff"/>
     <path id="path3779" d="m11.445 48.453c5.241-2.307 0.675-24.872-8.237-18.718-8.908 6.155 2.996 21.024 8.237 18.718z" style="fill:#fff"/>
     <path id="path3781" d="m26.212 36.642c6.239-1.272 6.581-26.864-4.545-22.273-11.128 4.592-1.689 23.547 4.545 22.273z" style="fill:#fff"/>
     <path id="path3783" d="m58.791 93.913c1.107 8.454-6.202 12.629-13.36 7.179-22.787-17.349 37.729-26.004 33.74-49.706-3.311-19.674-63.676-13.617-70.55 17.167-4.653 20.821 19.153 49.707 43.993 49.707 12.22 0 26.315-11.034 28.952-25.012 2.014-10.659-23.699-6.388-22.775 0.665z" style="fill:#fff"/>
    </g>
   </g>
   <g id="g3956" transform="matrix(1.0983 0 0 1.0983 41.061 -50.075)" style="fill:#fff">
    <path id="path3787" d="m-566 509.46c-8.0873 0.21792-14.474 3.1245-19.171 8.6987-4.8638 5.801-7.3102 13.817-7.3102 24.039 0 10.194 2.4465 18.187 7.3102 23.988 4.8876 5.801 11.598 8.6987 20.158 8.6987 8.5831 0 15.31-2.8977 20.174-8.6987 4.8637-5.801 7.2936-13.795 7.2935-23.988-5e-5 -10.222-2.4298-18.238-7.2935-24.039-4.8639-5.8008-11.591-8.6987-20.174-8.6987-0.33434 0-0.6582-9e-3 -0.98693 0zm0.60221 11.777c0.12927-3e-3 0.25357 0 0.38472 0 4.22 0 7.49 1.8261 9.8028 5.487 2.3127 3.6609 3.4794 8.8279 3.4795 15.474 0 6.6176-1.1669 11.746-3.4795 15.407-2.3127 3.6609-5.5829 5.5035-9.8028 5.5035-4.1963 0-7.4398-1.8427-9.7526-5.5035-2.3127-3.6609-3.4794-8.7893-3.4795-15.407 0-6.6457 1.1668-11.813 3.4795-15.474 2.2404-3.5465 5.3596-5.376 9.3678-5.487z" style="fill:#fff"/>
    <path id="path3789" d="m-657.35 568.97c-7.1236 5.9824-17.722 5.9137-22.138 5.9137-8.8932 0-15.939-2.9288-21.136-8.7861-5.1976-5.8852-7.7964-13.855-7.7964-23.908 0-10.166 2.6465-18.163 7.9394-23.992 5.293-5.8289 12.541-8.7436 21.744-8.7436 3.5524 0 6.9499 0.39433 10.193 1.1827 3.2664 0.78841 6.342 1.9571 9.227 3.506l-3.7049 10.953c-1.6218-0.88773-3.4788-1.7629-5.2002-2.3781-2.9326-0.98557-5.8771-1.4782-8.8335-1.4782-5.4838 0-9.7158 1.8162-12.696 5.4489-2.9565 3.6045-4.4347 8.7718-4.4347 15.502 0 6.6742 1.4305 11.827 4.2917 15.46 2.861 3.6327 7.1607 5.4489 12.195 5.4489 5.1148 0 8.2827-1.2892 9.9723-2.6476v-10.911h-11.081v-10.898h21.458" style="fill:#fff"/>
    <path id="path3793" d="m-528.5 510.6h17.524l12.16 39.371 12.231-39.371h14.812l6.6913 63.065h-13.018l-4.0148-39.435-12.303 39.624h-8.7263l-12.303-40.962-4.0148 40.773h-13.054l6.6913-63.065" style="fill:#fff"/>
    <path id="path3795" d="m-455.69 510.6h37.158v12.292h-23.389v13.081h17.98v10.954h-17.98v14.446h24.176v12.292h-37.945v-63.065" style="fill:#fff"/>
    <path id="path3791" d="m-647.94 510.6h8.6869l27.449 37.901v-37.901h11.715v63.065h-8.6869l-27.449-37.901v37.901h-11.715v-63.065" style="fill:#fff"/>
   </g>
  </g>
 </g>
</svg>
