<?xml version="1.0" encoding="UTF-8"?>
<!-- Created with Inkscape (http://www.inkscape.org/) -->
<svg id="svg2" width="24" height="24" version="1.0" xmlns="http://www.w3.org/2000/svg" xmlns:cc="http://creativecommons.org/ns#" xmlns:dc="http://purl.org/dc/elements/1.1/" xmlns:rdf="http://www.w3.org/1999/02/22-rdf-syntax-ns#" xmlns:xlink="http://www.w3.org/1999/xlink">
 <metadata id="metadata64">
  <rdf:RDF>
   <cc:Work rdf:about="">
    <dc:format>image/svg+xml</dc:format>
    <dc:type rdf:resource="http://purl.org/dc/dcmitype/StillImage"/>
   </cc:Work>
  </rdf:RDF>
 </metadata>
 <defs id="defs4">
  <linearGradient id="linearGradient10997">
   <stop id="stop10999" offset="0"/>
   <stop id="stop11001" style="stop-opacity:0" offset="1"/>
  </linearGradient>
  <linearGradient id="linearGradient7361" x1="19.49" x2="19.387" y1="6.1438" y2="8.1" gradientUnits="userSpaceOnUse" xlink:href="#linearGradient10997"/>
  <linearGradient id="linearGradient272-6">
   <stop id="stop273-1" style="stop-color:#474747;stop-opacity:0" offset="0"/>
   <stop id="stop275-8" style="stop-color:#474747" offset=".1"/>
   <stop id="stop276-3" style="stop-color:#474747" offset=".9"/>
   <stop id="stop274-5" style="stop-color:#474747;stop-opacity:0" offset="1"/>
  </linearGradient>
  <linearGradient id="linearGradient2888" x1="12.938" x2="15.25" y1="8.4375" y2="19.812" gradientTransform="matrix(.47619 0 0 .46667 .57143 1.6)" gradientUnits="userSpaceOnUse">
   <stop id="stop6594-0" style="stop-color:#fff;stop-opacity:.27451" offset="0"/>
   <stop id="stop6596-6" style="stop-color:#fff;stop-opacity:0" offset="1"/>
  </linearGradient>
  <linearGradient id="linearGradient2908" x1="20.147" x2="20.104" y1="-.0004971" y2="31.983" gradientTransform="matrix(.49016 0 0 .51667 .23606 1.2334)" gradientUnits="userSpaceOnUse">
   <stop id="stop6546-7" style="stop-color:#f0f0f0" offset="0"/>
   <stop id="stop6548-9" style="stop-color:#d2d2d2" offset="1"/>
  </linearGradient>
  <linearGradient id="linearGradient2913" x1="23.1" x2="23.144" y1="38.297" y2="46.038" gradientTransform="matrix(.28126 0 0 .46466 5.4108 .9146)" gradientUnits="userSpaceOnUse">
   <stop id="stop9349" style="stop-color:#7a7a7a" offset="0"/>
   <stop id="stop9351" style="stop-color:#ebebeb" offset=".19802"/>
   <stop id="stop9353" style="stop-color:#b9b9b9" offset=".59901"/>
   <stop id="stop9355" style="stop-color:#878787" offset="1"/>
  </linearGradient>
  <radialGradient id="radialGradient2921" cx="1120.4" cy="394.78" r="20.625" gradientTransform="matrix(.43636 0 0 .09697 -476.89 -16.282)" gradientUnits="userSpaceOnUse" xlink:href="#linearGradient10997"/>
  <linearGradient id="linearGradient2924" x1=".6121" x2="5.0856" y1="372.58" y2="372.58" gradientTransform="matrix(9.3885 0 0 .22354 29.13 -51.785)" gradientUnits="userSpaceOnUse" xlink:href="#linearGradient272-6"/>
  <linearGradient id="linearGradient2926" x1=".6121" x2="5.0856" y1="372.58" y2="372.58" gradientTransform="matrix(9.3885 0 0 .22354 29.13 -45.865)" gradientUnits="userSpaceOnUse" xlink:href="#linearGradient272-6"/>
  <linearGradient id="linearGradient2928" x1="1.6422" x2="15.343" y1="117.83" y2="117.83" gradientTransform="matrix(3.1119 0 0 .091236 28.949 19.75)" gradientUnits="userSpaceOnUse">
   <stop id="stop179-9" style="stop-color:#fff;stop-opacity:0" offset="0"/>
   <stop id="stop180-2" style="stop-color:#d9d9d9" offset=".10827"/>
   <stop id="stop181-7" style="stop-color:#d9d9d9" offset=".92054"/>
   <stop id="stop182-0" style="stop-color:#fff;stop-opacity:0" offset="1"/>
  </linearGradient>
  <linearGradient id="linearGradient3092" x1="10.014" x2="10.014" y1="44.96" y2="2.8765" gradientTransform="matrix(.82216 0 0 .60691 101.98 17.306)" gradientUnits="userSpaceOnUse">
   <stop id="stop2759" style="stop-color:#650d5c" offset="0"/>
   <stop id="stop2761" style="stop-color:#ad53a5" offset="1"/>
  </linearGradient>
  <radialGradient id="radialGradient3090" cx="26.617" cy="-2.0645" r="23" gradientTransform="matrix(-1.5618e-8 -.71585 1.1993 0 131.99 53.751)" gradientUnits="userSpaceOnUse">
   <stop id="stop2749" style="stop-color:#d78ec1" offset="0"/>
   <stop id="stop2751" style="stop-color:#c564be" offset=".26238"/>
   <stop id="stop2753" style="stop-color:#9d3ea4" offset=".66094"/>
   <stop id="stop2755" style="stop-color:#5e2c73" offset="1"/>
  </radialGradient>
 </defs>
 <g id="g17906" transform="matrix(1 0 0 .96786 1.2296 -27.408)"></g>
 <path id="path6774" d="m21 22a9 2 0 0 1-18 0 9 2 0 1 1 18 0z" style="enable-background:new;fill-rule:evenodd;fill:url(#radialGradient2921);opacity:.3"/>
 <g id="g7753" transform="matrix(.52174 0 0 1 -16.914 -10)" style="enable-background:new">
  <rect id="rect8601" x="34.877" y="31" width="42" height="1" style="display:block;fill:url(#linearGradient2924);opacity:.65"/>
  <rect id="rect8603" x="34.877" y="29" width="42" height="1" style="display:block;fill:url(#linearGradient2926);opacity:.65"/>
  <rect id="rect8605" x="34.627" y="30" width="41.5" height="1" style="display:block;fill:url(#linearGradient2928)"/>
 </g>
 <path id="path8607" d="m11.146 18.5h-1.2436c-0.22399 0-0.40203 0.28469-0.40203 0.64285v2.714c0 0.35815 0.17804 0.64305 0.40203 0.64305h4.1959c0.22398 0 0.40203-0.2849 0.40203-0.64305v-2.714c0-0.35816-0.17804-0.64285-0.40203-0.64285h-1.0851-1.8672z" style="display:block;enable-background:new;fill:url(#linearGradient2913);stroke-width:1.0001;stroke:#5a5c58"/>
 <rect id="rect8615" x="12" y="19" width="2" height="1" rx=".5" ry=".5" style="display:block;enable-background:new;fill-opacity:.72024;fill:#fff"/>
 <path id="path8617" d="m11 19.5a0.5 0.5 0 0 1-1 0 0.5 0.5 0 1 1 1 0z" style="display:block;enable-background:new;fill-opacity:.72024;fill:#fff"/>
 <rect id="rect2722" x=".50002" y="1.5" width="23" height="16" rx="1.0016" ry="1.001" style="fill:url(#linearGradient2908);stroke-dashoffset:.5;stroke-linecap:round;stroke-linejoin:round;stroke:#969696"/>
 <g id="g2613" transform="matrix(.97944 0 0 .95876 -23.863 -10.128)">
  <g id="g2615" transform="matrix(1 0 0 .96786 1.2296 -3.4077)"></g>
  <g id="g2974" transform="matrix(.50138 0 0 .50056 -24.419 4.5505)">
   <rect id="rect2983" x="102.39" y="19.307" width="38.687" height="25" style="fill-rule:evenodd;fill:url(#radialGradient3090);stroke-linecap:round;stroke-linejoin:round;stroke-width:2.0643;stroke:url(#linearGradient3092)"/>
  </g>
 </g>
 <rect id="rect3704" x="3" y="4" width="18" height="1" style="fill:#fff;opacity:.8"/>
 <rect id="rect7303" x="5" y="9" width="5" height="4" rx=".5" ry=".5" style="fill:#fff;opacity:.9"/>
 <rect id="rect7303-8" x="12" y="6" width="7" height="6" rx="1" ry="1" style="fill:#fff;opacity:.9"/>
 <path id="rect6588" d="m2 3h20v3.7333l-20 3.2667v-7z" style="fill:url(#linearGradient2888)"/>
</svg>
