<?xml version="1.0" encoding="UTF-8"?>
<svg width="16px" height="16px" viewBox="0 0 16 16" xmlns="http://www.w3.org/2000/svg">
 <g fill="#2e3436">
  <path d="m5.5273 0c-1.0938 0-1.918 0.67969-2.2305 1.293-0.31641 0.61719-0.30078 1.207-0.30078 1.207v13.117l5-2.5 5 2.5v-4.6172h-2v1.3828l-3-1.5-3 1.5v-9.8828s0.011718-0.16016 0.078125-0.29297c0.070312-0.13672 0.011719-0.20703 0.44922-0.20703h4.9727c0.41406 0 0.34766 0.0625 0.41797 0.19922 0.066407 0.13281 0.082032 0.30078 0.082032 0.30078v0.5h2v-0.5s0.011718-0.58203-0.29297-1.1992c-0.30859-0.61328-1.125-1.3008-2.207-1.3008z" fill-rule="evenodd"/>
  <path d="m11 4v2h-2v2h2v2h2v-2h2v-2h-2v-2z"/>
 </g>
</svg>
