<?xml version="1.0" encoding="UTF-8"?>
<svg width="16px" height="16px" viewBox="0 0 16 16" xmlns="http://www.w3.org/2000/svg">
 <path d="m14.234 11.715c-0.38281 0.38281-1 0.38281-1.3867 0l-1.0391-1.0391-1.0391-1.043c-0.38672-0.38281-0.38672-1 0-1.3867l0.49219-0.49219c-2.0352-1.1094-4.5-1.1094-6.5352 0l0.49219 0.49219c0.38672 0.38672 0.38672 1.0039 0 1.3867l-1.0391 1.043-1.0391 1.0391c-0.38672 0.38281-1.0039 0.38281-1.3867 0l-1.043-1.0391c-0.95703-0.95703-0.95703-2.5117 0-3.4688l0.34766-0.34766c3.8164-3.8164 10.055-3.8164 13.871 0l0.34766 0.34766c0.95703 0.95703 0.95703 2.5117 0 3.4688z" fill="#2e3436"/>
</svg>
