<?xml version="1.0" encoding="UTF-8"?>
<svg width="16px" height="16px" viewBox="0 0 16 16" xmlns="http://www.w3.org/2000/svg">
 <path d="m12.957 0.98047c-0.51953 0.015625-1.0156 0.23438-1.375 0.60547l-1.5859 1.5859-1.0859-1.0859c-0.097656-0.09375-0.22656-0.14844-0.36328-0.14844-0.12891 0.003906-0.25391 0.054688-0.34375 0.14844l-2.1211 2.1211c-0.19531 0.19531-0.19531 0.51172 0 0.70703l0.64453 0.64844-5.5859 5.582c-0.09375 0.097657-0.14453 0.22266-0.14453 0.35547v1.793l-0.85547 0.85156c-0.19531 0.19531-0.19531 0.51562 0 0.71094l1 1c0.19531 0.19141 0.51172 0.19141 0.70703 0l0.85547-0.85547h1.793c0.13281 0 0.25781-0.050781 0.35156-0.14453l5.5859-5.5859 0.64844 0.64453c0.19531 0.19531 0.51172 0.19531 0.70703 0l2.1211-2.1211c0.19531-0.19531 0.19531-0.51172 0-0.70703l-1.0859-1.0859 1.5859-1.5859c1.3047-1.2734 0.36719-3.4883-1.4531-3.4336zm-5.0234 5.7891 1.293 1.293-2.9375 2.9375h-2.5859z" fill="#2e3436" fill-rule="evenodd"/>
</svg>
