<?xml version="1.0" encoding="UTF-8"?>
<svg width="16px" height="16px" viewBox="0 0 16 16" xmlns="http://www.w3.org/2000/svg">
 <g fill="#2e3436">
  <path d="m5 1c-0.55078 0-1 0.44922-1 1v1h8v-1c0-0.55078-0.44922-1-1-1zm-3 3c-1.1094 0-2 0.89062-2 2v4c0 1.1094 0.89062 2 2 2v1c0 1.0898 0.91016 2 2 2h7c-1.5391 0-2.9141-0.79688-3.7305-2h-3.2695v-3h2.5312c0.25-2.2305 2.1758-4 4.4688-4 2.4609 0 4.5 2.0391 4.5 4.5 0 0.31641-0.035156 0.62891-0.097656 0.92969 0.36719-0.36328 0.59766-0.86719 0.59766-1.4297v-4c0-1.1094-0.89062-2-2-2z"/>
  <path d="m11 7c-1.9219 0-3.5 1.5781-3.5 3.5s1.5781 3.5 3.5 3.5 3.5-1.5781 3.5-3.5-1.5781-3.5-3.5-3.5zm0 2c0.83984 0 1.5 0.66016 1.5 1.5s-0.66016 1.5-1.5 1.5-1.5-0.66016-1.5-1.5 0.66016-1.5 1.5-1.5z"/>
  <path d="m16 14.5c0-0.26562-0.10547-0.51953-0.29297-0.70703l-2-2c-0.39062-0.39062-1.0234-0.39062-1.4141 0-0.1875 0.1875-0.29297 0.44141-0.29297 0.70703s0.10547 0.51953 0.29297 0.70703l2 2c0.39062 0.39062 1.0234 0.39062 1.4141 0 0.1875-0.1875 0.29297-0.44141 0.29297-0.70703z"/>
 </g>
</svg>
