<?xml version="1.0" encoding="UTF-8"?>
<svg width="16px" height="16px" viewBox="0 0 16 16" xmlns="http://www.w3.org/2000/svg">
 <g fill="#2e3436">
  <path d="m9.2344 6.2188c-0.38672-0.070312-0.79688-0.054688-1.1914-0.003906l1.1719 2.0742c0.24219 0.42578-0.027344 0.91406-0.54297 1.2109l-0.92188 0.53125c-0.51562 0.28906-1.0938 0.25-1.332-0.17578l-1.1719-2.0742c-0.24609 0.30859-0.47656 0.64844-0.61719 1.0156-0.67969 1.7656 0.28516 3.4727 2.1523 3.8086 0.38672 0.074219 0.79688 0.054687 1.1914 0.003906 0.03125-0.003906 1.8594 3.3906 1.8594 3.3906l4.168 0.003906-3.1992-4.957c0.24609-0.30859 0.44531-0.65234 0.58594-1.0195 0.67578-1.7656-0.28516-3.4727-2.1523-3.8086z"/>
  <path d="m2 0c-0.55078 0-1 0.44922-1 1v14c0 0.55078 0.44922 1 1 1h5c0.55078 0 1-0.44922 1-1s-0.44922-1-1-1h-4v-12h7.5859l2.4141 2.4141v7.5859c0 0.55078 0.44922 1 1 1s1-0.44922 1-1v-8c0-0.26562-0.10547-0.51953-0.29297-0.70703l-3-3c-0.1875-0.1875-0.44141-0.29297-0.70703-0.29297z" fill-rule="evenodd"/>
 </g>
</svg>
