<?xml version="1.0" encoding="UTF-8"?>
<svg width="16px" height="16px" viewBox="0 0 16 16" xmlns="http://www.w3.org/2000/svg">
 <g fill="#2e3436">
  <path d="m2 0c-0.55078 0-1 0.44922-1 1v2c0 0.55078 0.44922 1 1 1s1-0.44922 1-1v-1h7.5859l2.4141 2.4141v5.5859c0 0.55078 0.44922 1 1 1s1-0.44922 1-1v-6c0-0.26562-0.10547-0.51953-0.29297-0.70703l-3-3c-0.1875-0.1875-0.44141-0.29297-0.70703-0.29297zm0 14c-0.55078 0-1 0.44922-1 1s0.44922 1 1 1h12c0.55078 0 1-0.44922 1-1s-0.44922-1-1-1z" fill-rule="evenodd"/>
  <path d="m1 4.7656v8.2344h14.223zm2 3.4688 4.7773 2.7656h-4.7773z" fill-rule="evenodd"/>
  <path d="m1 14h1v1h-1z"/>
  <path d="m14 14h1v1h-1z"/>
 </g>
</svg>
