<?xml version="1.0" encoding="UTF-8"?>
<svg width="16px" height="16px" viewBox="0 0 16 16" xmlns="http://www.w3.org/2000/svg">
 <g fill="#2e3436">
  <path d="m7.0078 3v6.5625l-2.2812-2.2812c-0.19141-0.1875-0.45703-0.28125-0.71875-0.28125h-1v1c0 0.26562 0.089844 0.53125 0.28125 0.71875l4.2812 4.2812h0.875l4.2812-4.2812c0.1875-0.1875 0.27734-0.45312 0.28125-0.71875v-1h-1c-0.26562 0-0.53125 0.09375-0.71875 0.28125l-2.2812 2.2812v-6.5625z"/>
  <path d="m2 14 0.007812 2h12l-0.007812-2z" fill-rule="evenodd"/>
  <path d="m6 1c0 0.55078-0.44922 1-1 1s-1-0.44922-1-1 0.44922-1 1-1 1 0.44922 1 1z"/>
  <path d="m9 1c0 0.55078-0.44922 1-1 1s-1-0.44922-1-1 0.44922-1 1-1 1 0.44922 1 1z"/>
  <path d="m12 1c0 0.55078-0.44922 1-1 1s-1-0.44922-1-1 0.44922-1 1-1 1 0.44922 1 1z"/>
 </g>
</svg>
