<?xml version="1.0" encoding="UTF-8"?>
<svg width="16px" height="16px" viewBox="0 0 16 16" xmlns="http://www.w3.org/2000/svg">
 <g fill="#2e3436">
  <path d="m1 3c-0.55078 0-1 0.44922-1 1v9s-0.015625 0.45703 0.23047 0.94922c0.24609 0.48828 0.9375 1.0508 1.7695 1.0508h12s0.45703 0.015625 0.94922-0.23047c0.48828-0.24609 1.0508-0.9375 1.0508-1.7695v-3c0-0.55078-0.44922-1-1-1h-11c-0.55078 0-1 0.44922-1 1v3h-1v-5h1v-5z" fill-rule="evenodd"/>
  <path d="m15 10h1v1h-1z"/>
  <path d="m3 9h1v1h-1z"/>
  <path d="m5 0c-0.55078 0-1 0.44922-1 1v7h2v-6h5.0859l2.9141 2.9141v3.0859h2v-3.5c0-0.26562-0.10547-0.51953-0.29297-0.70703l-3.5-3.5c-0.1875-0.1875-0.44141-0.29297-0.70703-0.29297z" fill-rule="evenodd"/>
  <path d="m11 1v4h4z" fill-rule="evenodd"/>
  <path d="m15 9h1v1h-1z"/>
 </g>
</svg>
