<?xml version="1.0" encoding="UTF-8"?>
<svg width="16px" height="16px" viewBox="0 0 16 16" xmlns="http://www.w3.org/2000/svg">
 <g fill="#2e3436">
  <path d="m1 1c0-0.55078 0.44922-1 1-1h9c0.26562 0 0.51953 0.10547 0.70703 0.29297l3 3c0.1875 0.1875 0.29297 0.44141 0.29297 0.70703v11c0 0.55078-0.44922 1-1 1h-4v-2h3v-9.5859l-2.4141-2.4141h-7.5859v12h3v2h-4c-0.55078 0-1-0.44922-1-1zm6 6h2v9h-2z" fill-rule="evenodd"/>
  <path d="m12 10c0-0.27734-0.11328-0.52734-0.29297-0.70703l-3.707-3.707-3.707 3.707c-0.17969 0.17969-0.29297 0.42969-0.29297 0.70703v1h1c0.27734 0 0.52734-0.11328 0.70703-0.29297l2.293-2.293 2.293 2.293c0.17969 0.17969 0.42969 0.29297 0.70703 0.29297h1z"/>
 </g>
</svg>
