<?xml version="1.0" encoding="UTF-8"?>
<svg width="16px" height="16px" viewBox="0 0 16 16" xmlns="http://www.w3.org/2000/svg">
 <g fill="#2e3436">
  <path d="m2 0c-0.55078 0-1 0.44922-1 1v14c0 0.55078 0.44922 1 1 1h10v-2h-9v-12h7.5859l2.4141 2.4141v2.5859h2v-3c0-0.26562-0.10547-0.51953-0.29297-0.70703l-3-3c-0.1875-0.1875-0.44141-0.29297-0.70703-0.29297zm5 8v2h4c1.1172 0 2 0.88281 2 2v4h2v-4c0-2.1992-1.8008-4-4-4z" fill-rule="evenodd"/>
  <path d="m9 5c-0.27734 0-0.52734 0.11328-0.70703 0.29297l-3.707 3.707 3.707 3.707c0.17969 0.17969 0.42969 0.29297 0.70703 0.29297h1v-1c0-0.27734-0.11328-0.52734-0.29297-0.70703l-2.293-2.293 2.293-2.293c0.17969-0.17969 0.29297-0.42969 0.29297-0.70703v-1z"/>
 </g>
</svg>
