<?xml version="1.0" encoding="UTF-8"?>
<svg width="16px" height="16px" viewBox="0 0 16 16" xmlns="http://www.w3.org/2000/svg">
 <path d="m10 2c0.26562 0 0.51953 0.10547 0.70703 0.29297l5 5c0.39062 0.39062 0.39062 1.0234 0 1.4141l-5 5c-0.1875 0.1875-0.44141 0.29297-0.70703 0.29297h-8.5s-0.33203 0.015625-0.69531-0.16797c-0.36719-0.18359-0.80469-0.75-0.80469-1.332v-9c0-0.58203 0.4375-1.1484 0.80469-1.332 0.36328-0.18359 0.69531-0.16797 0.69531-0.16797zm-1.0039 3h-1-0.03125c-0.25781 0.011719-0.51172 0.12891-0.6875 0.3125l-1.2812 1.2812-1.3125-1.2812c-0.26562-0.23047-0.44922-0.30469-0.6875-0.3125h-1v1c0 0.28516 0.03125 0.55078 0.25 0.75l1.2812 1.2812-1.25 1.25c-0.19141 0.1875-0.28125 0.45312-0.28125 0.71875v1h1c0.26172 0 0.52734-0.09375 0.71875-0.28125l1.2812-1.2812 1.2812 1.2812c0.1875 0.1875 0.45312 0.28125 0.71875 0.28125h1v-1c0-0.26562-0.09375-0.53125-0.28125-0.71875l-1.2812-1.25 1.2812-1.2812c0.21094-0.19531 0.30078-0.46875 0.28125-0.75z" fill="#2e3436" fill-rule="evenodd"/>
</svg>
