<?xml version="1.0" encoding="UTF-8"?>
<svg width="16px" height="16px" viewBox="0 0 16 16" xmlns="http://www.w3.org/2000/svg">
 <path d="m5.9961 2c-0.26562 0-0.51953 0.10547-0.70703 0.29297l-5 5c-0.39062 0.39062-0.39062 1.0234 0 1.4141l5 5c0.1875 0.1875 0.44141 0.29297 0.70703 0.29297h8.5s0.33203 0.015625 0.69531-0.16797c0.36328-0.18359 0.80469-0.75 0.80469-1.332v-9c0-0.58203-0.44141-1.1484-0.80469-1.332-0.36328-0.18359-0.69531-0.16797-0.69531-0.16797zm1.0039 3h1.0312c0.25391 0.011719 0.51172 0.12891 0.6875 0.3125l1.2812 1.2812 1.3125-1.2812c0.26562-0.23047 0.44531-0.30469 0.6875-0.3125h1v1c0 0.28516-0.035156 0.55078-0.25 0.75l-1.2812 1.2812 1.25 1.25c0.1875 0.1875 0.28125 0.45312 0.28125 0.71875v1h-1c-0.26562 0-0.53125-0.09375-0.71875-0.28125l-1.2812-1.2812-1.2812 1.2812c-0.1875 0.1875-0.45312 0.28125-0.71875 0.28125h-1v-1c0-0.26562 0.09375-0.53125 0.28125-0.71875l1.2812-1.25-1.2812-1.2812c-0.21094-0.19531-0.30469-0.46875-0.28125-0.75z" fill="#2e3436" fill-rule="evenodd"/>
</svg>
