<?xml version="1.0" encoding="UTF-8"?>
<svg width="16px" height="16px" viewBox="0 0 16 16" xmlns="http://www.w3.org/2000/svg">
 <g fill="#2e3436">
  <path d="m0 0h3v3h-3z"/>
  <path d="m13 0h3v3h-3z"/>
  <path d="m0 13h3v3h-3z"/>
  <path d="m13 13h3v3h-3z"/>
  <path d="m0 4h2v4h-2z"/>
  <path d="m0 9h2v3h-2z"/>
  <path d="m14 4h2v3h-2z"/>
  <path d="m14 8h2v4h-2z"/>
  <g fill-opacity=".32717">
   <path d="m5 8h2c0.55078 0 1 0.44922 1 1v2c0 0.55078-0.44922 1-1 1h-2c-0.55078 0-1-0.44922-1-1v-2c0-0.55078 0.44922-1 1-1z"/>
   <path d="m5 4h1c0.55078 0 1 0.44922 1 1v1c0 0.55078-0.44922 1-1 1h-1c-0.55078 0-1-0.44922-1-1v-1c0-0.55078 0.44922-1 1-1z"/>
   <path d="m9 4h2c0.55078 0 1 0.44922 1 1v2c0 0.55078-0.44922 1-1 1h-2c-0.55078 0-1-0.44922-1-1v-2c0-0.55078 0.44922-1 1-1z"/>
  </g>
  <path d="m12 0v2h-4v-2z"/>
  <path d="m7 0v2h-3v-2z"/>
  <path d="m12 14v2h-3v-2z"/>
  <path d="m8 14v2h-4v-2z"/>
  <path d="m10 9h1c0.55078 0 1 0.44922 1 1v1c0 0.55078-0.44922 1-1 1h-1c-0.55078 0-1-0.44922-1-1v-1c0-0.55078 0.44922-1 1-1z" fill-opacity=".32717"/>
 </g>
</svg>
