<?xml version="1.0" encoding="UTF-8"?>
<svg width="16px" height="16px" viewBox="0 0 16 16" xmlns="http://www.w3.org/2000/svg">
 <path d="m7.9688 1c-3.8516 0-6.9688 3.1172-6.9688 6.9688s3.1172 6.9688 6.9688 6.9688 6.9688-3.1172 6.9688-6.9688-3.1172-6.9688-6.9688-6.9688zm-3 3.9688h1.0312c0.25391 0.011719 0.51172 0.12891 0.6875 0.3125l1.2812 1.2812 1.3125-1.2812c0.26562-0.23047 0.44531-0.30469 0.6875-0.3125h1v1c0 0.28516-0.035156 0.55078-0.25 0.75l-1.2812 1.2812 1.25 1.25c0.1875 0.1875 0.28125 0.45312 0.28125 0.71875v1h-1c-0.26562 0-0.53125-0.09375-0.71875-0.28125l-1.2812-1.2812-1.2812 1.2812c-0.1875 0.1875-0.45312 0.28125-0.71875 0.28125h-1v-1c0-0.26562 0.09375-0.53125 0.28125-0.71875l1.2812-1.25-1.2812-1.2812c-0.21094-0.19531-0.30469-0.46875-0.28125-0.75z" fill="#2e3436"/>
</svg>
