<?xml version="1.0" encoding="UTF-8"?>
<svg width="16px" height="16px" viewBox="0 0 16 16" xmlns="http://www.w3.org/2000/svg">
 <g fill="#2e3436">
  <path d="m5.5 1h5c0.27734 0 0.5 0.22266 0.5 0.5v3c0 0.27734-0.22266 0.5-0.5 0.5h-5c-0.27734 0-0.5-0.22266-0.5-0.5v-3c0-0.27734 0.22266-0.5 0.5-0.5z"/>
  <path d="m7.5 0h1c0.27734 0 0.5 0.22266 0.5 0.5v3c0 0.27734-0.22266 0.5-0.5 0.5h-1c-0.27734 0-0.5-0.22266-0.5-0.5v-3c0-0.27734 0.22266-0.5 0.5-0.5z"/>
  <path d="m4 1c-1.6445 0-3 1.3555-3 3v9c0 1.6445 1.3555 3 3 3h8c1.6445 0 3-1.3555 3-3v-9c0-1.6445-1.3555-3-3-3v2c0.57031 0 1 0.42969 1 1v9c0 0.57031-0.42969 1-1 1h-8c-0.57031 0-1-0.42969-1-1v-9c0-0.57031 0.42969-1 1-1z"/>
 </g>
</svg>
