<?xml version="1.0" encoding="UTF-8"?>
<svg width="16px" height="16px" viewBox="0 0 16 16" xmlns="http://www.w3.org/2000/svg">
 <g fill="#2e3436">
  <path d="m9.3398 9.2148c-0.046875 0.039062-0.085938 0.082031-0.125 0.125zm2.0625 0.75781-1.4141 1.4258 3.3125 3.3203c0.96094 0.9375 2.3672-0.5 1.4062-1.4375z"/>
  <path d="m6.5 0c-3.5781 0-6.5 2.9219-6.5 6.5 0 1.6836 0.64844 3.2188 1.707 4.375l1.3984-1.4102c-0.6875-0.78906-1.1055-1.8242-1.1055-2.9648 0-2.4961 2.0039-4.5 4.5-4.5 1.1289 0 2.1562 0.41016 2.9453 1.0898l0.36328-0.36719 0.70703-0.71094 0.011719 0.007812 0.33203-0.33203c-1.1562-1.0469-2.6836-1.6875-4.3594-1.6875z"/>
  <g fill-rule="evenodd">
   <path d="m13.629 0.66406c-0.20312 0-0.40234 0.074219-0.55469 0.23047l-1.7734 1.7656 3.0547 3.0547 1.7695-1.7695c0.30859-0.30859 0.30859-0.80469 0-1.1094l-1.9414-1.9414c-0.15625-0.15625-0.35547-0.23047-0.55469-0.23047zm-3.1094 2.7656-8.5195 8.5703v3h3l8.5195-8.5703z"/>
   <path d="m13.629 0.66406c-0.20312 0-0.40234 0.074219-0.55469 0.23047l-1.7734 1.7656 3.0547 3.0547 1.7695-1.7695c0.30859-0.30859 0.30859-0.80469 0-1.1094l-1.9414-1.9414c-0.15625-0.15625-0.35547-0.23047-0.55469-0.23047zm-3.1094 2.7656-8.5195 8.5703v3h3l8.5195-8.5703z"/>
  </g>
 </g>
</svg>
