<?xml version="1.0" encoding="UTF-8"?>
<svg width="16px" height="16px" viewBox="0 0 16 16" xmlns="http://www.w3.org/2000/svg">
 <g fill="#2e3436">
  <path d="m2 0c-1.1094 0-2 0.89062-2 2v6c0 1.1094 0.89062 2 2 2v-5c0-1.6602 1.3398-3 3-3h5c0-1.1094-0.89062-2-2-2z"/>
  <path d="m5 3c-1.1094 0-2 0.89062-2 2v6c0 1.1094 0.89062 2 2 2v-5c0-1.6602 1.3398-3 3-3h5c0-1.1094-0.89062-2-2-2z"/>
  <path d="m8 6c-1.1094 0-2 0.89062-2 2v6c0 1.1094 0.89062 2 2 2h6c1.1094 0 2-0.89062 2-2v-6c0-1.1094-0.89062-2-2-2zm0.003906 2h1.0273c0.25781 0.011719 0.51172 0.12891 0.6875 0.3125l1.2812 1.2812 1.3125-1.2812c0.26562-0.23047 0.44531-0.30469 0.6875-0.3125h1v1c0 0.28516-0.035156 0.55078-0.25 0.75l-1.2812 1.2812 1.25 1.25c0.1875 0.1875 0.28125 0.45312 0.28125 0.71875v1h-1c-0.26562 0-0.53125-0.09375-0.71875-0.28125l-1.2812-1.2812-1.2812 1.2812c-0.1875 0.1875-0.45312 0.28125-0.71875 0.28125h-0.99609v-1c0-0.26562 0.09375-0.53125 0.28125-0.71875l1.2773-1.25-1.2773-1.2812c-0.21094-0.19531-0.30469-0.46875-0.28125-0.75z"/>
 </g>
</svg>
