<?xml version="1.0" encoding="UTF-8"?>
<svg width="16px" height="16px" viewBox="0 0 16 16" xmlns="http://www.w3.org/2000/svg">
 <g fill="#2e3436">
  <path d="m9 1.0234v1c0 0.25391 0.12891 0.52734 0.3125 0.71875l3.2812 3.2812-3.2812 3.2812c-0.18359 0.1875-0.3125 0.46094-0.3125 0.71875v1h1c0.30859 0 0.55078-0.089844 0.75-0.28125l4.6562-4.7188-4.6562-4.7188c-0.19922-0.19141-0.44141-0.28125-0.75-0.28125z"/>
  <path d="m13 5h-8v2h8z"/>
  <path d="m5 5v2c-1.668 0-3 1.332-3 3s1.332 3 3 3v2c-2.75 0-5-2.25-5-5s2.25-5 5-5z"/>
 </g>
</svg>
