<?xml version="1.0" encoding="UTF-8"?>
<svg width="16px" height="16px" viewBox="0 0 16 16" xmlns="http://www.w3.org/2000/svg">
 <g fill="#2e3436">
  <path d="m10.805 10c-0.8125 0.14453-1.1055 1.1562-0.5 1.7188l3 3c0.95703 0.9375 2.3633-0.5 1.4062-1.4375l-3-3c-0.23828-0.24219-0.57813-0.34766-0.90625-0.28125z"/>
  <path d="m6.5 0c-3.5781 0-6.5 2.9219-6.5 6.5s2.9219 6.4961 6.5 6.4961 6.5-2.918 6.5-6.4961-2.9219-6.5-6.5-6.5zm0 2c2.4961 0 4.5 2.0039 4.5 4.5s-2.0039 4.4961-4.5 4.4961-4.5-2-4.5-4.4961 2.0039-4.5 4.5-4.5z"/>
 </g>
</svg>
