<?xml version="1.0" encoding="UTF-8"?>
<svg width="16px" height="16px" viewBox="0 0 16 16" xmlns="http://www.w3.org/2000/svg">
 <g fill="#2e3436">
  <path d="m14 1-5.2031 4.9727 1.5625 1.5273 5.6406-5.5v-1zm-6.8047 6.5-2.9766 2.8438 1.6875 1.5 2.8906-2.8164z"/>
  <path d="m4.2188 5.6562 9.7812 9.3438h2v-1l-10.094-9.8438z"/>
  <path d="m5.9727 1.0195c-1.3594-1.3594-3.5938-1.3594-4.9531 0s-1.3594 3.5938 0 4.9531 3.5938 1.3633 4.9531 0c1.3594-1.3594 1.3594-3.5938 0-4.9531zm-1.4141 1.4141c0.59766 0.59375 0.59766 1.5312 0 2.125-0.59375 0.59766-1.5273 0.59766-2.125 0-0.59375-0.59375-0.59375-1.5273 0-2.125 0.59766-0.59375 1.5312-0.59375 2.125 0z"/>
  <path d="m5.9727 10.02c-1.3594-1.3594-3.5938-1.3594-4.9531 0s-1.3594 3.5977 0 4.957c1.3594 1.3594 3.5938 1.3555 4.9531-0.003906s1.3594-3.5938 0-4.9531zm-1.4141 1.4141c0.59766 0.59766 0.59766 1.5312 0 2.125-0.59375 0.59766-1.5273 0.59766-2.125 0.003906-0.59375-0.59766-0.59375-1.5312 0-2.1289 0.59766-0.59375 1.5312-0.59375 2.125 0z"/>
 </g>
</svg>
