<?xml version="1.0" encoding="UTF-8"?>
<svg width="16px" height="16px" viewBox="0 0 16 16" xmlns="http://www.w3.org/2000/svg">
 <g fill="#2e3436">
  <path d="m12.629 0.66406c-0.20312 0-0.40234 0.074219-0.55469 0.23047l-1.7695 1.7656 3.0508 3.0547 1.7695-1.7695c0.30859-0.30859 0.30859-0.80469 0-1.1094l-1.9414-1.9414c-0.15625-0.15625-0.35547-0.23047-0.55469-0.23047zm-3.1094 2.7656-8.5195 8.5703v3h3l8.5195-8.5703z" fill-rule="evenodd"/>
  <path d="m10 0h-5s-0.71094-0.011719-1.4492 0.35547c-0.73828 0.37109-1.5508 1.3125-1.5508 2.6445v3h2v-3c0-0.66406 0.18359-0.72656 0.44531-0.85547 0.26172-0.13281 0.55469-0.14453 0.55469-0.14453h5z" fill-rule="evenodd"/>
  <path d="m5.707 5.707-1.4141-1.4141-1.293 1.293-1.293-1.293-1.4141 1.4141 2.707 2.707z"/>
  <path d="m5 5v-1h1v1z"/>
  <path d="m0 5v-1h1v1z"/>
  <path d="m0 5c0-0.55078 0.44922-1 1-1s1 0.44922 1 1-0.44922 1-1 1-1-0.44922-1-1z"/>
  <path d="m4 5c0-0.55078 0.44922-1 1-1s1 0.44922 1 1-0.44922 1-1 1-1-0.44922-1-1z"/>
 </g>
</svg>
