<?xml version="1.0" encoding="UTF-8"?>
<svg width="16px" height="16px" viewBox="0 0 16 16" xmlns="http://www.w3.org/2000/svg">
 <g fill="#2e3436">
  <path d="m11 8c0 1.6562-1.3438 3-3 3s-3-1.3438-3-3 1.3438-3 3-3 3 1.3438 3 3z"/>
  <path d="m8 1c-3.8516 0-7 3.1445-7 7s3.1484 7 7 7 7-3.1445 7-7-3.1484-7-7-7zm0 2c2.7734 0 5 2.2305 5 5s-2.2266 4.9961-5 4.9961-5-2.2266-5-4.9961 2.2266-5 5-5z"/>
  <path d="m7 0h2v3h-2z"/>
  <path d="m7 13h2v3h-2z"/>
  <path d="m16 7v2h-3v-2z"/>
  <path d="m3 7v2h-3v-2z"/>
 </g>
</svg>
