<?xml version="1.0" encoding="UTF-8"?>
<svg width="16px" height="16px" viewBox="0 0 16 16" xmlns="http://www.w3.org/2000/svg">
 <g fill="#2e3436">
  <path d="m11.996 10.008v1.9961h-2v1.9961h2v2h2v-2h2v-1.9961h-2v-1.9961z"/>
  <path d="m1.9961 1s-0.45703-0.015625-0.94531 0.23047c-0.48828 0.24609-1.0547 0.9375-1.0547 1.7695v10s-0.011719 0.45703 0.23047 0.94922c0.24609 0.48828 0.9375 1.0508 1.7695 1.0508h7v-2h-7v-10h4.5859l1.707 1.707c0.1875 0.1875 0.44531 0.29297 0.70703 0.29297h5v4h2v-4s0.015625-0.45703-0.23047-0.94922c-0.24219-0.48828-0.93359-1.0508-1.7695-1.0508h-4.5859l-1.707-1.707c-0.1875-0.1875-0.44141-0.29297-0.70703-0.29297z" fill-rule="evenodd"/>
 </g>
</svg>
