<?xml version="1.0" encoding="UTF-8"?>
<svg width="16px" height="16px" viewBox="0 0 16 16" xmlns="http://www.w3.org/2000/svg">
 <g fill="#2e3436">
  <path d="m0 5v1c0 0.25781 0.12891 0.52734 0.3125 0.71875l1.2812 1.2812-1.2812 1.2812c-0.18359 0.19141-0.3125 0.46094-0.3125 0.71875v1h1c0.30859 0 0.55078-0.089844 0.75-0.28125l2.6562-2.7188-2.6562-2.7188c-0.19922-0.19141-0.44141-0.28125-0.75-0.28125z"/>
  <path d="m16 5v1c0 0.25781-0.12891 0.52734-0.3125 0.71875l-1.2812 1.2812 1.2812 1.2812c0.18359 0.19141 0.3125 0.46094 0.3125 0.71875v1h-1c-0.30859 0-0.55078-0.089844-0.75-0.28125l-2.6562-2.7188 2.6562-2.7188c0.19922-0.19141 0.44141-0.28125 0.75-0.28125z"/>
  <path d="m7 3.0117v2h1.918c-0.054688 0 0.085937 0.16016 0.085937 0.082031v0.92188h-1.0039c-1.7148 0-3.0312 1.1289-3.0547 2.4844-0.011718 0.67969 0.30469 1.3633 0.85938 1.8242 0.55859 0.46094 1.3164 0.69922 2.1953 0.69922h3.0039v-5.9297c0-1.1719-0.88672-2.082-2.0859-2.082zm1 5.0078h1.0039v1.0039h-1.0039c-0.51953 0-0.79297-0.13672-0.92188-0.24219-0.125-0.10547-0.13281-0.17188-0.13281-0.24219 0.003907-0.14453 0.085938-0.51953 1.0547-0.51953z"/>
 </g>
</svg>
