<?xml version="1.0" encoding="UTF-8"?>
<svg width="16px" height="16px" viewBox="0 0 16 16" xmlns="http://www.w3.org/2000/svg">
 <g fill="#2e3436">
  <path d="m2 0v2h6c0.42969 0 1 0.61328 1 1v1h-5c-0.91797 0-1.7344 0.38281-2.25 0.96875s-0.75781 1.3125-0.75 2.0312 0.26953 1.4531 0.78125 2.0312 1.3125 0.96875 2.2188 0.96875h7v-7c0-1.6328-1.3203-3-3-3zm2 6h5v2h-5c-0.39844 0-0.56641-0.10938-0.71875-0.28125s-0.27734-0.4375-0.28125-0.71875c0-0.28125 0.10547-0.55469 0.25-0.71875s0.32812-0.28125 0.75-0.28125z"/>
  <path d="m12 15h1c0.26562 0 0.53125-0.09375 0.71875-0.28125l2.2812-2.2812v-0.875l-2.2812-2.2812c-0.1875-0.1875-0.45312-0.28125-0.71875-0.28125h-1v1c0 0.26562 0.09375 0.53125 0.28125 0.71875l1.2812 1.2812-1.2812 1.2812c-0.1875 0.1875-0.28125 0.45312-0.28125 0.71875z"/>
  <path d="m0.9375 11v2h13.062v-2z"/>
 </g>
</svg>
