<?xml version="1.0" encoding="UTF-8"?>
<svg width="16px" height="16px" viewBox="0 0 16 16" xmlns="http://www.w3.org/2000/svg">
 <g fill="#2e3436">
  <path d="m4 2v2h6c0.42969 0 1 0.61328 1 1v1h-5c-0.91797 0-1.7344 0.37891-2.25 0.96484-0.51562 0.58594-0.74219 1.3242-0.73828 2.0469 0.007812 0.71875 0.24609 1.4453 0.75781 2.0273 0.51562 0.57813 1.3203 0.96094 2.2305 0.96094h7v-7c0-1.6328-1.3203-3-3-3zm2 6h5v2h-5c-0.39844 0-0.57812-0.11719-0.73047-0.28906-0.15234-0.16797-0.25391-0.44141-0.25781-0.72266 0-0.27734 0.09375-0.53906 0.23828-0.70312 0.14844-0.16406 0.32812-0.28516 0.75-0.28516z"/>
  <path d="m2 13v2h12v-2z"/>
 </g>
</svg>
