<?xml version="1.0" encoding="UTF-8"?>
<svg width="16px" height="16px" viewBox="0 0 16 16" xmlns="http://www.w3.org/2000/svg">
 <path d="m4.4922 3v2h6c0.42969 0 0.60937 0.28125 0.48437 0.73047l-0.35156 1.2695h-5.2422c-1.8359 0-3.1289 1.3438-3.5039 2.7383-0.1875 0.69922-0.17578 1.4805 0.23828 2.1562 0.41016 0.67578 1.25 1.1055 2.1602 1.1055h6.7578l1.8672-6.7305c0.43359-1.5703-0.72656-3.2695-2.4102-3.2695zm0.89062 6h4.6875l-0.55469 2h-5.2383c-0.39844 0-0.41016-0.070312-0.45312-0.14453s-0.09375-0.29297-0.015625-0.59375c0.16406-0.60547 0.73047-1.2617 1.5742-1.2617z" fill="#2e3436"/>
</svg>
