<?xml version="1.0" encoding="UTF-8"?>
<svg width="16px" height="16px" viewBox="0 0 16 16" xmlns="http://www.w3.org/2000/svg">
 <g fill="#2e3436">
  <path d="m2.707 2.293-1.4141 1.4141 6.707 6.707 6.707-6.707-1.4141-1.4141-5.293 5.293z"/>
  <path d="m15 3v-1h-1v1z"/>
  <path d="m2 3v-1h-1v1z"/>
  <path d="m3 3c0-0.55469-0.44531-1-1-1s-1 0.44531-1 1 0.44531 1 1 1 1-0.44531 1-1z"/>
  <path d="m15 3c0-0.55469-0.44531-1-1-1s-1 0.44531-1 1 0.44531 1 1 1 1-0.44531 1-1z"/>
  <path d="m1 14v-2h14v2z"/>
 </g>
</svg>
