<?xml version="1.0" encoding="UTF-8"?>
<svg width="16px" height="16px" viewBox="0 0 16 16" xmlns="http://www.w3.org/2000/svg">
 <g fill="#2e3436">
  <path d="m2.293 2.707 1.4141-1.4141 6.707 6.707-6.707 6.707-1.4141-1.4141 5.293-5.293z"/>
  <path d="m3 15h-1v-1h1z"/>
  <path d="m3 2h-1v-1h1z"/>
  <path d="m3 3c-0.55469 0-1-0.44531-1-1s0.44531-1 1-1 1 0.44531 1 1-0.44531 1-1 1z"/>
  <path d="m3 15c-0.55469 0-1-0.44531-1-1s0.44531-1 1-1 1 0.44531 1 1-0.44531 1-1 1z"/>
  <path d="m14 1h-2v14h2z"/>
 </g>
</svg>
