<?xml version="1.0" encoding="UTF-8"?>
<svg width="16px" height="16px" viewBox="0 0 16 16" xmlns="http://www.w3.org/2000/svg">
 <g fill="#2e3436">
  <path d="m2.707 13.707-1.4141-1.4141 6.707-6.707 6.707 6.707-1.4141 1.4141-5.293-5.293z"/>
  <path d="m15 13v1h-1v-1z"/>
  <path d="m2 13v1h-1v-1z"/>
  <path d="m3 13c0 0.55469-0.44531 1-1 1s-1-0.44531-1-1 0.44531-1 1-1 1 0.44531 1 1z"/>
  <path d="m15 13c0 0.55469-0.44531 1-1 1s-1-0.44531-1-1 0.44531-1 1-1 1 0.44531 1 1z"/>
  <path d="m1 2v2h14v-2z"/>
 </g>
</svg>
