<?xml version="1.0" encoding="UTF-8"?>
<svg width="16px" height="16px" viewBox="0 0 16 16" xmlns="http://www.w3.org/2000/svg">
 <g fill="#2e3436">
  <path d="m8 0c-3.5898 0-6.5 2.9102-6.5 6.5s2.9102 6.4961 6.5 6.4961c3.5898 0.003906 6.5-2.9062 6.5-6.4961s-2.9102-6.5-6.5-6.5zm0 4c1.3789 0 2.5 1.1172 2.5 2.5 0 1.3789-1.1211 2.5-2.5 2.4961-1.3789 0-2.5-1.1172-2.5-2.4961s1.1172-2.5 2.5-2.5z"/>
  <path d="m14.098 8.7461-5.6602 1.2305-6.5352-1.2305c0.6875 2.1523 4.0977 5.25 6.0977 7.25v0.003906-0.003906c2-2 5.4102-5.1016 6.0977-7.25z"/>
 </g>
</svg>
