<?xml version="1.0" encoding="UTF-8"?>
<svg width="16px" height="16px" viewBox="0 0 16 16" xmlns="http://www.w3.org/2000/svg">
 <g fill="#2e3436">
  <path d="m14 4.0039c-0.17969-0.003906-0.35938 0.046875-0.51562 0.14062l-5 3c-0.30078 0.17969-0.48438 0.50391-0.48438 0.85547s0.18359 0.67969 0.48438 0.85938l5 3c0.15625 0.09375 0.33594 0.14062 0.51562 0.14062v0.003906h1v-8z"/>
  <path d="m7 4.0039c-0.17969-0.003906-0.35938 0.046875-0.51562 0.14062l-5 3c-0.30078 0.17969-0.48438 0.50391-0.48438 0.85547s0.18359 0.67969 0.48438 0.85938l5 3c0.15625 0.09375 0.33594 0.14062 0.51562 0.14062v0.003906h1v-8z"/>
 </g>
</svg>
