<?xml version="1.0" encoding="UTF-8"?>
<svg width="16px" height="16px" viewBox="0 0 16 16" xmlns="http://www.w3.org/2000/svg">
 <g fill="#2e3436">
  <path d="m2 4c0.17969 0 0.35938 0.046875 0.51562 0.14062l5 3c0.30078 0.17969 0.48438 0.50781 0.48438 0.85938s-0.18359 0.67578-0.48438 0.85938l-5 3c-0.15625 0.089844-0.33594 0.14062-0.51562 0.14062h-1v-8z"/>
  <path d="m9 4c0.17969 0 0.35938 0.046875 0.51562 0.14062l5 3c0.30078 0.17969 0.48438 0.50781 0.48438 0.85938s-0.18359 0.67578-0.48438 0.85938l-5 3c-0.15625 0.089844-0.33594 0.14062-0.51562 0.14062h-1v-8z"/>
 </g>
</svg>
