<?xml version="1.0" encoding="UTF-8"?>
<svg width="16px" height="16px" viewBox="0 0 16 16" xmlns="http://www.w3.org/2000/svg">
 <g fill="#2e3436">
  <path d="m9 13v-10h-2v10z"/>
  <path d="m4 10v1c0 0.26562 0.09375 0.53125 0.28125 0.71875l3.7188 3.7188s2.4805-2.4805 3.7188-3.7188c0.1875-0.1875 0.28125-0.45312 0.28125-0.71875v-1h-1c-0.26562 0-0.53125 0.09375-0.71875 0.28125l-2.2812 2.2812-2.2812-2.2812c-0.1875-0.1875-0.45312-0.28125-0.71875-0.28125z"/>
  <path d="m4 6v-1c0-0.26562 0.09375-0.53125 0.28125-0.71875l3.7188-3.7188s2.4805 2.4805 3.7188 3.7188c0.1875 0.1875 0.28125 0.45312 0.28125 0.71875v1h-1c-0.26562 0-0.53125-0.09375-0.71875-0.28125l-2.2812-2.2812-2.2812 2.2812c-0.1875 0.1875-0.45312 0.28125-0.71875 0.28125z"/>
 </g>
</svg>
