<?xml version="1.0" encoding="UTF-8"?>
<svg width="16px" height="16px" viewBox="0 0 16 16" xmlns="http://www.w3.org/2000/svg">
 <g fill="#2e3436">
  <path d="m13.977 9h-1c-0.25391 0-0.52734 0.12891-0.71875 0.3125l-3.2812 3.2812-3.2812-3.2812c-0.1875-0.18359-0.46094-0.3125-0.71875-0.3125h-1v1c0 0.30859 0.089844 0.55078 0.28125 0.75l4.7188 4.6562 4.7188-4.6562c0.19141-0.19922 0.28125-0.44141 0.28125-0.75z"/>
  <path d="m10 13v-6h-2v6z"/>
  <path d="m4 3v-2h-2v2z"/>
  <path d="m4 1v2c2.2188 0 4 1.7773 4 4h2c0-3.3008-2.6992-6-6-6z"/>
 </g>
</svg>
