<?xml version="1.0" encoding="UTF-8"?>
<svg width="16px" height="16px" viewBox="0 0 16 16" xmlns="http://www.w3.org/2000/svg">
 <g fill="#2e3436">
  <path d="m2.0234 9h1c0.25391 0 0.52734 0.12891 0.71875 0.3125l3.2812 3.2812 3.2812-3.2812c0.1875-0.18359 0.46094-0.3125 0.71875-0.3125h1v1c0 0.30859-0.089844 0.55078-0.28125 0.75l-4.7188 4.6562-4.7188-4.6562c-0.19141-0.19922-0.28125-0.44141-0.28125-0.75z"/>
  <path d="m6 13v-6h2v6z"/>
  <path d="m12 3v-2h2v2z"/>
  <path d="m12 1v2c-2.2188 0-4 1.7773-4 4h-2c0-3.3008 2.6992-6 6-6z"/>
 </g>
</svg>
