<?xml version="1.0" encoding="UTF-8"?>
<svg width="16px" height="16px" viewBox="0 0 16 16" xmlns="http://www.w3.org/2000/svg">
 <g fill="#2e3436">
  <path d="m5.9688 7.9688c0 1.6406-1.3281 2.9688-2.9688 2.9688s-2.9688-1.3281-2.9688-2.9688 1.3281-2.9688 2.9688-2.9688 2.9688 1.3281 2.9688 2.9688z"/>
  <path d="m15.938 12.969c0 1.6406-1.3281 2.9688-2.9688 2.9688s-2.9688-1.3281-2.9688-2.9688 1.3281-2.9688 2.9688-2.9688 2.9688 1.3281 2.9688 2.9688z"/>
  <path d="m15.938 2.9688c0 1.6406-1.3281 2.9688-2.9688 2.9688s-2.9688-1.3281-2.9688-2.9688 1.3281-2.9688 2.9688-2.9688 2.9688 1.3281 2.9688 2.9688z"/>
  <path d="m12.613 2.1445-11.863 5.7812 11.852 5.9648 0.89844-1.7852-8.2461-4.1523 8.2344-4.0117z"/>
 </g>
</svg>
