<?xml version="1.0" encoding="UTF-8"?>
<svg width="16px" height="16px" viewBox="0 0 16 16" xmlns="http://www.w3.org/2000/svg">
 <g fill="#2e3436">
  <path d="m3 3.0117v2h1.918c-0.054688 0 0.085937 0.16016 0.085937 0.082031v0.92188h-1.0039c-1.7148 0-3.0312 1.1289-3.0547 2.4844-0.011718 0.67969 0.30469 1.3633 0.85938 1.8242 0.55859 0.46094 1.3164 0.69922 2.1953 0.69922h3.0039v-5.9297c0-1.1719-0.88672-2.082-2.0859-2.082zm1 5.0078h1.0039v1.0039h-1.0039c-0.51953 0-0.79297-0.13672-0.92188-0.24219-0.125-0.10547-0.13281-0.17188-0.13281-0.24219 0.003907-0.14453 0.085938-0.51953 1.0547-0.51953z"/>
  <path d="m7.9961 2v9.0234h3.0039c0.9375 0 1.7695-0.37109 2.2969-0.96094 0.53125-0.58594 0.76562-1.3359 0.75781-2.0625-0.011719-0.73047-0.26172-1.4688-0.78906-2.043-0.52734-0.57812-1.3438-0.95703-2.2656-0.95703h-1.0039v-3zm2 5h1.0039c0.42188 0 0.625 0.125 0.78516 0.30078 0.16406 0.17969 0.26562 0.44922 0.26953 0.72266 0.003906 0.27734-0.089844 0.53125-0.24219 0.69922-0.14844 0.16797-0.35547 0.30078-0.8125 0.30078h-1.0039z"/>
  <path d="m3 11.293-2.3555 2.3516c-0.19531 0.19531-0.19531 0.51562 0 0.71094 0.19531 0.19141 0.51172 0.19141 0.70703 0l1.6484-1.6484 2 2 2-2 2 2 2-2 2 2 2.3516-2.3516c0.19531-0.19531 0.19531-0.51562 0-0.71094-0.19531-0.19141-0.51172-0.19141-0.70703 0l-1.6445 1.6484-2-2-2 2-2-2-2 2z"/>
 </g>
</svg>
