<?xml version="1.0" encoding="UTF-8"?>
<svg width="16px" height="16px" viewBox="0 0 16 16" xmlns="http://www.w3.org/2000/svg">
 <g fill="#2e3436">
  <path d="m7 15c0-0.55078-0.44922-1-1-1h-4v-4c0-0.55078-0.44922-1-1-1-0.55469 0-1 0.44922-1 1v5c0 0.55469 0.44531 1 1 1h5c0.55078 0 1-0.44531 1-1z"/>
  <path d="m7.5 9.5c0-0.26562-0.10547-0.51953-0.29297-0.70703-0.39062-0.39062-1.0234-0.39062-1.4141 0l-5.5 5.5c-0.1875 0.1875-0.29297 0.44141-0.29297 0.70703s0.10547 0.51953 0.29297 0.70703c0.39062 0.39062 1.0234 0.39062 1.4141 0l5.5-5.5c0.1875-0.1875 0.29297-0.44141 0.29297-0.70703z"/>
  <path d="m0 15h1v1h-1z"/>
  <path d="m0 9h1v1h-1z"/>
  <path d="m6 15h1v1h-1z"/>
  <path d="m9 1c0 0.55078 0.44922 1 1 1h4v4c0 0.55078 0.44922 1 1 1 0.55469 0 1-0.44922 1-1v-5c0-0.55469-0.44531-1-1-1h-5c-0.55078 0-1 0.44531-1 1z"/>
  <path d="m8.5 6.5c0 0.26562 0.10547 0.51953 0.29297 0.70703 0.39062 0.39062 1.0234 0.39062 1.4141 0l5.5-5.5c0.1875-0.1875 0.29297-0.44141 0.29297-0.70703s-0.10547-0.51953-0.29297-0.70703c-0.39062-0.39063-1.0234-0.39063-1.4141 0l-5.5 5.5c-0.1875 0.1875-0.29297 0.44141-0.29297 0.70703z"/>
  <path d="m16 1h-1v-1h1z"/>
  <path d="m16 7h-1v-1h1z"/>
  <path d="m10 1h-1v-1h1z"/>
 </g>
</svg>
