<?xml version="1.0" encoding="UTF-8"?>
<svg width="16px" height="16px" viewBox="0 0 16 16" xmlns="http://www.w3.org/2000/svg">
 <g fill="#2e3436">
  <path d="m9 11h-2v4l1 1 1-1z" fill-rule="evenodd"/>
  <path d="m12.223 0.29297c-0.1875-0.1875-0.44141-0.29297-0.70703-0.29297h-7.0156c-0.55469 0-1 0.44922-1 1s0.44531 1 1 1h7.0156c0.55078 0 1-0.44922 1-1 0-0.26562-0.10547-0.51953-0.29297-0.70703z" fill-rule="evenodd"/>
  <path d="m2 10c0-3.3125 2.6875-6 6-6s6 2.6875 6 6z"/>
  <path d="m4.4414 0.97266 0.89453 7.1641h5.375l0.84766-7.1094z" fill-rule="evenodd"/>
 </g>
</svg>
