<?xml version="1.0" encoding="UTF-8"?>
<svg width="16px" height="16px" viewBox="0 0 16 16" xmlns="http://www.w3.org/2000/svg">
 <path d="m7.4062 1c-0.61328 0.007812-1.2344 0.089844-1.8477 0.25391-3.2734 0.87891-5.5586 3.8555-5.5586 7.2461s2.2852 6.3672 5.5586 7.2422c3.2734 0.87891 6.7422-0.55859 8.4375-3.4922 0.27734-0.48047 0.10938-1.0898-0.36719-1.3672-0.47656-0.27344-1.0898-0.10937-1.3672 0.36719-1.2461 2.1602-3.7773 3.207-6.1875 2.5625-2.4062-0.64453-4.0742-2.8203-4.0742-5.3125 0-2.4961 1.668-4.668 4.0742-5.3125 2.4102-0.64453 4.9414 0.40234 6.1875 2.5625 0.058593 0.085938 0.125 0.16406 0.20312 0.22656l-0.019532 0.015626-0.007812 0.007812h-1.4375c-0.55078 0-1 0.44922-1 1v1h6v-6h-1c-0.55078 0-1 0.44922-1 1v1.6875l-0.015625 0.011719-0.011719 0.011719c-1.2773-2.1797-3.5312-3.5195-5.9531-3.6914-0.20312-0.015625-0.40625-0.019531-0.61328-0.019531z" fill="#2e3436"/>
</svg>
