<?xml version="1.0" encoding="UTF-8"?>
<svg width="16px" height="16px" viewBox="0 0 16 16" xmlns="http://www.w3.org/2000/svg">
 <g fill="#2e3436">
  <path d="m3 0c-1.0898 0-2 0.91016-2 2v9c0 1.0898 0.91016 2 2 2h8c1.0898 0 2-0.91016 2-2v-9c0-1.0898-0.91016-2-2-2zm0 2h8v9h-8z"/>
  <path d="m14 3v8c0 1.6562-1.3438 3-3 3h-7v2h7c2.7617 0 5-2.2383 5-5v-8z"/>
  <g fill-opacity=".35">
   <path d="m9 5.5v-1c0-0.27734-0.22266-0.5-0.5-0.5h-3c-0.27734 0-0.5 0.22266-0.5 0.5v1c0 0.27734 0.22266 0.5 0.5 0.5h3c0.27734 0 0.5-0.22266 0.5-0.5z"/>
   <path d="m9 8.5v-1c0-0.27734-0.22266-0.5-0.5-0.5h-3c-0.27734 0-0.5 0.22266-0.5 0.5v1c0 0.27734 0.22266 0.5 0.5 0.5h3c0.27734 0 0.5-0.22266 0.5-0.5z"/>
  </g>
 </g>
</svg>
