<?xml version="1.0" encoding="UTF-8"?>
<svg width="16.188px" height="16px" viewBox="0 0 16.188 16" xmlns="http://www.w3.org/2000/svg">
 <g fill="#2e3436">
  <path d="m2 15h2c0.55078 0 1-0.44922 1-1v-2c0-0.55078-0.44922-1-1-1h-2c-0.55078 0-1 0.44922-1 1v2c0 0.55078 0.44922 1 1 1z"/>
  <path d="m9 14v-7h-3.0625l5.125-5.7812 5.125 5.7812h-3.1875v7z"/>
  <path d="m2 10h2c0.55078 0 1-0.44922 1-1v-2c0-0.55078-0.44922-1-1-1h-2c-0.55078 0-1 0.44922-1 1v2c0 0.55078 0.44922 1 1 1z"/>
  <path d="m2 5h2c0.55078 0 1-0.44922 1-1v-2c0-0.55078-0.44922-1-1-1h-2c-0.55078 0-1 0.44922-1 1v2c0 0.55078 0.44922 1 1 1z"/>
 </g>
</svg>
