<?xml version="1.0" encoding="UTF-8"?>
<svg width="16px" height="16px" viewBox="0 0 16 16" xmlns="http://www.w3.org/2000/svg">
 <g fill="#2e3436">
  <path d="m11 1.5v-1c0-0.27734-0.22266-0.5-0.5-0.5h-5c-0.27734 0-0.5 0.22266-0.5 0.5v1c0 0.27734 0.22266 0.5 0.5 0.5h5c0.27734 0 0.5-0.22266 0.5-0.5z" fill-opacity=".35"/>
  <path d="m11 4.5v-1c0-0.27734-0.22266-0.5-0.5-0.5h-5c-0.27734 0-0.5 0.22266-0.5 0.5v1c0 0.27734 0.22266 0.5 0.5 0.5h5c0.27734 0 0.5-0.22266 0.5-0.5z" fill-opacity=".35"/>
  <path d="m15 7h-14v2h14z"/>
  <g fill-opacity=".35">
   <path d="m11 12.5v-1c0-0.27734-0.22266-0.5-0.5-0.5h-5c-0.27734 0-0.5 0.22266-0.5 0.5v1c0 0.27734 0.22266 0.5 0.5 0.5h5c0.27734 0 0.5-0.22266 0.5-0.5z"/>
   <path d="m11 15.5v-1c0-0.27734-0.22266-0.5-0.5-0.5h-5c-0.27734 0-0.5 0.22266-0.5 0.5v1c0 0.27734 0.22266 0.5 0.5 0.5h5c0.27734 0 0.5-0.22266 0.5-0.5z"/>
  </g>
 </g>
</svg>
