<?xml version="1.0" encoding="UTF-8"?>
<svg width="16px" height="16px" viewBox="0 0 16 16" xmlns="http://www.w3.org/2000/svg">
 <g fill="#2e3436">
  <path d="m0 3v9c0 1.1055 0.89453 2 2 2h4c0.17578 0 0.53516 0.14062 0.82031 0.33203 0.28906 0.19141 0.46875 0.37109 0.46875 0.37109l0.71875 0.72656 0.71094-0.73438s0.89453-0.69531 1.2812-0.69531h4c1.1055 0 2-0.89453 2-2v-9c0-1.1055-0.89453-2-2-2h-4c-0.90234 0-1.5742 0.35156-2.043 0.69922-0.027343-0.015625-0.019531-0.015625-0.046875-0.03125-0.45703-0.30469-1.082-0.66797-1.9102-0.66797h-4c-1.1055 0-2 0.89453-2 2zm2 0h4c0.13672 0 0.51562 0.13672 0.8125 0.33203 0.29688 0.19922 0.49219 0.38672 0.49219 0.38672l0.71484 0.69531 0.69531-0.71484s0.90234-0.69922 1.2852-0.69922h4v9h-4c-0.89062 0-1.5625 0.34766-2.0352 0.69531-0.015625-0.015624-0.011719-0.015624-0.03125-0.027343-0.45703-0.30859-1.0977-0.66797-1.9336-0.66797h-4z"/>
  <g fill-opacity=".35">
   <path d="m6 6.5v-1c0-0.27734-0.22266-0.5-0.5-0.5h-2c-0.27734 0-0.5 0.22266-0.5 0.5v1c0 0.27734 0.22266 0.5 0.5 0.5h2c0.27734 0 0.5-0.22266 0.5-0.5z"/>
   <path d="m6 9.5v-1c0-0.27734-0.22266-0.5-0.5-0.5h-2c-0.27734 0-0.5 0.22266-0.5 0.5v1c0 0.27734 0.22266 0.5 0.5 0.5h2c0.27734 0 0.5-0.22266 0.5-0.5z"/>
   <path d="m13 6.5v-1c0-0.27734-0.22266-0.5-0.5-0.5h-2c-0.27734 0-0.5 0.22266-0.5 0.5v1c0 0.27734 0.22266 0.5 0.5 0.5h2c0.27734 0 0.5-0.22266 0.5-0.5z"/>
   <path d="m13 9.5v-1c0-0.27734-0.22266-0.5-0.5-0.5h-2c-0.27734 0-0.5 0.22266-0.5 0.5v1c0 0.27734 0.22266 0.5 0.5 0.5h2c0.27734 0 0.5-0.22266 0.5-0.5z"/>
  </g>
 </g>
</svg>
