<?xml version="1.0" encoding="UTF-8"?>
<svg width="16px" height="16px" viewBox="0 0 16 16" xmlns="http://www.w3.org/2000/svg">
 <g fill="#2e3436">
  <path d="m2 1h2c0.55078 0 1 0.44922 1 1v2c0 0.55078-0.44922 1-1 1h-2c-0.55078 0-1-0.44922-1-1v-2c0-0.55078 0.44922-1 1-1z"/>
  <path d="m9 2v7h-3.0625l5.125 5.7812 5.125-5.7812h-3.1875v-7z"/>
  <path d="m2 6h2c0.55078 0 1 0.44922 1 1v2c0 0.55078-0.44922 1-1 1h-2c-0.55078 0-1-0.44922-1-1v-2c0-0.55078 0.44922-1 1-1z"/>
  <path d="m2 11h2c0.55078 0 1 0.44922 1 1v2c0 0.55078-0.44922 1-1 1h-2c-0.55078 0-1-0.44922-1-1v-2c0-0.55078 0.44922-1 1-1z"/>
 </g>
</svg>
