<?xml version="1.0" encoding="UTF-8"?>
<svg width="16px" height="16px" viewBox="0 0 16 16" xmlns="http://www.w3.org/2000/svg">
 <path d="m4 1c-1.6602 0-3 1.3398-3 3v8c0 1.6602 1.3398 3 3 3h8c1.6602 0 3-1.3398 3-3v-8c0-1.6602-1.3398-3-3-3zm0 2h3.0117v2h-2v2h-2l-0.011719-3c0-0.12891 0.027344-0.25391 0.074219-0.375 0.003906-0.003906 0.003906-0.007812 0.007812-0.011719 0.046875-0.11719 0.11719-0.21875 0.20312-0.30859l0.019532-0.019532c0.089843-0.085937 0.19141-0.15625 0.30859-0.20312 0.003907-0.003906 0.007813-0.007812 0.015625-0.007812 0.11719-0.046875 0.24219-0.074219 0.37109-0.074219zm5 0h3.0117c0.125 0 0.25391 0.027344 0.37109 0.074219 0.003907 0.003906 0.011719 0.003906 0.015626 0.007812 0.11328 0.046875 0.21875 0.11719 0.30469 0.20312 0.007813 0.007813 0.015625 0.011719 0.019531 0.019532 0.089844 0.089843 0.16016 0.19141 0.20703 0.30859 0 0.003907 0.003906 0.007813 0.007812 0.015625 0.046875 0.11719 0.070312 0.24219 0.074219 0.37109l-0.011719 3h-2v-2h-2zm-5.9883 6h2v2h2v2h-3.0117c-0.12891 0-0.25391-0.027344-0.375-0.074219-0.003906-0.003906-0.007812-0.003906-0.011719-0.007812-0.11719-0.046875-0.21875-0.11719-0.30859-0.20312l-0.019532-0.019532c-0.085937-0.089843-0.15625-0.19141-0.20312-0.30859-0.003906-0.003907-0.007812-0.007813-0.007812-0.015625-0.046875-0.11719-0.074219-0.24219-0.074219-0.37109zm7.9883 0h2l0.011719 3c-0.003907 0.12891-0.027344 0.25391-0.074219 0.375-0.003906 0.003906-0.003906 0.007812-0.007812 0.011719-0.046876 0.11719-0.11719 0.21875-0.20313 0.30859-0.007812 0.007813-0.015624 0.011719-0.019531 0.019532-0.089843 0.085937-0.19531 0.15625-0.30859 0.20312-0.003907 0.003906-0.011719 0.007812-0.015626 0.007812-0.11719 0.046875-0.24609 0.074219-0.37109 0.074219h-3.0117v-2h2z" fill="#2e3436"/>
</svg>
