<?xml version="1.0" encoding="UTF-8"?>
<svg width="16px" height="16px" viewBox="0 0 16 16" xmlns="http://www.w3.org/2000/svg">
 <g fill="#2e3436">
  <path d="m13 6.5c0 2.7617-2.2383 5-5 5s-5-2.2383-5-5 2.2383-5 5-5 5 2.2383 5 5z"/>
  <path d="m3 6.5h10v6h-10z"/>
  <path d="m2.5 13h11c0.55078 0 1-0.44922 1-1s-0.44922-1-1-1h-11c-0.55078 0-1 0.44922-1 1s0.44922 1 1 1z"/>
  <path d="m10 14c0 0.71484-0.38281 1.375-1 1.7305-0.61719 0.35938-1.3828 0.35938-2 0-0.61719-0.35547-1-1.0156-1-1.7305"/>
  <path d="m9.5 1.5c0 0.82812-0.67188 1.5-1.5 1.5s-1.5-0.67188-1.5-1.5 0.67188-1.5 1.5-1.5 1.5 0.67188 1.5 1.5z"/>
 </g>
</svg>
