<?xml version="1.0" encoding="UTF-8"?>
<!-- Created with Inkscape (http://www.inkscape.org/) -->
<svg id="svg1325" width="32" height="32" version="1.1" xmlns="http://www.w3.org/2000/svg" xmlns:xlink="http://www.w3.org/1999/xlink">
 <defs id="defs1327">
  <linearGradient id="linearGradient3958">
   <stop id="stop3960" style="stop-color:#fff" offset="0"/>
   <stop id="stop3962" offset=".51514"/>
   <stop id="stop3964" offset="1"/>
  </linearGradient>
  <linearGradient id="linearGradient2270">
   <stop id="stop2272" style="stop-color:#fff" offset="0"/>
   <stop id="stop2274" style="stop-color:#fff;stop-opacity:0" offset="1"/>
  </linearGradient>
  <linearGradient id="linearGradient2268" x1="31.67" x2="31.654" y1="17" y2="47" gradientTransform="translate(0,-8)" gradientUnits="userSpaceOnUse" xlink:href="#linearGradient2181"/>
  <linearGradient id="linearGradient1341" x1="23.997" x2="23.788" y1="18.375" y2="46" gradientTransform="translate(0,-8)" gradientUnits="userSpaceOnUse" xlink:href="#linearGradient2270"/>
  <linearGradient id="linearGradient2181">
   <stop id="stop2183" style="stop-color:#f0f0f0" offset="0"/>
   <stop id="stop2185" style="stop-color:#d3d3d3" offset="1"/>
  </linearGradient>
  <radialGradient id="radialGradient3890" cx="9.5" cy="24" r="5.5" gradientTransform="matrix(1.5177 1.0727e-7 -1.6706e-7 2.3636 -4.9183 -32.727)" gradientUnits="userSpaceOnUse" xlink:href="#linearGradient2181"/>
  <linearGradient id="linearGradient3898" x1="9.5" x2="9.5" y1="12" y2="36" gradientUnits="userSpaceOnUse" xlink:href="#linearGradient2270"/>
  <linearGradient id="linearGradient3970" x1="44" x2="50" y1="24" y2="24" gradientTransform="translate(-1.3361 .48051)" gradientUnits="userSpaceOnUse" xlink:href="#linearGradient3958"/>
  <mask id="mask3966">
   <rect id="rect3968" x="-.3361" y="8.4805" width="49" height="32" style="fill:url(#linearGradient3970)"/>
  </mask>
  <linearGradient id="linearGradient3976" x1="44" x2="50" y1="24" y2="24" gradientUnits="userSpaceOnUse" xlink:href="#linearGradient3958"/>
  <mask id="mask3972">
   <rect id="rect3974" x="1" y="8" width="49" height="32" style="fill:url(#linearGradient3976)"/>
  </mask>
  <mask id="mask3978">
   <rect id="rect3980" x="1" y="8" width="49" height="32" style="fill:url(#linearGradient3976)"/>
  </mask>
  <mask id="mask3984">
   <rect id="rect3986" x="1" y="8" width="49" height="32" style="fill:url(#linearGradient3976)"/>
  </mask>
  <mask id="mask3990">
   <rect id="rect3992" x="1" y="8" width="49" height="32" style="fill:url(#linearGradient3976)"/>
  </mask>
  <mask id="mask3996">
   <rect id="rect3998" x="1" y="8" width="49" height="32" style="fill:url(#linearGradient3976)"/>
  </mask>
 </defs>
 <g id="layer1" transform="matrix(.6383 0 0 .62159 -.095745 1.5818)">
  <rect id="rect1333" x="2.5" y="9.5" width="46" height="29" mask="url(#mask3996)" style="fill:url(#linearGradient2268);stroke-linejoin:round;stroke-width:1.5876;stroke:#969696"/>
  <rect id="rect2210" transform="matrix(.97481 0 0 .95335 .65481 1.1197)" x="3.5" y="10.5" width="45" height="27" mask="url(#mask3990)" style="fill:none;opacity:.8;stroke-linejoin:round;stroke-width:1.6468;stroke:url(#linearGradient1341)"/>
  <rect id="rect1337" transform="matrix(.78333 0 0 .90091 2.1083 2.3781)" x="4.5" y="11.5" width="10" height="25" rx="1.2766" ry="1.11" mask="url(#mask3984)" style="color:black;fill:url(#radialGradient3890);stroke-linecap:square;stroke-width:1.8898;stroke:#969696"/>
  <rect id="rect2212" transform="matrix(.5875 0 0 .83936 3.9688 3.8554)" x="5.5" y="12.5" width="8" height="23" mask="url(#mask3978)" style="color:black;fill:none;opacity:.7;stroke-linecap:square;stroke-width:2.2608;stroke:url(#linearGradient3898)"/>
  <path id="path2214" transform="matrix(1.0444 0 0 .96526 -.37222 1.3163)" d="m8 23.5 3-2.5v5l-3-2.5z" mask="url(#mask3972)" style="fill-rule:evenodd"/>
  <g id="layer6" transform="translate(1.3361 -.48051)" mask="url(#mask3966)" style="fill:#2e3436">
   <g id="g2450" transform="matrix(1.1111 0 0 1.1111 -1.1111 -2)" style="fill:#2e3436">
    <path id="path4490" d="m29.317 14.421c-3.9658 0-4.7098 5.2097-2.4788 5.2097 2.2307 0 6.4447-5.2097 2.4788-5.2097z" style="fill:#2e3436"/>
    <path id="path4492" d="m22.732 18.985c1.1879 0.0669 2.4912-4.181 0.25856-3.9138-2.2318 0.26717-1.4469 3.8469-0.25856 3.9138z" style="fill:#2e3436"/>
    <path id="path4494" d="m17.288 21.625c0.84484-0.34299 0.10881-3.6978-1.3278-2.7829-1.436 0.91509 0.48295 3.1257 1.3278 2.7829z" style="fill:#2e3436"/>
    <path id="path4496" d="m19.668 19.869c1.0057-0.18911 1.0608-3.994-0.73265-3.3114-1.7938 0.68271-0.27227 3.5008 0.73265 3.3114z" style="fill:#2e3436"/>
    <path id="path4498" d="m25.007 29.187c0.17785 1.4085-0.99643 2.1041-2.1465 1.1961-3.661-2.8905 6.0617-4.3324 5.4208-8.2815-0.53196-3.2779-10.23-2.2687-11.335 2.86-0.74756 3.4692 3.0772 8.2819 7.068 8.2819 1.9633 0 4.2278-1.8384 4.6515-4.1673 0.32358-1.7759-3.8076-1.0643-3.6591 0.1108z" style="fill:#2e3436"/>
   </g>
  </g>
 </g>
</svg>
