<?xml version="1.0" encoding="UTF-8"?>
<!-- Created with Inkscape (http://www.inkscape.org/) -->
<svg id="svg1325" width="32" height="32" version="1.1" xmlns="http://www.w3.org/2000/svg" xmlns:xlink="http://www.w3.org/1999/xlink">
 <defs id="defs1327">
  <linearGradient id="linearGradient4708">
   <stop id="stop4710" style="stop-color:#fff" offset="0"/>
   <stop id="stop4712" offset=".57955"/>
   <stop id="stop4714" offset="1"/>
  </linearGradient>
  <linearGradient id="linearGradient2851" x1="20" x2="20" y1="18" y2="46" gradientTransform="translate(0 -10)" gradientUnits="userSpaceOnUse">
   <stop id="stop2272" style="stop-color:#fff" offset="0"/>
   <stop id="stop2274" style="stop-color:#fff;stop-opacity:0" offset="1"/>
  </linearGradient>
  <linearGradient id="linearGradient2854" x1="30" x2="30" y1="17" y2="47" gradientTransform="translate(0 -10)" gradientUnits="userSpaceOnUse">
   <stop id="stop2183" style="stop-color:#f0f0f0" offset="0"/>
   <stop id="stop2185" style="stop-color:#d3d3d3" offset="1"/>
  </linearGradient>
  <linearGradient id="linearGradient4720" x1="50.231" x2="53" y1="22" y2="22" gradientTransform="matrix(4.3333 0 0 1 -176.67 0)" gradientUnits="userSpaceOnUse" xlink:href="#linearGradient4708"/>
  <mask id="mask4716">
   <rect id="rect4718" x="1" y="6" width="52" height="32" style="fill:url(#linearGradient4720)"/>
  </mask>
  <mask id="mask4722">
   <rect id="rect4724" x="1" y="6" width="52" height="32" style="fill:url(#linearGradient4720)"/>
  </mask>
  <radialGradient id="radialGradient3000" cx="62.625" cy="4.625" r="10.625" gradientTransform="matrix(1.1294 0 0 .28235 -58.729 19.694)" gradientUnits="userSpaceOnUse">
   <stop id="stop8840-6" offset="0"/>
   <stop id="stop8842-4" style="stop-opacity:0" offset="1"/>
  </radialGradient>
  <radialGradient id="radialGradient3002" cx="23.896" cy="3.99" r="20.397" gradientTransform="matrix(0 1.2316 -1.6257 0 18.487 -28.721)" gradientUnits="userSpaceOnUse">
   <stop id="stop2778-9" style="stop-color:#8badea" offset="0"/>
   <stop id="stop2780-0" style="stop-color:#6396cd" offset=".26238"/>
   <stop id="stop2782-9" style="stop-color:#3b7caf" offset=".66094"/>
   <stop id="stop2784-9" style="stop-color:#194c70" offset="1"/>
  </radialGradient>
  <linearGradient id="linearGradient3004" x1="18.379" x2="18.379" y1="44.98" y2="3.0816" gradientTransform="matrix(.51604 0 0 .51604 -.38499 -.38499)" gradientUnits="userSpaceOnUse">
   <stop id="stop2788-2" style="stop-color:#1f4b6a" offset="0"/>
   <stop id="stop2790-0" style="stop-color:#4083c2" offset="1"/>
  </linearGradient>
  <linearGradient id="linearGradient3006" x1="63.397" x2="63.397" y1="-12.489" y2="5.4676" gradientTransform="matrix(1.0863 0 0 1.0862 -55.567 15.814)" gradientUnits="userSpaceOnUse">
   <stop id="stop4875-5" style="stop-color:#fff" offset="0"/>
   <stop id="stop4877-1" style="stop-color:#fff;stop-opacity:0" offset="1"/>
  </linearGradient>
 </defs>
 <rect id="rect1333" transform="matrix(.63043 0 0 .62069 -.076087 .84483)" x="2.5" y="7.5" width="46" height="29" mask="url(#mask4722)" style="fill:url(#linearGradient2854);stroke-linejoin:round;stroke-width:1.5986;stroke:#969696"/>
 <rect id="rect2210" transform="matrix(.62222 0 0 .59259 .32222 1.463)" x="3.5" y="8.5" width="45" height="27" mask="url(#mask4716)" style="fill:none;opacity:.7;stroke-linejoin:round;stroke-width:1.6468;stroke:url(#linearGradient2851)"/>
 <g id="layer1" transform="translate(8 8)">
  <path id="path8836" d="m24 21c0 1.6569-5.3726 3-12 3-6.6274 0-12-1.3431-12-3s5.3726-3 12-3c6.6274 0 12 1.3431 12 3z" style="fill-rule:evenodd;fill:url(#radialGradient3000);opacity:.3"/>
  <path id="path2555" d="m12 1.5018c-5.7926 0-10.498 4.7057-10.498 10.498 0 5.7926 4.7057 10.498 10.498 10.498 5.7926 0 10.498-4.7057 10.498-10.498 0-5.7926-4.7057-10.498-10.498-10.498z" style="fill:url(#radialGradient3002);stroke-linecap:round;stroke-linejoin:round;stroke-width:1.0037;stroke:url(#linearGradient3004)"/>
  <path id="path2463" d="m21.5 12c0 5.2469-4.2536 9.5003-9.4999 9.5003-5.2468 0-9.5001-4.2535-9.5001-9.5003 0-5.2466 4.2534-9.4997 9.5001-9.4997 5.2463 0 9.4999 4.253 9.4999 9.4997z" style="fill:none;opacity:.4;stroke:url(#linearGradient3006)"/>
  <path id="text3482" d="m9 10.851c0.13386 0.36388 0.28452 0.65884 0.60545 0.25553 0.39788-0.23673 1.731-1.2744 1.5976-0.25798-0.42688 1.8808-0.94648 3.7418-1.3438 5.6285-0.41543 1.033 0.52793 1.9674 1.5129 1.2956 1.0469-0.43158 1.9478-1.1346 2.8681-1.7794-0.12558-0.30796-0.20927-0.75035-0.55625-0.34761-0.4556 0.20679-1.4507 1.1817-1.6355 0.37762 0.3827-2.0366 1.0918-3.9978 1.545-6.0181 0.4171-0.92895-0.2641-2.1027-1.2838-1.3343-1.2216 0.53205-2.2432 1.4012-3.3097 2.1802zm4.5338-6.8497c-1.2464-0.066145-1.8981 1.9431-0.71361 2.4929 0.96093 0.39409 2.0072-0.59147 1.7725-1.5763-0.072852-0.51279-0.53324-0.93388-1.0588-0.91663h-1e-6z" style="opacity:.2"/>
  <path id="path3536" d="m9 11.851c0.13386 0.36388 0.28452 0.65884 0.60545 0.25553 0.39788-0.23673 1.731-1.2744 1.5976-0.25798-0.42688 1.8808-0.94648 3.7418-1.3438 5.6285-0.41543 1.033 0.52793 1.9674 1.5129 1.2956 1.0469-0.43158 1.9478-1.1346 2.8681-1.7794-0.12558-0.30796-0.20927-0.75035-0.55625-0.34761-0.4556 0.20679-1.4507 1.1817-1.6355 0.37762 0.3827-2.0366 1.0918-3.9978 1.545-6.0181 0.4171-0.92895-0.2641-2.1027-1.2838-1.3343-1.2216 0.53205-2.2432 1.4012-3.3097 2.1802zm4.5338-6.8497c-1.2464-0.066145-1.8981 1.9431-0.71361 2.4929 0.96093 0.39409 2.0072-0.59147 1.7725-1.5763-0.072852-0.51279-0.53324-0.93388-1.0588-0.91663h-1e-6z" style="fill:#fff"/>
 </g>
</svg>
