<?xml version="1.0" encoding="UTF-8"?>
<svg width="24" height="24" version="1.1" viewBox="0 0 24 24" xmlns="http://www.w3.org/2000/svg">
 <g id="surface1">
  <rect width="24" height="24" style="fill:#e95420"/>
  <path d="m7.8984 11.863c0 1.3906-1.125 2.5156-2.5117 2.5156-1.3906 0-2.5156-1.125-2.5156-2.5156 0-1.3867 1.125-2.5117 2.5156-2.5117 1.3867 0 2.5117 1.125 2.5117 2.5117z" style="fill:#fff"/>
  <path d="m18.336 6.3594c0 1.3867-1.125 2.5117-2.5117 2.5117s-2.5117-1.125-2.5117-2.5117 1.125-2.5117 2.5117-2.5117 2.5117 1.125 2.5117 2.5117z" style="fill:#fff"/>
  <path d="m11.047 18.316c-1.7969-0.37891-3.3281-1.5508-4.1602-3.1875-0.67188 0.30078-1.418 0.39062-2.1406 0.26172 1.0156 2.5234 3.2266 4.375 5.8906 4.9336 0.58203 0.12891 1.1797 0.19141 1.7773 0.1875-0.47266-0.60156-0.73437-1.3359-0.75-2.0977-0.21094-0.003906-0.41797-0.039062-0.61719-0.097656z" style="fill:#fff"/>
  <path d="m17.773 18.336c0 1.3906-1.125 2.5156-2.5117 2.5156s-2.5117-1.125-2.5117-2.5156c0-1.3867 1.125-2.5117 2.5117-2.5117s2.5117 1.125 2.5117 2.5117z" style="fill:#fff"/>
  <path d="m18.75 17.422c2.1914-2.7852 2.3555-6.6602 0.41406-9.6211-0.29297 0.67969-0.78516 1.2539-1.4102 1.6484 0.67578 1.2773 0.88281 2.75 0.58203 4.1641-0.14453 0.69141-0.41016 1.3516-0.78516 1.9492 0.59375 0.46875 1.0156 1.125 1.1992 1.8594z" style="fill:#fff"/>
  <path d="m5.1758 8.25h0.1875c0.25-0.003906 0.50391 0.023438 0.75 0.074219 0.40234 0.09375 0.78906 0.25 1.1406 0.47266 1.1172-1.6289 2.957-2.6133 4.9336-2.6406 0.015625-0.1875 0.039062-0.375 0.074219-0.5625 0.11328-0.53516 0.34766-1.0352 0.69141-1.4609-3.168-0.24219-6.1953 1.3594-7.7773 4.1172z" style="fill:#fff"/>
 </g>
</svg>
