<?xml version="1.0" encoding="UTF-8"?>
<svg width="16px" height="16px" viewBox="0 0 16 16" xmlns="http://www.w3.org/2000/svg">
 <g fill="#2e3436">
  <path d="m0.5 7h2c0.27734 0 0.5 0.22266 0.5 0.5v1c0 0.27734-0.22266 0.5-0.5 0.5h-2c-0.27734 0-0.5-0.22266-0.5-0.5v-1c0-0.27734 0.22266-0.5 0.5-0.5z"/>
  <path d="m13.5 7h2c0.27734 0 0.5 0.22266 0.5 0.5v1c0 0.27734-0.22266 0.5-0.5 0.5h-2c-0.27734 0-0.5-0.22266-0.5-0.5v-1c0-0.27734 0.22266-0.5 0.5-0.5z"/>
  <path d="m1.9883 12.598 1.4141-1.4141c0.19531-0.19531 0.51172-0.19531 0.70703 0l0.70703 0.70703c0.19531 0.19531 0.19531 0.51172 0 0.70703l-1.4141 1.4141c-0.19531 0.19531-0.51172 0.19531-0.70703 0l-0.70703-0.70703c-0.19531-0.19531-0.19531-0.51172 0-0.70703z"/>
  <path d="m11.184 3.4023 1.4141-1.4141c0.19531-0.19531 0.51172-0.19531 0.70703 0l0.70703 0.70703c0.19531 0.19531 0.19531 0.51172 0 0.70703l-1.4141 1.4141c-0.19531 0.19531-0.51172 0.19531-0.70703 0l-0.70703-0.70703c-0.19531-0.19531-0.19531-0.51172 0-0.70703z"/>
  <path d="m7 15.5v-2c0-0.27734 0.22266-0.5 0.5-0.5h1c0.27734 0 0.5 0.22266 0.5 0.5v2c0 0.27734-0.22266 0.5-0.5 0.5h-1c-0.27734 0-0.5-0.22266-0.5-0.5z"/>
  <path d="m7 2.5v-2c0-0.27734 0.22266-0.5 0.5-0.5h1c0.27734 0 0.5 0.22266 0.5 0.5v2c0 0.27734-0.22266 0.5-0.5 0.5h-1c-0.27734 0-0.5-0.22266-0.5-0.5z"/>
  <path d="m12.598 14.012-1.4141-1.4141c-0.19531-0.19531-0.19531-0.51172 0-0.70703l0.70703-0.70703c0.19531-0.19531 0.51172-0.19531 0.70703 0l1.4141 1.4141c0.19531 0.19531 0.19531 0.51172 0 0.70703l-0.70703 0.70703c-0.19531 0.19531-0.51172 0.19531-0.70703 0z"/>
  <path d="m3.4023 4.8164-1.4141-1.4141c-0.19531-0.19531-0.19531-0.51172 0-0.70703l0.70703-0.70703c0.19531-0.19531 0.51172-0.19531 0.70703 0l1.4141 1.4141c0.19531 0.19531 0.19531 0.51172 0 0.70703l-0.70703 0.70703c-0.19531 0.19531-0.51172 0.19531-0.70703 0z"/>
  <path d="m12 8c0 2.2109-1.7891 4-4 4-2.207 0-4-1.7891-4-4s1.793-4 4-4c2.2109 0 4 1.7891 4 4z"/>
 </g>
</svg>
