<?xml version="1.0" encoding="UTF-8"?>
<svg width="16px" height="16px" viewBox="0 0 16 16" xmlns="http://www.w3.org/2000/svg">
 <g fill="#2e3436">
  <path d="m0.47266 10h2.0273c0.26172 0 0.47266 0.22266 0.47266 0.5v1c0 0.27734-0.21094 0.5-0.47266 0.5h-2.0273c-0.26172 0-0.47266-0.22266-0.47266-0.5v-1c0-0.27734 0.21094-0.5 0.47266-0.5z"/>
  <path d="m13.484 10h2.0156c0.27734 0 0.5 0.22266 0.5 0.5v1c0 0.27734-0.22266 0.5-0.5 0.5h-2.0156c-0.27734 0-0.5-0.22266-0.5-0.5v-1c0-0.27734 0.22266-0.5 0.5-0.5z"/>
  <path d="m11.172 6.4141 1.4258-1.4258c0.19531-0.19531 0.51172-0.19531 0.70703 0l0.70703 0.70703c0.19531 0.19531 0.19531 0.51172 0 0.70703l-1.4258 1.4258c-0.19531 0.19531-0.51172 0.19531-0.70703 0l-0.70703-0.70703c-0.19531-0.19531-0.19531-0.51172 0-0.70703z"/>
  <path d="m3.4141 7.8281-1.4258-1.4258c-0.19531-0.19531-0.19531-0.51172 0-0.70703l0.70703-0.70703c0.19531-0.19531 0.51172-0.19531 0.70703 0l1.4258 1.4258c0.19531 0.19531 0.19531 0.51172 0 0.70703l-0.70703 0.70703c-0.19531 0.19531-0.51172 0.19531-0.70703 0z"/>
  <path d="m7 5.5v-2c0-0.27734 0.22266-0.5 0.5-0.5h1c0.27734 0 0.5 0.22266 0.5 0.5v2c0 0.27734-0.22266 0.5-0.5 0.5h-1c-0.27734 0-0.5-0.22266-0.5-0.5z"/>
  <path d="m6.2461 9c-0.16797 0.007812-0.32422 0.11719-0.375 0.26172l-0.83594 2.2148c-0.10156 0.23438 0.125 0.53125 0.40234 0.52344h5.1328c0.27734 0.007812 0.50781-0.28906 0.40625-0.52344l-0.83594-2.2148c-0.074219-0.19531-0.33984-0.30859-0.55078-0.23438-0.21094 0.066406-0.82031 0.26172-1.5859 0.26172s-1.3711-0.19531-1.5859-0.26172c-0.054688-0.019532-0.11328-0.03125-0.17188-0.027344z"/>
 </g>
</svg>
