<?xml version="1.0" encoding="UTF-8"?>
<svg width="16px" height="16px" viewBox="0 0 16 16" xmlns="http://www.w3.org/2000/svg">
 <g fill="#2e3436">
  <path d="m9.9141 0.26172c-0.76953 0-1.5391 0.29297-2.1211 0.875l-4.0352 4.0352c-0.39062 0.39062-0.39062 1.0234 0 1.4141 0.39063 0.39062 1.0234 0.39062 1.4141 0l4.0352-4.0352c0.39844-0.39844 1.0156-0.39844 1.4141 0l2.8359 2.8359c0.40234 0.39844 0.40234 1.0156 0 1.4141l-6.8594 6.8555c-0.22266 0.22266-0.51953 0.34375-0.83203 0.34375h-2.7656c-0.5625 0-1-0.4375-1-1v-3.668c0-0.55078-0.44922-1-1-1s-1 0.44922-1 1v3.668c0 1.6445 1.3555 3 3 3h2.7656c0.83984 0 1.6484-0.33594 2.2461-0.92969l6.8594-6.8555c1.1641-1.1602 1.1641-3.0781 0.003906-4.2422l-2.8398-2.8359c-0.58203-0.58203-1.3516-0.875-2.1211-0.875z"/>
  <path d="m8.707 5.8789-2.1211 2.1211c-0.39063 0.39062-0.39063 1.0234 0 1.4141 0.39062 0.39063 1.0234 0.39063 1.4141 0l2.1211-2.1211c0.39062-0.39062 0.39062-1.0234 0-1.4141s-1.0234-0.39062-1.4141 0z"/>
  <path d="m3.7539 9.4102c-1.1641-1.1641-1.1641-3.0781 0-4.2422 0.39062-0.39062 1.0234-0.39062 1.4141 0s0.39062 1.0234 0 1.4141c-0.39844 0.39844-0.39844 1.0156 0 1.4141 0.39844 0.39844 1.0156 0.39844 1.4141 0 0.39062-0.39062 1.0234-0.39062 1.4141 0s0.39062 1.0234 0 1.4141c-1.1641 1.1641-3.0781 1.1641-4.2422 0z"/>
 </g>
</svg>
