<?xml version="1.0" encoding="UTF-8"?>
<svg width="16px" height="16px" viewBox="0 0 16 16" xmlns="http://www.w3.org/2000/svg">
 <path d="m8 0.98047c-0.48047 0-0.96094 0.13281-1.3867 0.39062l-5.2852 3.2539c-0.82422 0.50781-1.3281 1.4062-1.3281 2.375v6c0 1.6445 1.3555 3 3 3h10c1.6445 0 3-1.3555 3-3v-6c0-0.96875-0.50391-1.8672-1.3281-2.375l-5.2852-3.2539c-0.42578-0.25781-0.90625-0.39062-1.3867-0.39062zm0 2c0.11719 0 0.23438 0.035156 0.33594 0.097656l5.2891 3.25c0.089844 0.054687 0.16406 0.125 0.22266 0.20312-0.042968 0.011719-0.085937 0.03125-0.125 0.050781l-5.168 3.4453c-0.33594 0.22656-0.77344 0.22656-1.1094 0l-5.168-3.4453c-0.039063-0.019531-0.082032-0.039062-0.125-0.050781 0.058594-0.078125 0.13281-0.14844 0.22266-0.20312l5.2891-3.25c0.10156-0.0625 0.21875-0.097656 0.33594-0.097656zm-6 4.6211 4.8906 3.2578c0.67188 0.44922 1.5469 0.44922 2.2188 0l4.8906-3.2578v5.3984c0 0.5625-0.4375 1-1 1h-10c-0.5625 0-1-0.4375-1-1z" fill="#2e3436" fill-opacity=".5"/>
</svg>
