<?xml version="1.0" encoding="UTF-8"?>
<svg width="16px" height="16px" viewBox="0 0 16 16" xmlns="http://www.w3.org/2000/svg">
 <g fill="#2e3436">
  <path d="m8 1.5c-1.9805 0-3.7695 1.168-4.5703 2.9766l8.5234 8.5234h1.5469c0.55469 0 1-0.44531 1-1s-0.44531-1-1-1h-0.5v-4.5c0-2.7617-2.2383-5-5-5zm-4.9883 4.6836c-0.007813 0.10547-0.011719 0.21094-0.011719 0.31641v4.5h-0.5c-0.55469 0-1 0.44531-1 1s0.44531 1 1 1h7.3281z"/>
  <path d="m10 14c0 0.71484-0.38281 1.375-1 1.7305-0.61719 0.35938-1.3828 0.35938-2 0-0.61719-0.35547-1-1.0156-1-1.7305"/>
  <path d="m9.5 1.5c0 0.82812-0.67188 1.5-1.5 1.5s-1.5-0.67188-1.5-1.5 0.67188-1.5 1.5-1.5 1.5 0.67188 1.5 1.5z"/>
  <path d="m1.5312 0.45703-1.0625 1.0625 14 14 1.0625-1.0625z"/>
 </g>
</svg>
