<?xml version="1.0" encoding="UTF-8"?>
<svg width="16px" height="16px" viewBox="0 0 16 16" xmlns="http://www.w3.org/2000/svg">
 <g fill="#5e5c64">
  <path d="m3 10c-0.55469 0-1 0.44531-1 1s0.44531 1 1 1h5.7734l-0.054688-2z"/>
  <path d="m11 8c-1.6562 0-3 1.3438-3 3s1.3438 3 3 3 3-1.3438 3-3-1.3438-3-3-3zm0 1c1.1055 0 2 0.89453 2 2s-0.89453 2-2 2-2-0.89453-2-2 0.89453-2 2-2z"/>
  <path d="m13 6c0.55469 0 1-0.44531 1-1s-0.44531-1-1-1h-5.7734l0.054688 2z"/>
  <path d="m5 8c1.6562 0 3-1.3438 3-3s-1.3438-3-3-3-3 1.3438-3 3 1.3438 3 3 3zm0-1c-1.1055 0-2-0.89453-2-2s0.89453-2 2-2 2 0.89453 2 2-0.89453 2-2 2z"/>
 </g>
</svg>
