<?xml version="1.0" encoding="UTF-8"?>
<svg width="16px" height="16px" viewBox="0 0 16 16" xmlns="http://www.w3.org/2000/svg">
 <path d="m1 4v8c0 1.1094 0.89062 2 2 2h10c1.1094 0 2-0.89062 2-2v-8zm7 1.75c0.69141 0 1.25 0.55859 1.25 1.25s-0.55859 1.25-1.25 1.25-1.25-0.55859-1.25-1.25 0.55859-1.25 1.25-1.25zm-2 3c0.69141 0 1.25 0.55859 1.25 1.25s-0.55859 1.25-1.25 1.25-1.25-0.55859-1.25-1.25 0.55859-1.25 1.25-1.25zm4 0c0.69141 0 1.25 0.55859 1.25 1.25s-0.55859 1.25-1.25 1.25-1.25-0.55859-1.25-1.25 0.55859-1.25 1.25-1.25z"/>
 <path d="m6 1-1 1v3h2v-3h2v3h2v-3l-1-1z"/>
</svg>
