<?xml version="1.0" encoding="UTF-8"?>
<!-- Created with Inkscape (http://www.inkscape.org/) -->
<svg id="svg7384" width="16" height="16" version="1.1" xmlns="http://www.w3.org/2000/svg" xmlns:cc="http://creativecommons.org/ns#" xmlns:dc="http://purl.org/dc/elements/1.1/" xmlns:rdf="http://www.w3.org/1999/02/22-rdf-syntax-ns#">
 <metadata id="metadata90">
  <rdf:RDF>
   <cc:Work rdf:about="">
    <dc:format>image/svg+xml</dc:format>
    <dc:type rdf:resource="http://purl.org/dc/dcmitype/StillImage"/>
    <dc:title>Gnome Symbolic Icon Theme</dc:title>
   </cc:Work>
  </rdf:RDF>
 </metadata>
 <title id="title9167">Gnome Symbolic Icon Theme</title>
 <g id="layer9" transform="translate(-203 -195)">
  <path id="path10349" d="m203 195v16h0.96875c-0.44927-0.52508-0.39088-0.99184 0.0312-1.5312l2.5446-2.5209c-0.3395-0.58519-0.54465-1.257-0.54465-1.9791 0-2.2136 1.8008-4.0312 4-4.0312 2.1992 0 4 1.8177 4 4.0312s-1.8008 4.0312-4 4.0312c-0.8092 0-1.5558-0.23556-2.1875-0.65625l-2.7812 2.6562h12c-0.12596-0.12596-0.21875-0.30779-0.21875-0.5 0-0.38442 0.30308-0.6875 0.6875-0.6875s0.71875 0.30308 0.71875 0.6875c0 0.19221-0.0928 0.37404-0.21875 0.5h1v-16h-1c-0.12596 0.12596-0.30779 0.21875-0.5 0.21875s-0.34279-0.0928-0.46875-0.21875h-12.062c-0.12596 0.12595-0.27654 0.21875-0.46875 0.21875s-0.37404-0.0928-0.5-0.21875zm1.5 0.8125c0.38442 0 0.6875 0.30308 0.6875 0.6875s-0.30308 0.71875-0.6875 0.71875-0.71875-0.33433-0.71875-0.71875 0.33433-0.6875 0.71875-0.6875zm13 0c0.38442 0 0.71875 0.30308 0.71875 0.6875s-0.33433 0.71875-0.71875 0.71875-0.6875-0.33433-0.6875-0.71875 0.30308-0.6875 0.6875-0.6875zm-13 2c0.38442 0 0.6875 0.30308 0.6875 0.6875s-0.30308 0.71875-0.6875 0.71875-0.71875-0.33433-0.71875-0.71875 0.33433-0.6875 0.71875-0.6875zm13 0c0.38442 0 0.71875 0.30308 0.71875 0.6875s-0.33433 0.71875-0.71875 0.71875-0.6875-0.33433-0.6875-0.71875 0.30308-0.6875 0.6875-0.6875zm-13 2c0.38442 0 0.6875 0.30308 0.6875 0.6875s-0.30308 0.71875-0.6875 0.71875-0.71875-0.33433-0.71875-0.71875 0.33433-0.6875 0.71875-0.6875zm13 0c0.38442 0 0.71875 0.30308 0.71875 0.6875s-0.33433 0.71875-0.71875 0.71875-0.6875-0.33433-0.6875-0.71875 0.30308-0.6875 0.6875-0.6875zm-13 2c0.38442 0 0.6875 0.30308 0.6875 0.6875s-0.30308 0.71875-0.6875 0.71875-0.71875-0.33433-0.71875-0.71875 0.33433-0.6875 0.71875-0.6875zm13 0c0.38442 0 0.71875 0.30308 0.71875 0.6875s-0.33433 0.71875-0.71875 0.71875-0.6875-0.33433-0.6875-0.71875 0.30308-0.6875 0.6875-0.6875zm-7.4598 1.2031c-1.1122 0-1.991 0.89617-1.991 2.0156s0.87885 2.0156 1.991 2.0156 1.991-0.89616 1.991-2.0156-0.87884-2.0156-1.991-2.0156zm-5.5402 0.79688c0.38442 0 0.6875 0.30308 0.6875 0.6875s-0.30308 0.71875-0.6875 0.71875-0.71875-0.33433-0.71875-0.71875 0.33433-0.6875 0.71875-0.6875zm13 0c0.38442 0 0.71875 0.30308 0.71875 0.6875s-0.33433 0.71875-0.71875 0.71875-0.6875-0.33433-0.6875-0.71875 0.30308-0.6875 0.6875-0.6875zm-13 2c0.38442 0 0.6875 0.30308 0.6875 0.6875s-0.30308 0.71875-0.6875 0.71875-0.71875-0.33433-0.71875-0.71875 0.33433-0.6875 0.71875-0.6875zm13 0c0.38442 0 0.71875 0.30308 0.71875 0.6875s-0.33433 0.71875-0.71875 0.71875-0.6875-0.33433-0.6875-0.71875 0.30308-0.6875 0.6875-0.6875zm0 2c0.38442 0 0.71875 0.30308 0.71875 0.6875s-0.33433 0.71875-0.71875 0.71875-0.6875-0.33433-0.6875-0.71875 0.30308-0.6875 0.6875-0.6875z" style="fill:#bebebe"/>
 </g>
</svg>
