<?xml version="1.0" encoding="UTF-8"?>
<svg width="16px" height="16px" viewBox="0 0 16 16" xmlns="http://www.w3.org/2000/svg">
 <path d="m7.4805 0.015625h1.0664c0.58984 0 1.0664 0.47656 1.0664 1.0664v1.0664c0 0.58984-0.47656 1.0664-1.0664 1.0664h-1.0664c-0.58984 0-1.0664-0.47656-1.0664-1.0664v-1.0664c0-0.58984 0.47656-1.0664 1.0664-1.0664zm0 12.797h1.0664c0.58984 0 1.0664 0.47656 1.0664 1.0703v1.0625c0 0.59375-0.47656 1.0703-1.0664 1.0703h-1.0664c-0.58984 0-1.0664-0.47656-1.0664-1.0703v-1.0625c0-0.59375 0.47656-1.0703 1.0664-1.0703zm-5.5-10.078 0.75391-0.75391c0.19922-0.19922 0.46875-0.3125 0.75391-0.3125 0.28125 0 0.55469 0.11328 0.75391 0.3125l0.75391 0.75391c0.41797 0.41797 0.41797 1.0898 0 1.5078l-0.75391 0.75391c-0.19922 0.20312-0.47266 0.31641-0.75391 0.31641-0.28516 0-0.55469-0.11328-0.75391-0.31641l-0.75391-0.75391c-0.20312-0.19922-0.31641-0.46875-0.31641-0.75391 0-0.28125 0.11328-0.55469 0.31641-0.75391zm9.0508 9.0508 0.75391-0.75391c0.19922-0.19922 0.47266-0.3125 0.75391-0.3125 0.28516 0 0.55469 0.11328 0.75391 0.3125l0.75391 0.75391c0.41797 0.41797 0.41797 1.0898 0 1.5078l-0.75391 0.75391c-0.19922 0.20312-0.46875 0.31641-0.75391 0.31641-0.28125 0-0.55469-0.11328-0.75391-0.31641l-0.75391-0.75391c-0.20312-0.19922-0.3125-0.46875-0.3125-0.75391 0-0.28125 0.10938-0.55469 0.3125-0.75391zm-11.016-3.2383v-1.0664c0-0.58984 0.47266-1.0664 1.0664-1.0664h1.0664c0.58984 0 1.0664 0.47656 1.0664 1.0664v1.0664c0 0.58984-0.47656 1.0664-1.0664 1.0664h-1.0664c-0.59375 0-1.0664-0.47656-1.0664-1.0664zm12.797 0v-1.0664c0-0.58984 0.47656-1.0664 1.0664-1.0664h1.0664c0.59375 0 1.0703 0.47656 1.0703 1.0664v1.0664c0 0.58984-0.47656 1.0664-1.0703 1.0664h-1.0664c-0.58984 0-1.0664-0.47656-1.0664-1.0664zm-10.078 5.5-0.75391-0.75391c-0.20312-0.19922-0.31641-0.46875-0.31641-0.75391 0-0.28125 0.11328-0.55469 0.31641-0.75391l0.75391-0.75391c0.19922-0.19922 0.46875-0.3125 0.75391-0.3125 0.28125 0 0.55469 0.11328 0.75391 0.3125l0.75391 0.75391c0.41797 0.41797 0.41797 1.0898 0 1.5078l-0.75391 0.75391c-0.19922 0.20312-0.47266 0.31641-0.75391 0.31641-0.28516 0-0.55469-0.11328-0.75391-0.31641zm9.0508-9.0508-0.75391-0.75391c-0.20312-0.19922-0.3125-0.46875-0.3125-0.75391 0-0.28125 0.10938-0.55469 0.3125-0.75391l0.75391-0.75391c0.19922-0.19922 0.47266-0.3125 0.75391-0.3125 0.28516 0 0.55469 0.11328 0.75391 0.3125l0.75391 0.75391c0.41797 0.41797 0.41797 1.0898 0 1.5078l-0.75391 0.75391c-0.19922 0.20312-0.46875 0.31641-0.75391 0.31641-0.28125 0-0.55469-0.11328-0.75391-0.31641z" fill="#241f31"/>
 <path d="m8.0156 1.5156c-3.5742 0-6.5 2.9258-6.5 6.5 0 3.5703 2.9258 6.5 6.5 6.5 3.5703 0 6.5-2.9297 6.5-6.5 0-3.5742-2.9297-6.5-6.5-6.5zm0 3c1.9492 0 3.5 1.5469 3.5 3.5 0 1.9492-1.5508 3.5-3.5 3.5-1.9531 0-3.5-1.5508-3.5-3.5 0-1.9531 1.5469-3.5 3.5-3.5z" fill="#241f31"/>
</svg>
