<?xml version="1.0" encoding="UTF-8"?>
<svg width="16px" height="16px" viewBox="0 0 16 16" xmlns="http://www.w3.org/2000/svg">
 <path d="m4 0c-1.6445 0-3 1.3555-3 3v10c0 1.6445 1.3555 3 3 3h7c1.6445 0 3-1.3555 3-3v-6.5859l-2 2v4.5859c0 0.57031-0.42969 1-1 1h-7c-0.57031 0-1-0.42969-1-1v-8h5.5859l4.3125-4.3125c-0.51953-0.42969-1.1797-0.6875-1.8984-0.6875zm9.9492 2.4648-2.5352 2.5352h0.58594v0.58594l2-2v-0.58594c0-0.18359-0.019531-0.35938-0.050781-0.53516z"/>
 <path d="m5 12h2l9-9-2-2-9 9z"/>
 <path d="m5 12h2l9-9-2-2-9 9z"/>
</svg>
