<?xml version="1.0" encoding="UTF-8"?>
<svg width="16px" height="16px" version="1.1" viewBox="0 0 16 16" xmlns="http://www.w3.org/2000/svg">
 <g id="surface23930">
  <path d="m4 0c-1.0898 0-2 0.91016-2 2v12c0 1.0898 0.91016 2 2 2h8c1.0898 0 2-0.91016 2-2v-12c0-1.0898-0.91016-2-2-2zm0.5 2h7c0.27734 0 0.5 0.22266 0.5 0.5v1c0 0.27734-0.22266 0.5-0.5 0.5h-7c-0.27734 0-0.5-0.22266-0.5-0.5v-1c0-0.27734 0.22266-0.5 0.5-0.5zm0.5 4c0.55078 0 1 0.44922 1 1s-0.44922 1-1 1-1-0.44922-1-1 0.44922-1 1-1zm3 0c0.55078 0 1 0.44922 1 1s-0.44922 1-1 1-1-0.44922-1-1 0.44922-1 1-1zm3 0c0.55078 0 1 0.44922 1 1s-0.44922 1-1 1-1-0.44922-1-1 0.44922-1 1-1zm-6 3c0.55078 0 1 0.44922 1 1s-0.44922 1-1 1-1-0.44922-1-1 0.44922-1 1-1zm3 0c0.55078 0 1 0.44922 1 1s-0.44922 1-1 1-1-0.44922-1-1 0.44922-1 1-1zm3 0c0.55078 0 1 0.44922 1 1v3c0 0.55078-0.44922 1-1 1s-1-0.44922-1-1v-3c0-0.55078 0.44922-1 1-1zm-6 3c0.55078 0 1 0.44922 1 1s-0.44922 1-1 1-1-0.44922-1-1 0.44922-1 1-1zm3 0c0.55078 0 1 0.44922 1 1s-0.44922 1-1 1-1-0.44922-1-1 0.44922-1 1-1z" style="fill:#241f31"/>
 </g>
</svg>
