<?xml version="1.0" encoding="UTF-8"?>
<svg width="16" height="16" version="1.1" viewBox="0 0 16 16" xmlns="http://www.w3.org/2000/svg">
 <g id="surface1">
  <rect width="16" height="16" style="fill:#e95420"/>
  <path d="m5.2656 7.9102c0 0.92578-0.75 1.6758-1.6758 1.6758-0.92578 0-1.6758-0.75-1.6758-1.6758 0-0.92578 0.75-1.6758 1.6758-1.6758 0.92578 0 1.6758 0.75 1.6758 1.6758z" style="fill:#fff"/>
  <path d="m12.227 4.2383c0 0.92578-0.75 1.6758-1.6758 1.6758s-1.6758-0.75-1.6758-1.6758c0-0.92188 0.75-1.6719 1.6758-1.6719s1.6758 0.75 1.6758 1.6719z" style="fill:#fff"/>
  <path d="m7.3633 12.211c-1.1992-0.25-2.2188-1.0352-2.7734-2.125-0.44531 0.19922-0.94141 0.26172-1.4258 0.17578 0.67969 1.6797 2.1523 2.9141 3.9258 3.2891 0.39062 0.082031 0.78516 0.125 1.1836 0.125-0.3125-0.40234-0.48828-0.89062-0.5-1.4023-0.13672 0-0.27734-0.023438-0.41016-0.0625z" style="fill:#fff"/>
  <path d="m11.852 12.227c0 0.92188-0.75 1.6719-1.6758 1.6719s-1.6758-0.75-1.6758-1.6719c0-0.92578 0.75-1.6758 1.6758-1.6758s1.6758 0.75 1.6758 1.6758z" style="fill:#fff"/>
  <path d="m12.5 11.613c1.4609-1.8555 1.5703-4.4375 0.27344-6.4141-0.19141 0.45312-0.51953 0.83984-0.9375 1.1016 0.44922 0.85156 0.58984 1.832 0.39062 2.7734-0.097656 0.46094-0.27734 0.90234-0.52734 1.3008 0.39844 0.3125 0.67969 0.75 0.80078 1.2383z" style="fill:#fff"/>
  <path d="m3.4492 5.5h0.125c0.16797 0 0.33594 0.015625 0.5 0.050781 0.26953 0.058594 0.52734 0.16797 0.76172 0.3125 0.74609-1.082 1.9727-1.7383 3.2891-1.7578 0.007812-0.125 0.027344-0.25 0.050781-0.375 0.074219-0.35547 0.23047-0.69141 0.46094-0.97656-2.1133-0.16016-4.1328 0.91016-5.1875 2.7461z" style="fill:#fff"/>
 </g>
</svg>
