<?xml version="1.0" encoding="UTF-8"?>
<svg width="16px" height="16px" viewBox="0 0 16 16" xmlns="http://www.w3.org/2000/svg">
 <g fill="#2e3436">
  <path d="m14.902 2c-0.042969 0.007812-0.085938 0.019531-0.125 0.03125-0.44922 0.10156-0.79297 0.54297-0.78125 1v1.6875c0.003906 1.3125 0.003906 1.3125-1.5625 1.3125h-1.4375c-0.52344 0-1 0.47656-1 1-0.007813 0.074219-0.007813 0.14844 0 0.21875v0.78125h6v-5c0.003906-0.0625 0.003906-0.125 0-0.1875v-0.8125h-0.8125c-0.09375-0.023438-0.1875-0.035156-0.28125-0.03125z"/>
  <path d="m0.0039062 8v5c-0.0039062 0.0625-0.0039062 0.125 0 0.1875v0.8125h0.8125c0.09375 0.023438 0.1875 0.035156 0.28125 0.03125 0.042969-0.007812 0.085938-0.019531 0.125-0.03125 0.44922-0.10156 0.79297-0.54297 0.78125-1v-1.6875c-0.003906-1.3125-0.003906-1.3125 1.5625-1.3125h1.4375c0.52344 0 1-0.47656 1-1 0.007813-0.074219 0.007813-0.14453 0-0.21875v-0.78125z"/>
  <path d="m8 1c-3.1523 0-5.8203 2.125-6.6875 5h2.0938c0.77344-1.7656 2.5391-3 4.5938-3s3.8203 1.2344 4.5938 3h2.0938c-0.86719-2.875-3.5352-5-6.6875-5zm-6.6875 9c0.86719 2.875 3.5352 5 6.6875 5s5.8203-2.125 6.6875-5h-2.0938c-0.77344 1.7656-2.5391 3-4.5938 3s-3.8203-1.2344-4.5938-3z"/>
 </g>
</svg>
