<?xml version="1.0" encoding="UTF-8"?>
<svg width="48" height="48" version="1.1" viewBox="0 0 48 48" xmlns="http://www.w3.org/2000/svg">
 <g id="surface1">
  <path d="m7.125 0h33.75v48h-33.75z" style="fill:#e95420"/>
  <path d="m18 30.336c0 1.9492-1.5781 3.5273-3.5234 3.5273-1.9492 0-3.5273-1.5781-3.5273-3.5273 0-1.9453 1.5781-3.5234 3.5273-3.5234 1.9453 0 3.5234 1.5781 3.5234 3.5234z" style="fill:#fff"/>
  <path d="m32.773 22.574c0 1.9492-1.5781 3.5273-3.5234 3.5273s-3.5234-1.5781-3.5234-3.5273c0-1.9453 1.5781-3.5234 3.5234-3.5234s3.5234 1.5781 3.5234 3.5234z" style="fill:#fff"/>
  <path d="m22.461 39.449c-2.5469-0.52344-4.6875-2.1758-5.8867-4.5-0.9375 0.44922-2.0234 0.5625-3.0352 0.375 1.4219 3.5625 4.5352 6.1523 8.2852 6.9766 0.82422 0.1875 1.6875 0.26172 2.5117 0.26172-0.63672-0.86328-1.0117-1.875-1.0469-2.9609-0.22656-0.039062-0.52734-0.11328-0.82812-0.15234z" style="fill:#fff"/>
  <path d="m31.949 39.449c0 1.9492-1.5781 3.5273-3.5234 3.5273-1.9492 0-3.5273-1.5781-3.5273-3.5273 0-1.9453 1.5781-3.5234 3.5273-3.5234 1.9453 0 3.5234 1.5781 3.5234 3.5234z" style="fill:#fff"/>
  <path d="m33.375 38.176c3.1133-3.9375 3.3359-9.4141 0.60156-13.613-0.41406 0.97656-1.0898 1.7617-1.9883 2.3242 1.4258 2.6992 1.3125 6-0.30078 8.625 0.82422 0.67578 1.4258 1.6133 1.6875 2.6641z" style="fill:#fff"/>
  <path d="m14.211 25.238h0.26562c0.375 0 0.71094 0.035157 1.0859 0.11328 0.5625 0.10938 1.125 0.33594 1.6133 0.63672 1.5742-2.2891 4.1602-3.6758 6.9375-3.7148 0-0.26172 0.035157-0.52344 0.11328-0.78516 0.14844-0.75 0.48438-1.4648 0.97266-2.0625-4.4609-0.33984-8.7383 1.9102-10.988 5.8125z" style="fill:#fff"/>
 </g>
</svg>
