<?xml version="1.0" encoding="UTF-8"?>
<svg width="22" height="22" version="1.1" viewBox="0 0 22 22" xmlns="http://www.w3.org/2000/svg">
 <g id="surface1">
  <rect width="22" height="22" style="fill:#e95420"/>
  <path d="m7.2383 10.875c0 1.2734-1.0312 2.3047-2.3008 2.3047-1.2734 0-2.3047-1.0312-2.3047-2.3047 0-1.2695 1.0312-2.3008 2.3047-2.3008 1.2695 0 2.3008 1.0312 2.3008 2.3008z" style="fill:#fff"/>
  <path d="m16.809 5.8281c0 1.2734-1.0312 2.3047-2.3008 2.3047-1.2734 0-2.3047-1.0312-2.3047-2.3047 0-1.2695 1.0312-2.3008 2.3047-2.3008 1.2695 0 2.3008 1.0312 2.3008 2.3008z" style="fill:#fff"/>
  <path d="m10.125 16.789c-1.6484-0.34375-3.0508-1.4219-3.8125-2.9219-0.61328 0.27734-1.2969 0.35937-1.9609 0.24219 0.92969 2.3125 2.957 4.0078 5.3984 4.5234 0.53516 0.11328 1.082 0.17188 1.6289 0.17188-0.43359-0.55078-0.67188-1.2266-0.6875-1.9258-0.19141-0.003906-0.38281-0.035156-0.56641-0.089844z" style="fill:#fff"/>
  <path d="m16.293 16.809c0 1.2734-1.0312 2.3047-2.3008 2.3047-1.2734 0-2.3047-1.0312-2.3047-2.3047 0-1.2695 1.0312-2.3008 2.3047-2.3008 1.2695 0 2.3008 1.0312 2.3008 2.3008z" style="fill:#fff"/>
  <path d="m17.188 15.969c2.0078-2.5508 2.1602-6.1016 0.37891-8.8203-0.26953 0.625-0.71875 1.1523-1.293 1.5156 0.62109 1.168 0.80859 2.5195 0.53516 3.8125-0.13281 0.63672-0.37891 1.2383-0.72266 1.7891 0.54687 0.42969 0.93359 1.0312 1.1016 1.7031z" style="fill:#fff"/>
  <path d="m4.7422 7.5625h0.17187c0.23438-0.003906 0.46484 0.019531 0.6875 0.070312 0.37109 0.082032 0.72656 0.23047 1.0469 0.42969 1.0273-1.4922 2.7109-2.3945 4.5234-2.418 0.011719-0.17188 0.035156-0.34375 0.070313-0.51562 0.10156-0.49219 0.31641-0.94922 0.63281-1.3398-2.9062-0.22266-5.6797 1.2461-7.1328 3.7734z" style="fill:#fff"/>
 </g>
</svg>
