<?xml version="1.0" encoding="UTF-8"?>
<svg width="128px" height="128px" viewBox="0 0 128 128" xmlns="http://www.w3.org/2000/svg">
 <linearGradient id="a" x1="8" x2="112" y1="64" y2="64" gradientUnits="userSpaceOnUse">
  <stop stop-color="#babdb6" offset="0"/>
  <stop stop-color="#f6f5f4" offset=".041667"/>
  <stop stop-color="#d5d3cf" offset=".083333"/>
  <stop stop-color="#deddda" offset=".91667"/>
  <stop stop-color="#f6f5f4" offset=".95833"/>
  <stop stop-color="#babdb6" offset="1"/>
 </linearGradient>
 <linearGradient id="b" x1="8" x2="112" y1="207" y2="207" gradientTransform="matrix(-1 0 0 1 120 -172)" gradientUnits="userSpaceOnUse">
  <stop stop-color="#9b9a95" offset="0"/>
  <stop stop-color="#d1d0cc" offset="1"/>
 </linearGradient>
 <linearGradient id="c" x1="67.335" x2="67.335" y1="49.516" y2="12" gradientUnits="userSpaceOnUse">
  <stop stop-color="#deddda" offset="0"/>
  <stop stop-color="#e7e7e5" offset="1"/>
 </linearGradient>
 <clipPath id="d">
  <path d="m72 75h24v22h-24z"/>
 </clipPath>
 <clipPath id="e">
  <path d="m84.438 74.242h-17.852c-6.3359 0-11.477 4.8867-11.477 10.914s5.1406 10.914 11.477 10.914h17.852c6.3359 0 11.473-4.8867 11.473-10.914s-5.1367-10.914-11.473-10.914z"/>
 </clipPath>
 <clipPath id="f">
  <path d="m72 75h24v22h-24z"/>
 </clipPath>
 <clipPath id="g">
  <path d="m84.438 74.242h-17.852c-6.3359 0-11.477 4.8867-11.477 10.914s5.1406 10.914 11.477 10.914h17.852c6.3359 0 11.473-4.8867 11.473-10.914s-5.1367-10.914-11.473-10.914z"/>
 </clipPath>
 <clipPath id="h">
  <rect width="128" height="128"/>
 </clipPath>
 <clipPath id="i">
  <rect width="128" height="128"/>
 </clipPath>
 <filter id="j" x="0%" y="0%" width="100%" height="100%">
  <feColorMatrix in="SourceGraphic" values="0 0 0 0 1 0 0 0 0 1 0 0 0 0 1 0 0 0 1 0"/>
 </filter>
 <mask id="k">
  <g clip-path="url(#i)" filter="url(#j)">
   <g clip-path="url(#h)">
    <path d="m16 32h88c4.418 0 8 3.582 8 8v68c0 4.418-3.582 8-8 8h-88c-4.418 0-8-3.582-8-8v-68c0-4.418 3.582-8 8-8z" fill="url(#a)"/>
    <path d="m16 12h88c4.418 0 8 3.582 8 8v84c0 4.418-3.582 8-8 8h-88c-4.418 0-8-3.582-8-8v-84c0-4.418 3.582-8 8-8z" fill="#f6f5f4"/>
    <path d="m104 14c4.4336 0 8 3.5664 8 8v34h-104v-34c0-4.4336 3.5664-8 8-8z" fill="url(#b)"/>
    <path d="m16 12c-4.4336 0-8 3.5664-8 8v34h104v-34c0-4.4336-3.5664-8-8-8z" fill="url(#c)"/>
    <path d="m84.598 73.348h-17.109c-6.2969 0-11.402 5.0703-11.402 11.324s5.1055 11.32 11.402 11.32h17.109c6.2969 0 11.402-5.0664 11.402-11.32s-5.1055-11.324-11.402-11.324z" fill="#3584e4"/>
    <path d="m84.773 71.969c6.2188 0 11.227 5.0586 11.227 11.438 0 0.21875-0.019531 0.50391-0.03125 0.71484-0.32422-6.0781-5.1875-10.207-11.195-10.207h-17.461c-6.0078 0-10.871 4.1289-11.195 10.207-0.011719-0.21094-0.03125-0.49609-0.03125-0.71484 0-6.3789 5.0078-11.438 11.227-11.438z" fill="#1a5fb4"/>
    <g clip-path="url(#f)">
     <g clip-path="url(#g)">
      <path d="m72.961 86.371c0 6.0273 5.1367 10.914 11.477 10.914 6.3359 0 11.473-4.8867 11.473-10.914 0-6.0312-5.1367-10.914-11.473-10.914-6.3398 0-11.477 4.8828-11.477 10.914z" fill="#deddda"/>
     </g>
    </g>
    <path d="m95.879 82.305h-22.891v3.8398h22.891z" fill="#deddda"/>
    <path d="m72.988 82.305c0 6.3594 5.125 11.516 11.445 11.516 6.3242 0 11.445-5.1562 11.445-11.516 0-6.3594-5.1211-11.516-11.445-11.516-6.3203 0-11.445 5.1562-11.445 11.516z" fill="#fff"/>
    <path d="m24.75 72h22.5c0.41406 0 0.75 0.33594 0.75 0.75v6.5c0 0.41406-0.33594 0.75-0.75 0.75h-22.5c-0.41406 0-0.75-0.33594-0.75-0.75v-6.5c0-0.41406 0.33594-0.75 0.75-0.75z" fill="#deddda" fill-opacity=".99608"/>
    <path d="m40 28h8v8h-8z" fill="#77767b" fill-opacity=".99608"/>
    <path d="m24.75 88h14.5c0.41406 0 0.75 0.33594 0.75 0.75v6.5c0 0.41406-0.33594 0.75-0.75 0.75h-14.5c-0.41406 0-0.75-0.33594-0.75-0.75v-6.5c0-0.41406 0.33594-0.75 0.75-0.75z" fill="#deddda" fill-opacity=".99608"/>
    <path d="m68 28h28v8h-28z" fill="#77767b" fill-opacity=".99608"/>
    <path d="m60.117 20h3.8828l-8 24h-3.8828z" fill="#c0bfbc"/>
    <path d="m68 40h28v4h-28z" fill="#3584e4"/>
    <path d="m16 12c-4.4336 0-8 3.5664-8 8v2c0-4.4336 3.5664-8 8-8h88c4.4336 0 8 3.5664 8 8v-2c0-4.4336-3.5664-8-8-8z" fill="#edebe9"/>
    <path d="m32.109 20h3.7812l-8 24h-3.7812z" fill="#c0bfbc"/>
   </g>
  </g>
 </mask>
 <mask id="l">
  <g filter="url(#j)">
   <rect width="128" height="128" fill-opacity=".8"/>
  </g>
 </mask>
 <linearGradient id="m" x1="300" x2="428" y1="235" y2="235" gradientTransform="matrix(0 .37 -.98462 0 295.39 -30.36)" gradientUnits="userSpaceOnUse">
  <stop stop-color="#f9f06b" offset="0"/>
  <stop stop-color="#f5c211" offset="1"/>
 </linearGradient>
 <clipPath id="n">
  <rect width="128" height="128"/>
 </clipPath>
 <clipPath id="o">
  <rect width="128" height="128"/>
 </clipPath>
 <path d="m16 32h88c4.418 0 8 3.582 8 8v68c0 4.418-3.582 8-8 8h-88c-4.418 0-8-3.582-8-8v-68c0-4.418 3.582-8 8-8z" fill="url(#a)"/>
 <path d="m16 12h88c4.418 0 8 3.582 8 8v84c0 4.418-3.582 8-8 8h-88c-4.418 0-8-3.582-8-8v-84c0-4.418 3.582-8 8-8z" fill="#f6f5f4"/>
 <path d="m104 14c4.4336 0 8 3.5664 8 8v34h-104v-34c0-4.4336 3.5664-8 8-8z" fill="url(#b)"/>
 <path d="m16 12c-4.4336 0-8 3.5664-8 8v34h104v-34c0-4.4336-3.5664-8-8-8z" fill="url(#c)"/>
 <path d="m84.598 73.348h-17.109c-6.2969 0-11.402 5.0703-11.402 11.324s5.1055 11.32 11.402 11.32h17.109c6.2969 0 11.402-5.0664 11.402-11.32s-5.1055-11.324-11.402-11.324z" fill="#3584e4"/>
 <path d="m84.773 71.969c6.2188 0 11.227 5.0586 11.227 11.438 0 0.21875-0.019531 0.50391-0.03125 0.71484-0.32422-6.0781-5.1875-10.207-11.195-10.207h-17.461c-6.0078 0-10.871 4.1289-11.195 10.207-0.011719-0.21094-0.03125-0.49609-0.03125-0.71484 0-6.3789 5.0078-11.438 11.227-11.438z" fill="#1a5fb4"/>
 <g clip-path="url(#d)">
  <g clip-path="url(#e)">
   <path d="m72.961 86.371c0 6.0273 5.1367 10.914 11.477 10.914 6.3359 0 11.473-4.8867 11.473-10.914 0-6.0312-5.1367-10.914-11.473-10.914-6.3398 0-11.477 4.8828-11.477 10.914z" fill="#deddda"/>
  </g>
 </g>
 <path d="m95.879 82.305h-22.891v3.8398h22.891z" fill="#deddda"/>
 <path d="m72.988 82.305c0 6.3594 5.125 11.516 11.445 11.516 6.3242 0 11.445-5.1562 11.445-11.516 0-6.3594-5.1211-11.516-11.445-11.516-6.3203 0-11.445 5.1562-11.445 11.516z" fill="#fff"/>
 <g fill-opacity=".99608">
  <path d="m24.75 72h22.5c0.41406 0 0.75 0.33594 0.75 0.75v6.5c0 0.41406-0.33594 0.75-0.75 0.75h-22.5c-0.41406 0-0.75-0.33594-0.75-0.75v-6.5c0-0.41406 0.33594-0.75 0.75-0.75z" fill="#deddda"/>
  <path d="m40 28h8v8h-8z" fill="#77767b"/>
  <path d="m24.75 88h14.5c0.41406 0 0.75 0.33594 0.75 0.75v6.5c0 0.41406-0.33594 0.75-0.75 0.75h-14.5c-0.41406 0-0.75-0.33594-0.75-0.75v-6.5c0-0.41406 0.33594-0.75 0.75-0.75z" fill="#deddda"/>
  <path d="m68 28h28v8h-28z" fill="#77767b"/>
 </g>
 <path d="m60.117 20h3.8828l-8 24h-3.8828z" fill="#c0bfbc"/>
 <path d="m68 40h28v4h-28z" fill="#3584e4"/>
 <path d="m16 12c-4.4336 0-8 3.5664-8 8v2c0-4.4336 3.5664-8 8-8h88c4.4336 0 8 3.5664 8 8v-2c0-4.4336-3.5664-8-8-8z" fill="#edebe9"/>
 <path d="m32.109 20h3.7812l-8 24h-3.7812z" fill="#c0bfbc"/>
 <g clip-path="url(#o)" mask="url(#k)">
  <g clip-path="url(#n)" mask="url(#l)">
   <path d="m128 80.641v47.359h-128v-47.359z" fill="url(#m)"/>
   <path d="m13.309 80.641 47.355 47.359h21.215l-47.359-47.359zm42.422 0 47.363 47.359h21.215l-47.363-47.359zm42.43 0 29.84 29.84v-21.211l-8.6289-8.6289zm-98.16 7.9062v21.215l18.238 18.238h21.215z"/>
  </g>
 </g>
</svg>
