<?xml version="1.0" encoding="UTF-8"?>
<svg id="svg1524" width="1.3333in" height="1.3333in" version="1.1" viewBox="0 0 33.867 33.867" xmlns="http://www.w3.org/2000/svg" xmlns:cc="http://creativecommons.org/ns#" xmlns:dc="http://purl.org/dc/elements/1.1/" xmlns:rdf="http://www.w3.org/1999/02/22-rdf-syntax-ns#">
 <metadata id="metadata1521">
  <rdf:RDF>
   <cc:Work rdf:about="">
    <dc:format>image/svg+xml</dc:format>
    <dc:type rdf:resource="http://purl.org/dc/dcmitype/StillImage"/>
    <dc:title/>
   </cc:Work>
  </rdf:RDF>
 </metadata>
 <g id="layer1" transform="translate(-67.15 -98.956)">
  <g id="g2121" transform="matrix(1.8094 0 0 1.8069 -90.6 -111.03)" style="stroke-width:.55304">
   <g id="g2179" transform="translate(1.6304 -4.8702)">
    <g id="g1735" transform="matrix(.41503 0 0 .4156 50.045 70.761)" style="stroke-width:1.3316">
     <path id="path28" d="m108.1 121.08c-12.448 0-22.539 10.087-22.549 22.534v-1e-3 17.451c7e-3 2.825 2.2983 5.1142 5.1262 5.1142 7e-3 0 0.018-1e-3 0.0247-1e-3v1e-3h17.406c12.449-7e-3 22.541-10.098 22.541-22.549 0-12.453-10.095-22.549-22.549-22.549z" style="fill:#51a2da"/>
     <path id="path30" d="m112.67 130.36c-3.5168 0-6.623 2.6472-7.0513 6.1214-0.0303 0.29068-0.043 0.50165-0.0441 0.76482v14.199c0 2.7231-2.0341 4.5766-4.5822 4.5766-2.5506 0-4.608-2.0369-4.608-4.5822 0.0427-2.7919 2.2722-4.56 4.8796-4.6369l2.6638-0.0236v-3.7536l-2.642 0.018c-4.7431-0.0445-8.5189 3.671-8.6568 8.3961 0 4.5932 3.78 8.3414 8.3619 8.3414 4.3229 0 7.9213-3.3803 8.3139-7.607l0.0233-5.3852 3.2812-0.0208c2.5411 0.018 2.515-3.8118-0.0261-3.7592l-3.2551 0.0219v-5.7725c6e-3 -1.6676 1.5875-3.139 3.3419-3.139 1.7554 0 3.6075 0.8763 3.6075 3.1432 0 0.32385-8e-3 0.51258-0.0247 0.63112-0.19685 1.0513 0.52246 2.0546 1.5818 2.2063 1.0583 0.15028 2.0299-0.61207 2.1347-1.6757 0.0593-0.42193 0.0635-0.79093 0.0635-1.1617 0-3.9991-3.5761-6.9028-7.3628-6.9028z" style="fill:#fafafa"/>
    </g>
   </g>
  </g>
 </g>
</svg>
