<?xml version="1.0" encoding="UTF-8"?>
<svg width="16px" height="16px" viewBox="0 0 16 16" xmlns="http://www.w3.org/2000/svg">
 <path d="m8 0c-4.4219 0-8 3.5781-8 8s3.5781 8 8 8 8-3.5781 8-8-3.5781-8-8-8zm0 3.875c0.62109 0 1.125 0.50391 1.125 1.125s-0.50391 1.125-1.125 1.125-1.125-0.50391-1.125-1.125 0.50391-1.125 1.125-1.125zm-1.5234 3.125h2.5234v4h0.5c0.27734 0 0.5 0.22266 0.5 0.5s-0.22266 0.5-0.5 0.5h-2.5v-4h-0.5c-0.27734 0-0.5-0.22266-0.5-0.5 0-0.26953 0.21094-0.48828 0.47656-0.5z" fill="#2e3436"/>
</svg>
