<?xml version="1.0" encoding="UTF-8"?>
<svg width="16px" height="16px" viewBox="0 0 16 16" xmlns="http://www.w3.org/2000/svg">
 <path d="m7.9883 0.0078125c-0.42969 0-0.8125 0.27344-0.94922 0.68359l-1.4492 4.3398-4.5898-0.015625c-0.98047-0.003906-1.3828 1.2578-0.58203 1.8203l3.625 2.5547-1.5 4.2852c-0.31641 0.90234 0.6875 1.6914 1.4922 1.1719l4.0039-2.5938 3.8945 2.5859c0.80078 0.53125 1.8164-0.25781 1.5-1.1602l-1.5039-4.2891 3.6445-2.5781c0.78906-0.5625 0.39453-1.8086-0.57422-1.8125l-4.6602-0.015625-1.4023-4.2852c-0.13281-0.41016-0.51562-0.6875-0.94922-0.69141z" fill="#2e3436"/>
</svg>
