<?xml version="1.0" encoding="UTF-8"?>
<svg width="16px" height="16px" viewBox="0 0 16 16" xmlns="http://www.w3.org/2000/svg">
 <path d="m8 0c-0.82812 0-1.5 0.67188-1.5 1.5 0 0.078125 0.007812 0.15234 0.019531 0.23047-2.0898 0.64844-3.5156 2.582-3.5195 4.7695v4.5h-0.5c-0.55469 0-1 0.44531-1 1s0.44531 1 1 1h11c0.55469 0 1-0.44531 1-1s-0.44531-1-1-1h-0.5v-4.5c0-2.1914-1.4258-4.125-3.5156-4.7773 0.007813-0.074218 0.015625-0.14844 0.015625-0.22266 0-0.82812-0.67188-1.5-1.5-1.5zm-2 14c0 0.71484 0.38281 1.375 1 1.7305 0.61719 0.35938 1.3828 0.35938 2 0 0.61719-0.35547 1-1.0156 1-1.7305z" fill="#2e3436"/>
</svg>
