<?xml version="1.0" encoding="UTF-8"?>
<svg width="16px" height="16px" viewBox="0 0 16 16" xmlns="http://www.w3.org/2000/svg">
 <path d="m6 0c-1.6445 0-3 1.3555-3 3v10c0 1.6445 1.3555 3 3 3h4c1.6445 0 3-1.3555 3-3v-10c0-1.6445-1.3555-3-3-3zm0 2h4c0.57031 0 1 0.42969 1 1v10c0 0.57031-0.42969 1-1 1h-4c-0.57031 0-1-0.42969-1-1v-10c0-0.57031 0.42969-1 1-1zm-5 1c-0.55469 0-1 0.44531-1 1v8c0 0.55469 0.44531 1 1 1s1-0.44531 1-1v-8c0-0.55469-0.44531-1-1-1zm14 0c-0.55469 0-1 0.44531-1 1v8c0 0.55469 0.44531 1 1 1s1-0.44531 1-1v-8c0-0.55469-0.44531-1-1-1z" fill="#2e3436"/>
</svg>
