<?xml version="1.0" encoding="UTF-8"?>
<svg width="16px" height="16px" viewBox="0 0 16 16" xmlns="http://www.w3.org/2000/svg">
 <path d="m5 0c-1 0-1 1-1 1v1h-1s-0.70703-0.015625-1.4492 0.35547c-0.73828 0.37109-1.5508 1.3125-1.5508 2.6445v8s-0.015625 0.70703 0.35547 1.4492c0.36719 0.73828 1.3125 1.5508 2.6445 1.5508h3c0.55078 0 1-0.44922 1-1s-0.44922-1-1-1h-3c-0.55469 0-1-0.44531-1-1v-8c0-0.55469 0.44531-1 1-1h6c0.55469 0 1 0.44531 1 1h2c0-1.332-0.8125-2.2734-1.5547-2.6445-0.73828-0.37109-1.4453-0.35547-1.4453-0.35547h-1v-1c0-1-1-1-1-1zm5 6c-1.9336 0.27734-2.7227 2.8984-3 4h-2c-0.55078 0-1 0.44922-1 1s0.44922 1 1 1h2c0.27734 1.1016 1.0664 3.7227 3 4h2s1 0 1-1v-1h3v-2h-3v-2h3v-2h-3v-1s0-1-1-1z" fill="#2e3434"/>
</svg>
