<?xml version="1.0" encoding="UTF-8"?>
<svg width="16px" height="16px" viewBox="0 0 16 16" xmlns="http://www.w3.org/2000/svg">
 <g fill="#2e3436">
  <path d="m4 2v1h8v-1c0-0.55078-0.44922-1-1-1h-6c-0.55078 0-1 0.44922-1 1z"/>
  <path d="m4 8c-1.0898 0-2 0.91016-2 2v3c0 1.0898 0.91016 2 2 2h8c1.0898 0 2-0.91016 2-2v-3c0-1.0898-0.91016-2-2-2zm0 2h8v3h-8z"/>
  <path d="m2 4c-1.1094 0-2 0.89062-2 2v4c0 1.1094 0.89062 2 2 2h1v-2c0-0.55469 0.44531-1 1-1h8c0.55469 0 1 0.44531 1 1v2h1c1.1094 0 2-0.89062 2-2v-4c0-1.1094-0.89062-2-2-2z"/>
 </g>
</svg>
