<?xml version="1.0" encoding="UTF-8"?>
<svg width="16px" height="16px" viewBox="0 0 16 16" xmlns="http://www.w3.org/2000/svg">
 <path d="m2 0c-1.0898 0-2 0.91016-2 2v3c0 1.0898 0.91016 2 2 2h3c1.0898 0 2-0.91016 2-2v-3c0-1.0898-0.91016-2-2-2zm8 0c-1.0898 0-2 0.91016-2 2v3c0 1.0898 0.91016 2 2 2h3c1.0898 0 2-0.91016 2-2v-3c0-1.0898-0.91016-2-2-2zm-8 2h3v3h-3zm8 0h3v3h-3zm-8 6c-1.0898 0-2 0.91016-2 2v3c0 1.0898 0.91016 2 2 2h3c1.0898 0 2-0.91016 2-2v-3c0-1.0898-0.91016-2-2-2zm8 0c-1.0898 0-2 0.91016-2 2v3c0 1.0898 0.91016 2 2 2h3c1.0898 0 2-0.91016 2-2v-3c0-1.0898-0.91016-2-2-2zm-8 2h3v3h-3zm8 0h3v3h-3z" fill="#2e3436"/>
</svg>
