<?xml version="1.0" encoding="UTF-8"?>
<svg width="16px" height="16px" viewBox="0 0 16 16" xmlns="http://www.w3.org/2000/svg">
 <path d="m7.5859 0.089844c-0.35547 0.16406-0.58594 0.51953-0.58594 0.91016v5.2969l-2.3438-2.0469c-0.41406-0.36328-1.043-0.32422-1.4062 0.089844-0.36328 0.41797-0.32422 1.0469 0.09375 1.4102l2.5664 2.25-2.5664 2.25c-0.41797 0.36328-0.45703 0.99219-0.09375 1.4062 0.36328 0.41797 0.99219 0.45703 1.4062 0.09375l2.3438-2.0469v5.2969c0 0.39062 0.23047 0.74609 0.58594 0.91016 0.35937 0.16016 0.77734 0.10156 1.0703-0.16016l4-3.5c0.21875-0.1875 0.34375-0.46094 0.34375-0.75s-0.125-0.5625-0.34375-0.75l-3.1406-2.75 3.1406-2.75c0.21875-0.1875 0.34375-0.46094 0.34375-0.75s-0.125-0.5625-0.34375-0.75l-4-3.5c-0.29297-0.26172-0.71094-0.32422-1.0703-0.16016zm1.4141 3.1133 1.4844 1.2969-1.4844 1.2969zm0 7 1.4844 1.2969-1.4844 1.2969z" fill="#2e3436"/>
</svg>
