<?xml version="1.0" encoding="UTF-8"?>
<svg width="16px" height="16px" viewBox="0 0 16 16" xmlns="http://www.w3.org/2000/svg">
 <path d="m8 1c-2.7617 0-5 2.2383-5 5 0 0.17188 0.015625 0.33203 0.03125 0.5s0.035156 0.33594 0.0625 0.5c0.57031 3.5117 2.9062 6.0039 4.9062 8.0039 2-2 4.3359-4.4883 4.9062-8.0039 0.027344-0.16406 0.050781-0.33203 0.0625-0.5 0.015625-0.16797 0.03125-0.32812 0.03125-0.5 0-2.7617-2.2383-5-5-5zm0 3c1.1055 0 2 0.89453 2 2s-0.89453 2-2 2-2-0.89453-2-2 0.89453-2 2-2z" fill="#2e3436"/>
</svg>
