<?xml version="1.0" encoding="UTF-8"?>
<svg width="16px" height="16px" viewBox="0 0 16 16" xmlns="http://www.w3.org/2000/svg">
 <path d="m6.4141 0c-0.26562 0-0.51953 0.10547-0.70703 0.29297l-1.707 1.707h-1.0859c-1.6445 0-3 1.3555-3 3v7c0 1.6445 1.3555 3 3 3h10c1.6445 0 3-1.3555 3-3v-7c0-1.6445-1.3555-3-3-3h-1.0859l-1.707-1.707c-0.1875-0.1875-0.44141-0.29297-0.70703-0.29297zm0.41406 2h2.1719l1.707 1.707c0.1875 0.1875 0.44141 0.29297 0.70703 0.29297h1.5c0.57031 0 1 0.42969 1 1v7c0 0.57031-0.42969 1-1 1h-10c-0.57031 0-1-0.42969-1-1v-7c0-0.57031 0.42969-1 1-1h1.5c0.26563 0 0.51953-0.10547 0.70703-0.29297zm1.0859 3c-1.6445 0-3 1.3555-3 3s1.5859 3 3 3c1.4141 0 3-1.3555 3-3s-1.3555-3-3-3zm0 2c0.5625 0 1 0.4375 1 1s-0.4375 1-1 1-1-0.4375-1-1 0.4375-1 1-1z" fill="#2e3434"/>
</svg>
