<?xml version="1.0" encoding="UTF-8"?>
<svg width="16px" height="16px" viewBox="0 0 16 16" xmlns="http://www.w3.org/2000/svg">
 <path d="m4 0c-1.6445 0-3 1.3555-3 3v9c0 1.6445 1.3555 3 3 3h8c1.6445 0 3-1.3555 3-3v-9c0-1.6445-1.3555-3-3-3zm0 2h8c0.57031 0 1 0.42969 1 1v4h-10v-4c0-0.57031 0.42969-1 1-1zm2.4648 1.4297c-0.019532 0-0.039063 0.003906-0.058594 0.007812h-0.0625c-0.21484 0.070312-0.35547 0.27344-0.34375 0.5v0.0625c0 0.54688 0.45312 1 1 1h2c0.54688 0 1-0.45312 1-1v-0.0625c0.011719-0.67578-1.0117-0.67578-1 0v0.0625h-2v-0.0625c0.003906-0.29688-0.24609-0.52734-0.53516-0.50781zm-3.4648 4.5703h10v4c0 0.57031-0.42969 1-1 1h-8c-0.57031 0-1-0.42969-1-1zm3.4648 1.4297c-0.019532 0-0.039063 0.003906-0.058594 0.007812h-0.0625c-0.21484 0.070312-0.35547 0.27344-0.34375 0.5v0.0625c0 0.54688 0.45312 1 1 1h2c0.54688 0 1-0.45312 1-1v-0.0625c0.011719-0.67578-1.0117-0.67578-1 0v0.0625h-2v-0.0625c0.003906-0.29688-0.24609-0.52734-0.53516-0.50781z" fill="#222" fill-rule="evenodd"/>
</svg>
