<?xml version="1.0" encoding="UTF-8"?>
<svg id="svg11300" width="128" height="128" style="enable-background:new" version="1.0" viewBox="0 0 128 128" xmlns="http://www.w3.org/2000/svg" xmlns:cc="http://creativecommons.org/ns#" xmlns:dc="http://purl.org/dc/elements/1.1/" xmlns:rdf="http://www.w3.org/1999/02/22-rdf-syntax-ns#" xmlns:xlink="http://www.w3.org/1999/xlink">
 <title id="title4162">Adwaita Icon Template</title>
 <defs id="defs3">
  <linearGradient id="linearGradient990" x1="64" x2="64" y1="202.38" y2="444.5" gradientUnits="userSpaceOnUse">
   <stop id="stop984" style="stop-color:#a347ba" offset="0"/>
   <stop id="stop986" style="stop-color:#c061cb" offset="1"/>
  </linearGradient>
  <linearGradient id="linearGradient1053" x1="384" x2="416" y1="120" y2="120" gradientTransform="matrix(.25 0 0 .25 12 221)" gradientUnits="userSpaceOnUse">
   <stop id="stop1873" style="stop-color:#e8e7e4" offset="0"/>
   <stop id="stop1875" style="stop-color:#fff" offset=".51105"/>
   <stop id="stop1877" style="stop-color:#c2bfba" offset="1"/>
  </linearGradient>
 </defs>
 <metadata id="metadata4">
  <rdf:RDF>
   <cc:Work rdf:about="">
    <dc:format>image/svg+xml</dc:format>
    <dc:type rdf:resource="http://purl.org/dc/dcmitype/StillImage"/>
    <dc:creator>
     <cc:Agent>
      <dc:title>GNOME Design Team</dc:title>
     </cc:Agent>
    </dc:creator>
    <dc:source/>
    <cc:license rdf:resource="http://creativecommons.org/licenses/by-sa/4.0/"/>
    <dc:title>Adwaita Icon Template</dc:title>
    <dc:subject>
     <rdf:Bag/>
    </dc:subject>
    <dc:date/>
    <dc:rights>
     <cc:Agent>
      <dc:title/>
     </cc:Agent>
    </dc:rights>
    <dc:publisher>
     <cc:Agent>
      <dc:title/>
     </cc:Agent>
    </dc:publisher>
    <dc:identifier/>
    <dc:relation/>
    <dc:language/>
    <dc:coverage/>
    <dc:description/>
    <dc:contributor>
     <cc:Agent>
      <dc:title/>
     </cc:Agent>
    </dc:contributor>
   </cc:Work>
   <cc:License rdf:about="http://creativecommons.org/licenses/by-sa/4.0/">
    <cc:permits rdf:resource="http://creativecommons.org/ns#Reproduction"/>
    <cc:permits rdf:resource="http://creativecommons.org/ns#Distribution"/>
    <cc:requires rdf:resource="http://creativecommons.org/ns#Notice"/>
    <cc:requires rdf:resource="http://creativecommons.org/ns#Attribution"/>
    <cc:permits rdf:resource="http://creativecommons.org/ns#DerivativeWorks"/>
    <cc:requires rdf:resource="http://creativecommons.org/ns#ShareAlike"/>
   </cc:License>
  </rdf:RDF>
 </metadata>
 <g id="layer1" transform="translate(0,-172)">
  <g id="layer9">
   <path id="rect970" d="m12 204v84h96c4.432 0 8-3.568 8-8v-68c0-4.432-3.568-8-8-8z" style="enable-background:new;fill:#813d9c"/>
   <path id="rect954-3-6" d="m14 216v70h94c4.432 0 8-3.568 8-8v-54c0-4.432-3.568-8-8-8z" style="enable-background:new;fill:url(#linearGradient1053);paint-order:normal"/>
   <path id="rect970-5-3" d="m12 186v94h96c4.432 0 8-3.568 8-8v-78c0-4.432-3.568-8-8-8z" style="enable-background:new;fill:#813d9c"/>
   <path id="rect970-5" d="m12 184v94h96c4.432 0 8-3.568 8-8v-78c0-4.432-3.568-8-8-8z" style="enable-background:new;fill:url(#linearGradient990)"/>
   <g id="g1059" transform="matrix(.14062 0 0 .14062 -29.233 12.3)" style="fill:#813d9c;font-feature-settings:normal;font-variant-caps:normal;font-variant-ligatures:normal;font-variant-numeric:normal" aria-label="a">
    <path id="path1057" d="m812.2 1309.8c-27.701 0-55.724 7.4083-74.728 20.937l18.038 35.109c12.562-9.9852 31.566-16.105 49.926-16.105 27.057 0 42.192 14.417 42.192 35.998l-50.01-0.2354c-52.824-0.2486-74.402 26.624-74.402 57.224 0 29.956 22.046 51.658 62.631 51.658 25.446 0 52.44-7.5298 61.781-23.313l3e-3 21.343 53.33-0.01-6e-3 -104.01c-3e-3 -52.503-35.93-78.592-88.755-78.592zm-11.68 151.61c-17.716 0-28.345-8.3747-28.345-20.937 0-11.596 7.4055-23.12 30.918-22.969l44.534 0.2354 3e-3 16.15c3e-3 16.814-30.362 27.521-47.111 27.521z" style="fill:#813d9c"/>
   </g>
   <g id="g1063" transform="translate(2.6941 -3.9239)" style="fill:#813d9c" aria-label="a">
    <path id="path1061" d="m55.306 221.92c-0.94497 0.77446-1.612 1.0511-2.4458 1.0511-1.2785 0-1.6676-0.77447-1.6676-3.2085v-10.787c0-2.8766-0.27794-4.4808-1.1117-5.8085-1.2229-1.9915-4.5733-3.0426-7.8529-3.0426-5.2252 0-9.3386 2.7106-9.3386 6.1958 0 1.2723 1.0562 2.3787 2.3902 2.3787 1.3341 0 2.5014-1.1064 2.5014-2.3234 0-0.22127-0.05563-0.49787-0.11118-0.8851-0.11118-0.49787-0.16676-0.94042-0.16676-1.3277 0-1.4936 1.7788-2.7106 4.0023-2.7106 2.7238 0 4.6727 1.6042 4.6727 4.5915v4.3986c-7.6558 2.2488-9.9535 2.8482-12.344 4.9503-1.2229 1.1064-2.0011 2.9872-2.0011 4.8128 0 3.4851 2.4458 5.9192 5.8366 5.9192 2.4458 0 5.173-1.1617 8.5638-4.0383 0.27794 2.9319 1.7906 4.0383 4.0697 4.0383 1.89 0 3.0573-0.66383 5.0028-2.766zm-9.1281-3.1532c0 1.6596-0.27794 2.2681-1.4453 2.9319-1.3897 0.77448-3.3386 1.217-4.5059 1.217-1.9456 0-3.502-1.8808-3.502-4.2596v-0.22127c0.05563-3.3192 2.9495-4.3971 9.4532-6.6652z" style="fill:#813d9c;stroke-width:1.3863px"/>
   </g>
   <path id="path1065" d="m86.313 236.67c-0.91395-0.0795-2.0663 0.23842-3.4571 0.95369-1.3908 0.71527-2.8015 1.7882-4.232 3.2187-1.4305 1.3908-2.7617 3.0796-3.9936 5.0665-1.1921 1.9869-2.0663 4.1923-2.6226 6.6162-0.43711 1.7882-0.59606 3.3379-0.47685 4.6492 0.11921 1.2716 0.39737 2.3246 0.83448 3.1591 0.43711 0.79475 0.97356 1.3709 1.6094 1.7286 0.63579 0.39738 1.2319 0.59606 1.7882 0.59606 1.1921-0.0795 2.3842-0.33776 3.5763-0.77488 1.0332-0.39736 2.1259-1.0133 3.2783-1.8478 1.1524-0.87422 2.2054-2.1061 3.1591-3.6956-0.03974 1.0729 0.01987 1.967 0.17882 2.6822 0.19868 0.71527 0.39737 1.2914 0.59606 1.7286 0.23842 0.51658 0.53645 0.91394 0.89408 1.1921 0.35763 0.23845 0.77487 0.3974 1.2517 0.47685 0.47684 0.11922 0.97356 0.15898 1.4901 0.11921 0.55631-0.0398 1.0928-0.13908 1.6093-0.29804 0.51659-0.15894 0.97357-0.35763 1.3709-0.59605 0.59606-0.39736 1.3312-1.0729 2.2054-2.0266 0.91395-0.99342 1.8279-2.0663 2.7419-3.2187 0.95369-1.1921 1.8676-2.3644 2.7419-3.5167 0.87421-1.1921 1.5895-2.1855 2.1458-2.9803 0.47687-0.63579 0.75503-1.1921 0.83449-1.669 0.11917-0.47683 0.0993-0.83448-0.0596-1.0729-0.15895-0.23839-0.39737-0.31787-0.71528-0.23842-0.31789 0.0398-0.63578 0.23844-0.95369 0.59607-0.23843 0.31789-0.63578 0.81461-1.1921 1.4901-0.51659 0.67554-1.1126 1.4504-1.7882 2.3246-0.67553 0.87421-1.4107 1.7882-2.2054 2.7419-0.75501 0.91394-1.4901 1.7683-2.2054 2.563-0.71527 0.75501-1.3908 1.3908-2.0266 1.9074-0.63579 0.47685-1.1524 0.71527-1.5497 0.71527-0.47685 0-0.85435-0.0993-1.1325-0.29802-0.23843-0.23842-0.41724-0.53645-0.53645-0.89409-0.11922-0.35763-0.19869-0.73514-0.23842-1.1325 0-0.43712 0.01987-0.83448 0.05961-1.1921 0.1192-0.59605 0.21855-1.0928 0.29803-1.4901 0.07952-0.39736 0.13909-0.73514 0.17881-1.0133 0.07952-0.31791 0.13909-0.61593 0.17883-0.89409 0.07941-0.31789 0.15894-0.65566 0.23842-1.0133 0.39737-1.8279 0.71527-3.318 0.95369-4.4704 0.23842-1.1524 0.41724-2.0663 0.53644-2.7419 0.11922-0.67552 0.17883-1.1325 0.17883-1.3709 0-0.27819-0.01982-0.457-0.05958-0.53645-0.07952-0.0398-0.23842-0.0596-0.47684-0.0596-0.19868 0-0.49671 0.0198-0.89409 0.0596-0.35763 0.0398-0.81461 0.11921-1.3709 0.23842 0.83449-1.2716 1.1524-2.2849 0.9537-3.0399-0.15896-0.79474-0.51659-1.3908-1.0729-1.7882-0.67553-0.4371-1.5497-0.75501-2.6226-0.95369zm-1.4037 3.7283c0.1515 8e-3 0.28114 0.0567 0.39042 0.14604 0.11921 0.15896 0.19869 0.37751 0.23842 0.65566 0.03975 0.23842 0.01987 0.57618-0.05961 1.0133-0.03974 0.39736-0.21856 0.91395-0.53645 1.5498 0.3179-0.0794 0.63579-0.13905 0.95369-0.17882 0.3179-0.0398 0.57619-0.0993 0.77487-0.17882 0.23842-0.0794 0.45698-0.13904 0.65566-0.17882 0.15895-0.0397 0.17882 0.27817 0.05961 0.95369-0.07947 0.6358-0.21855 1.4504-0.41724 2.4438-0.19869 0.99344-0.43711 2.0266-0.71527 3.0995-0.27816 1.0729-0.51658 2.0067-0.71527 2.8015-0.03974 0.19868-0.21855 0.51657-0.53645 0.95369-0.27816 0.43711-0.65566 0.91395-1.1325 1.4305-0.43711 0.51658-0.95369 1.0133-1.5497 1.4901-0.55632 0.47685-1.1325 0.87422-1.7286 1.1921-0.55632 0.27813-1.1126 0.43707-1.669 0.47685-0.55632 0-1.053-0.21856-1.4901-0.65566-0.23842-0.23843-0.39736-0.73513-0.47684-1.4901-0.07947-0.79474-0.05961-1.7087 0.05961-2.7419 0.15895-1.0332 0.41724-2.1259 0.77487-3.2783 0.35764-1.1921 0.83448-2.3048 1.4305-3.3379 1.4305-2.5034 2.6823-4.2121 3.7552-5.1261 0.83448-0.71526 1.4797-1.0625 1.9342-1.0401z" style="fill:#813d9c"/>
   <g id="g1069" transform="translate(1.7969 -1.9239)" style="fill:#813d9c">
    <path id="path1067" transform="translate(0,172)" d="m37 68c-2.7046-0.03825-2.7046 4.0382 0 4h9.8809c0.01107 1e-3 0.28563 0.0327 0.58594 0.19727 0.3063 0.16789 0.4859 0.18834 0.53711 0.93945v-0.01953l0.24609 5.1934c-0.46068-0.17644-0.76953-0.25195-0.76953-0.25195l-0.23633-0.058594h-9.2441c-4.3333 0-5.8965 4.3672-5.8965 4.3672l-0.10352 0.30859v2.3242c0 3.0333 1.4313 5.1277 2.9395 6.0703s3.0605 0.92969 3.0605 0.92969h7.5918l3.3926-2.2031 0.01953 0.32031c0.08969 2.7353 4.2232 2.4927 3.9922-0.23438l-1-17.01v-0.0098c-0.14082-2.0653-1.4617-3.5458-2.6074-4.1738-1.1457-0.62799-2.2578-0.68555-2.2578-0.68555l-0.066405-0.003872zm1 14h8.6445c0.10691 0.0312 0.52526 0.14131 1.0371 0.48242 0.55852 0.37221 0.87783 0.68942 0.89453 1.3555l0.13867 1.3633-4.3066 2.7988h-6.4082s-0.44762-0.0129-0.93945-0.32031c-0.49184-0.3074-1.0605-0.71302-1.0605-2.6797v-1.5645c0.10285-0.30497 0.53476-1.4355 2-1.4355z" style="color-rendering:auto;color:#000000;dominant-baseline:auto;enable-background:accumulate;fill-rule:evenodd;fill:#813d9c;font-feature-settings:normal;font-variant-alternates:normal;font-variant-caps:normal;font-variant-ligatures:normal;font-variant-numeric:normal;font-variant-position:normal;image-rendering:auto;isolation:auto;mix-blend-mode:normal;shape-padding:0;shape-rendering:auto;solid-color:#000000;text-decoration-color:#000000;text-decoration-line:none;text-decoration-style:solid;text-indent:0;text-orientation:mixed;text-transform:none;white-space:normal"/>
   </g>
   <rect id="rect1073" x="12" y="184" width="8" height="94" style="fill:#3d3846"/>
   <g id="g985" transform="matrix(.14062 0 0 .14062 -29.233 14.3)" style="fill:#fff;font-feature-settings:normal;font-variant-caps:normal;font-variant-ligatures:normal;font-variant-numeric:normal" aria-label="a">
    <path id="path983" d="m812.2 1309.8c-27.701 0-55.724 7.4083-74.728 20.937l18.038 35.109c12.562-9.9852 31.566-16.105 49.926-16.105 27.057 0 42.192 14.417 42.192 35.998l-50.01-0.2354c-52.824-0.2486-74.402 26.624-74.402 57.224 0 29.956 22.046 51.658 62.631 51.658 25.446 0 52.44-7.5298 61.781-23.313l3e-3 21.343 53.33-0.01-6e-3 -104.01c-3e-3 -52.503-35.93-78.592-88.755-78.592zm-11.68 151.61c-17.716 0-28.345-8.3747-28.345-20.937 0-11.596 7.4055-23.12 30.918-22.969l44.534 0.2354 3e-3 16.15c3e-3 16.814-30.362 27.521-47.111 27.521z" style="fill:#fff"/>
   </g>
   <g id="text993" transform="translate(2.6941 -1.9239)" aria-label="a">
    <path id="path995" d="m55.306 221.92c-0.94497 0.77446-1.612 1.0511-2.4458 1.0511-1.2785 0-1.6676-0.77447-1.6676-3.2085v-10.787c0-2.8766-0.27794-4.4808-1.1117-5.8085-1.2229-1.9915-4.5733-3.0426-7.8529-3.0426-5.2252 0-9.3386 2.7106-9.3386 6.1958 0 1.2723 1.0562 2.3787 2.3902 2.3787 1.3341 0 2.5014-1.1064 2.5014-2.3234 0-0.22127-0.05563-0.49787-0.11118-0.8851-0.11118-0.49787-0.16676-0.94042-0.16676-1.3277 0-1.4936 1.7788-2.7106 4.0023-2.7106 2.7238 0 4.6727 1.6042 4.6727 4.5915v4.3986c-7.6558 2.2488-9.9535 2.8482-12.344 4.9503-1.2229 1.1064-2.0011 2.9872-2.0011 4.8128 0 3.4851 2.4458 5.9192 5.8366 5.9192 2.4458 0 5.173-1.1617 8.5638-4.0383 0.27794 2.9319 1.7906 4.0383 4.0697 4.0383 1.89 0 3.0573-0.66383 5.0028-2.766zm-9.1281-3.1532c0 1.6596-0.27794 2.2681-1.4453 2.9319-1.3897 0.77448-3.3386 1.217-4.5059 1.217-1.9456 0-3.502-1.8808-3.502-4.2596v-0.22127c0.05563-3.3192 2.9495-4.3971 9.4532-6.6652z" style="fill:#fff;stroke-width:1.3863px"/>
   </g>
   <path id="path1011" d="m86.313 238.67c-0.91395-0.0795-2.0663 0.23842-3.4571 0.95369-1.3908 0.71527-2.8015 1.7882-4.232 3.2187-1.4305 1.3908-2.7617 3.0796-3.9936 5.0665-1.1921 1.9869-2.0663 4.1923-2.6226 6.6162-0.43711 1.7882-0.59606 3.3379-0.47685 4.6492 0.11921 1.2716 0.39737 2.3246 0.83448 3.1591 0.43711 0.79475 0.97356 1.3709 1.6094 1.7286 0.63579 0.39738 1.2319 0.59606 1.7882 0.59606 1.1921-0.0795 2.3842-0.33776 3.5763-0.77488 1.0332-0.39736 2.1259-1.0133 3.2783-1.8478 1.1524-0.87422 2.2054-2.1061 3.1591-3.6956-0.03974 1.0729 0.01987 1.967 0.17882 2.6822 0.19868 0.71527 0.39737 1.2914 0.59606 1.7286 0.23842 0.51658 0.53645 0.91394 0.89408 1.1921 0.35763 0.23845 0.77487 0.3974 1.2517 0.47685 0.47684 0.11922 0.97356 0.15898 1.4901 0.11921 0.55631-0.0398 1.0928-0.13908 1.6093-0.29804 0.51659-0.15894 0.97357-0.35763 1.3709-0.59605 0.59606-0.39736 1.3312-1.0729 2.2054-2.0266 0.91395-0.99342 1.8279-2.0663 2.7419-3.2187 0.95369-1.1921 1.8676-2.3644 2.7419-3.5167 0.87421-1.1921 1.5895-2.1855 2.1458-2.9803 0.47687-0.63579 0.75503-1.1921 0.83449-1.669 0.11917-0.47683 0.0993-0.83448-0.0596-1.0729-0.15895-0.23839-0.39737-0.31787-0.71528-0.23842-0.31789 0.0398-0.63578 0.23844-0.95369 0.59607-0.23843 0.31789-0.63578 0.81461-1.1921 1.4901-0.51659 0.67554-1.1126 1.4504-1.7882 2.3246-0.67553 0.87421-1.4107 1.7882-2.2054 2.7419-0.75501 0.91394-1.4901 1.7683-2.2054 2.563-0.71527 0.75501-1.3908 1.3908-2.0266 1.9074-0.63579 0.47685-1.1524 0.71527-1.5497 0.71527-0.47685 0-0.85435-0.0993-1.1325-0.29802-0.23843-0.23842-0.41724-0.53645-0.53645-0.89409-0.11922-0.35763-0.19869-0.73514-0.23842-1.1325 0-0.43712 0.01987-0.83448 0.05961-1.1921 0.1192-0.59605 0.21855-1.0928 0.29803-1.4901 0.07952-0.39736 0.13909-0.73514 0.17881-1.0133 0.07952-0.31791 0.13909-0.61593 0.17883-0.89409 0.07941-0.31789 0.15894-0.65566 0.23842-1.0133 0.39737-1.8279 0.71527-3.318 0.95369-4.4704 0.23842-1.1524 0.41724-2.0663 0.53644-2.7419 0.11922-0.67552 0.17883-1.1325 0.17883-1.3709 0-0.27819-0.01982-0.457-0.05958-0.53645-0.07952-0.0398-0.23842-0.0596-0.47684-0.0596-0.19868 0-0.49671 0.0198-0.89409 0.0596-0.35763 0.0398-0.81461 0.11921-1.3709 0.23842 0.83449-1.2716 1.1524-2.2849 0.9537-3.0399-0.15896-0.79474-0.51659-1.3908-1.0729-1.7882-0.67553-0.4371-1.5497-0.75501-2.6226-0.95369zm-1.4037 3.7283c0.1515 8e-3 0.28114 0.0567 0.39042 0.14604 0.11921 0.15896 0.19869 0.37751 0.23842 0.65566 0.03975 0.23842 0.01987 0.57618-0.05961 1.0133-0.03974 0.39736-0.21856 0.91395-0.53645 1.5498 0.3179-0.0794 0.63579-0.13905 0.95369-0.17882 0.3179-0.0398 0.57619-0.0993 0.77487-0.17882 0.23842-0.0794 0.45698-0.13904 0.65566-0.17882 0.15895-0.0397 0.17882 0.27817 0.05961 0.95369-0.07947 0.6358-0.21855 1.4504-0.41724 2.4438-0.19869 0.99344-0.43711 2.0266-0.71527 3.0995-0.27816 1.0729-0.51658 2.0067-0.71527 2.8015-0.03974 0.19868-0.21855 0.51657-0.53645 0.95369-0.27816 0.43711-0.65566 0.91395-1.1325 1.4305-0.43711 0.51658-0.95369 1.0133-1.5497 1.4901-0.55632 0.47685-1.1325 0.87422-1.7286 1.1921-0.55632 0.27813-1.1126 0.43707-1.669 0.47685-0.55632 0-1.053-0.21856-1.4901-0.65566-0.23842-0.23843-0.39736-0.73513-0.47684-1.4901-0.07947-0.79474-0.05961-1.7087 0.05961-2.7419 0.15895-1.0332 0.41724-2.1259 0.77487-3.2783 0.35764-1.1921 0.83448-2.3048 1.4305-3.3379 1.4305-2.5034 2.6823-4.2121 3.7552-5.1261 0.83448-0.71526 1.4797-1.0625 1.9342-1.0401z" style="fill:#fff"/>
   <g id="g1022" transform="translate(1.7969 .07613)">
    <path id="path1016" transform="translate(0,172)" d="m37 68c-2.7046-0.03825-2.7046 4.0382 0 4h9.8809c0.01107 1e-3 0.28563 0.0327 0.58594 0.19727 0.3063 0.16789 0.4859 0.18834 0.53711 0.93945v-0.01953l0.24609 5.1934c-0.46068-0.17644-0.76953-0.25195-0.76953-0.25195l-0.23633-0.058594h-9.2441c-4.3333 0-5.8965 4.3672-5.8965 4.3672l-0.10352 0.30859v2.3242c0 3.0333 1.4313 5.1277 2.9395 6.0703s3.0605 0.92969 3.0605 0.92969h7.5918l3.3926-2.2031 0.01953 0.32031c0.08969 2.7353 4.2232 2.4927 3.9922-0.23438l-1-17.01v-0.0098c-0.14082-2.0653-1.4617-3.5458-2.6074-4.1738-1.1457-0.62799-2.2578-0.68555-2.2578-0.68555l-0.066405-0.003872zm1 14h8.6445c0.10691 0.0312 0.52526 0.14131 1.0371 0.48242 0.55852 0.37221 0.87783 0.68942 0.89453 1.3555l0.13867 1.3633-4.3066 2.7988h-6.4082s-0.44762-0.0129-0.93945-0.32031c-0.49184-0.3074-1.0605-0.71302-1.0605-2.6797v-1.5645c0.10285-0.30497 0.53476-1.4355 2-1.4355z" style="color-rendering:auto;color:#000000;dominant-baseline:auto;enable-background:accumulate;fill-rule:evenodd;fill:#fff;font-feature-settings:normal;font-variant-alternates:normal;font-variant-caps:normal;font-variant-ligatures:normal;font-variant-numeric:normal;font-variant-position:normal;image-rendering:auto;isolation:auto;mix-blend-mode:normal;shape-padding:0;shape-rendering:auto;solid-color:#000000;text-decoration-color:#000000;text-decoration-line:none;text-decoration-style:solid;text-indent:0;text-orientation:mixed;text-transform:none;white-space:normal"/>
   </g>
   <path id="rect1201" transform="translate(0,172)" d="m12 106v10h8v-2h-6v-6h6v-2z" style="fill:#241f31"/>
   <path id="path1217" d="m15 278v-94" style="fill:none;opacity:.15;stroke-width:2;stroke:#fff"/>
  </g>
 </g>
</svg>
