<?xml version="1.0" encoding="UTF-8"?>
<svg width="16px" height="16px" viewBox="0 0 16 16" xmlns="http://www.w3.org/2000/svg">
 <path d="m7.6641 0.0078125c-2.6133 0.10938-5.0039 1.4883-6.4102 3.6953-1.9062 3-1.6094 6.8984 0.73438 9.5742 2.3477 2.668 6.1758 3.4727 9.3984 1.9688 0.5-0.23438 0.71484-0.82812 0.48438-1.3281-0.23438-0.5-0.82812-0.71875-1.332-0.48438-2.4141 1.1328-5.2891 0.53125-7.0469-1.4766-1.7617-2.0039-1.9883-4.9336-0.55078-7.1797 1.4297-2.2539 4.1758-3.2891 6.7383-2.5391 2.5625 0.74609 4.3242 3.0938 4.3203 5.7617v1c0 0.35938-0.1875 0.68359-0.5 0.86328-0.30859 0.17969-0.6875 0.17969-1 0-0.30859-0.17578-0.5-0.50781-0.5-0.86328v-1c0-2.1992-1.8008-4-4-4-2.1953 0-4 1.8008-4 4 0 2.1953 1.8047 4 4 4 1.0469 0 1.9922-0.41797 2.707-1.0781 0.22266 0.26562 0.48438 0.49609 0.79297 0.67578 0.92969 0.53516 2.0742 0.53516 3 0 0.92969-0.53906 1.5-1.5273 1.5-2.5977v-1c0-3.5586-2.3477-6.6836-5.7617-7.6836-0.83594-0.24219-1.7031-0.34766-2.5742-0.30859zm0.33594 5.9922c1.1172 0 2 0.88281 2 2 0 1.1133-0.88281 2-2 2-1.1133 0-2-0.88672-2-2 0-1.1172 0.88672-2 2-2z" fill="#2e3436"/>
</svg>
