<?xml version="1.0" encoding="UTF-8"?>
<svg width="16px" height="16px" viewBox="0 0 16 16" xmlns="http://www.w3.org/2000/svg">
 <g fill="#2e3436">
  <path d="m3.0117 1c-1.6445 0-3 1.3555-3 3v6c0 1.6445 1.3555 3 3 3h1.9883v-2h-1.9883c-0.57031 0-1-0.42969-1-1v-6c0-0.57031 0.42969-1 1-1h8.9766c0.57031 0 1 0.42969 1 1v1h2v-1c0-1.6445-1.3555-3-3-3z"/>
  <path d="m5.0117 14c-1.1055 0-2 0.89453-2 2h10c0-1.1055-0.89453-2-2-2z"/>
  <path d="m9.5 4c-2.4844 0-4.5 2.0156-4.5 4.5s2.0156 4.5 4.5 4.5c0.84766 0 1.6758-0.24219 2.3906-0.69531l2.4023 2.4023c0.39062 0.39062 1.0234 0.39062 1.4141 0s0.39062-1.0234 0-1.4141l-2.3984-2.3984c0.44922-0.71875 0.69141-1.5469 0.69141-2.3945 0-2.4844-2.0156-4.5-4.5-4.5zm0 2c1.3789 0 2.5 1.1211 2.5 2.5s-1.1211 2.5-2.5 2.5-2.5-1.1211-2.5-2.5 1.1211-2.5 2.5-2.5z"/>
 </g>
</svg>
