<?xml version="1.0" encoding="UTF-8"?>
<svg width="16px" height="16px" viewBox="0 0 16 16" xmlns="http://www.w3.org/2000/svg">
 <path d="m5 1c-1.3789 0-2.5 1.1211-2.5 2.5s1.1211 2.5 2.5 2.5 2.5-1.1211 2.5-2.5-1.1211-2.5-2.5-2.5zm6 3c-1.3789 0-2.5 1.1211-2.5 2.5s1.1211 2.5 2.5 2.5 2.5-1.1211 2.5-2.5-1.1211-2.5-2.5-2.5zm-8 3c-1.6602 0-3 1.3398-3 3v2c0 0.55469 0.44531 1 1 1h4.0742c0-2.043 1.582-3.7344 3.582-3.9102-0.58984-0.53125-0.98438-1.2539-1.1094-2.0391-0.17578-0.03125-0.35938-0.050781-0.54688-0.050781zm6 3c-1.6602 0-3 1.3398-3 3v2c0 0.55469 0.44531 1 1 1h8c0.55469 0 1-0.44531 1-1v-2c0-1.6602-1.3398-3-3-3z" fill="#2e3436"/>
</svg>
