<?xml version="1.0" encoding="UTF-8"?>
<svg width="128" height="128" xmlns="http://www.w3.org/2000/svg" xmlns:xlink="http://www.w3.org/1999/xlink">
 <defs>
  <clipPath id="o">
   <path d="M0 0h128v128H0z"/>
  </clipPath>
  <clipPath id="t">
   <path d="M0 0h128v128H0z"/>
  </clipPath>
  <clipPath id="b">
   <path d="M0 0h192v152H0z"/>
  </clipPath>
  <clipPath id="d">
   <path d="M0 0h192v152H0z"/>
  </clipPath>
  <clipPath id="r">
   <path d="M0 0h128v128H0z"/>
  </clipPath>
  <clipPath id="h">
   <path d="M0 0h128v128H0z"/>
  </clipPath>
  <mask id="v">
   <g filter="url(#a)">
    <path d="M0 0h128v128H0z" fill-opacity=".8"/>
   </g>
  </mask>
  <mask id="m">
   <g filter="url(#a)">
    <path d="M0 0h128v128H0z" fill-opacity=".236"/>
   </g>
  </mask>
  <mask id="B">
   <use xlink:href="#q"/>
  </mask>
  <mask id="y">
   <g filter="url(#a)">
    <path d="M0 0h128v128H0z" fill-opacity=".236"/>
   </g>
  </mask>
  <mask id="x">
   <g filter="url(#a)">
    <path d="M0 0h128v128H0z" fill-opacity=".05"/>
   </g>
  </mask>
  <mask id="k">
   <g filter="url(#a)">
    <path d="M0 0h128v128H0z" fill-opacity=".05"/>
   </g>
  </mask>
  <g id="A" clip-path="url(#t)">
   <use mask="url(#v)" xlink:href="#u"/>
  </g>
  <g id="j" clip-path="url(#b)">
   <path d="m16 104h84v-68h-84z" fill="url(#c)"/>
  </g>
  <g id="q" clip-path="url(#o)" filter="url(#a)">
   <use xlink:href="#p"/>
  </g>
  <g id="l" clip-path="url(#d)">
   <path d="m16 74h26l10-23 6 39 8-16h34" fill="none" stroke="#e5a50a" stroke-miterlimit="10" stroke-width="4"/>
  </g>
  <g id="p" clip-path="url(#h)">
   <path d="M16 28h96a8 8 0 018 8v70a8 8 0 01-8 8H16a8 8 0 01-8-8V36a8 8 0 018-8zm0 0" fill="#f6f5f4"/>
   <path d="m16 32h84c2.21 0 4 1.79 4 4v68c0 2.21-1.79 4-4 4h-84c-2.21 0-4-1.79-4-4v-68c0-2.21 1.79-4 4-4z" fill="#241f31"/>
   <path d="m8 104v4c0 4.434 3.566 8 8 8h96c4.434 0 8-3.566 8-8v-4c0 4.434-3.566 8-8 8h-96a7.98 7.98 0 0 1-8-8z" fill="url(#i)"/>
   <use mask="url(#k)" xlink:href="#j"/>
   <use mask="url(#m)" xlink:href="#l"/>
   <path transform="translate(0 -172)" d="m16 246h26l10-23 6 39 8-16h6" fill="none" stroke="url(#n)" stroke-linecap="round" stroke-miterlimit="10" stroke-width="4"/>
   <path d="m116 62v4c0 2.21-1.79 4-4 4s-4-1.79-4-4v-2l4-2zm0 16v6h-4c-2.215 0-4-1.785-4-4v-2z" fill="#949390"/>
   <path d="m116 82v-4c0-2.21-1.79-4-4-4s-4 1.79-4 4 1.79 4 4 4z" fill="#d5d3cf"/>
   <path d="M113 80c0 .55.45 1 1 1s1-.45 1-1-.45-1-1-1-1 .45-1 1zm0 0" fill="#68676b"/>
   <path d="m116 60v4c0 2.21-1.79 4-4 4s-4-1.79-4-4 1.79-4 4-4z" fill="#d5d3cf"/>
   <path d="M113 62c0-.55.45-1 1-1s1 .45 1 1-.45 1-1 1-1-.45-1-1zm0 0" fill="#68676b"/>
   <path d="m108 48v4c0 2.21 1.79 4 4 4s4-1.79 4-4v-2l-4-2z" fill="#949390"/>
   <path d="m108 46v4c0 2.21 1.79 4 4 4s4-1.79 4-4-1.79-4-4-4z" fill="#d5d3cf"/>
   <path d="M111 48c0-.55-.45-1-1-1s-1 .45-1 1 .45 1 1 1 1-.45 1-1zm0 0" fill="#68676b"/>
   <path d="m116 36v6h-4c-2.215 0-4-1.785-4-4v-2z" fill="#949390"/>
   <path d="m116 40v-4c0-2.21-1.79-4-4-4s-4 1.79-4 4 1.79 4 4 4z" fill="#d5d3cf"/>
   <path d="M113 38c0 .55.45 1 1 1s1-.45 1-1-.45-1-1-1-1 .45-1 1zm0 0" fill="#68676b"/>
  </g>
  <g id="u" clip-path="url(#r)">
   <path d="M128 80.64V128H0V80.64zm0 0" fill="url(#s)"/>
   <path d="M13.309 80.64L60.664 128H81.88l-47.36-47.36zm42.421 0L103.094 128h21.215L76.945 80.64zm42.43 0L128 110.48V89.27l-8.629-8.63zM0 88.548v21.215L18.238 128h21.215zm0 0"/>
  </g>
  <linearGradient id="n" x1="301" x2="104" y1="33.559" y2="33.559" gradientTransform="matrix(.25 0 0 .25 -2 233)" gradientUnits="userSpaceOnUse">
   <stop stop-color="#f9f06b" offset="0"/>
   <stop stop-color="#f9f06b" stop-opacity="0" offset="1"/>
  </linearGradient>
  <linearGradient id="s" x1="300" x2="428" y1="235" y2="235" gradientTransform="matrix(0 .37 -.98462 0 295.38 -30.36)" gradientUnits="userSpaceOnUse">
   <stop stop-color="#f9f06b" offset="0"/>
   <stop stop-color="#f5c211" offset="1"/>
  </linearGradient>
  <linearGradient id="i" x1="120" x2="568" y1="619.96" y2="619.96" gradientTransform="matrix(.25 0 0 .25 -22 -50.991)" gradientUnits="userSpaceOnUse">
   <stop stop-color="#d5d3cf" offset="0"/>
   <stop stop-color="#e4e1de" offset=".036"/>
   <stop stop-color="#d5d3cf" offset=".071"/>
   <stop stop-color="#d5d3cf" offset=".929"/>
   <stop stop-color="#e4e1de" offset=".964"/>
   <stop stop-color="#d5d3cf" offset="1"/>
  </linearGradient>
  <radialGradient id="c" cx="64" cy="194.19" r="44" gradientTransform="matrix(-4.1364 0 0 1.3909 319.23 -170.64)" gradientUnits="userSpaceOnUse">
   <stop stop-color="#fff" offset="0"/>
   <stop stop-color="#fff" stop-opacity=".094" offset="1"/>
  </radialGradient>
  <filter id="a" x="0%" y="0%" width="100%" height="100%">
   <feColorMatrix in="SourceGraphic" values="0 0 0 0 1 0 0 0 0 1 0 0 0 0 1 0 0 0 1 0"/>
  </filter>
 </defs>
 <path d="M16 28h96a8 8 0 018 8v70a8 8 0 01-8 8H16a8 8 0 01-8-8V36a8 8 0 018-8zm0 0" fill="#f6f5f4"/>
 <path d="m16 32h84c2.21 0 4 1.79 4 4v68c0 2.21-1.79 4-4 4h-84c-2.21 0-4-1.79-4-4v-68c0-2.21 1.79-4 4-4z" fill="#241f31"/>
 <path d="m8 104v4c0 4.434 3.566 8 8 8h96c4.434 0 8-3.566 8-8v-4c0 4.434-3.566 8-8 8h-96a7.98 7.98 0 0 1-8-8z" fill="url(#i)"/>
 <use mask="url(#x)" xlink:href="#j"/>
 <use mask="url(#y)" xlink:href="#l"/>
 <path transform="translate(0 -172)" d="m16 246h26l10-23 6 39 8-16h6" fill="none" stroke="url(#n)" stroke-linecap="round" stroke-miterlimit="10" stroke-width="4"/>
 <path d="m116 62v4c0 2.21-1.79 4-4 4s-4-1.79-4-4v-2l4-2zm0 16v6h-4c-2.215 0-4-1.785-4-4v-2z" fill="#949390"/>
 <path d="m116 82v-4c0-2.21-1.79-4-4-4s-4 1.79-4 4 1.79 4 4 4z" fill="#d5d3cf"/>
 <path d="M113 80c0 .55.45 1 1 1s1-.45 1-1-.45-1-1-1-1 .45-1 1zm0 0" fill="#68676b"/>
 <path d="m116 60v4c0 2.21-1.79 4-4 4s-4-1.79-4-4 1.79-4 4-4z" fill="#d5d3cf"/>
 <path d="M113 62c0-.55.45-1 1-1s1 .45 1 1-.45 1-1 1-1-.45-1-1zm0 0" fill="#68676b"/>
 <path d="m108 48v4c0 2.21 1.79 4 4 4s4-1.79 4-4v-2l-4-2z" fill="#949390"/>
 <path d="m108 46v4c0 2.21 1.79 4 4 4s4-1.79 4-4-1.79-4-4-4z" fill="#d5d3cf"/>
 <path d="M111 48c0-.55-.45-1-1-1s-1 .45-1 1 .45 1 1 1 1-.45 1-1zm0 0" fill="#68676b"/>
 <path d="m116 36v6h-4c-2.215 0-4-1.785-4-4v-2z" fill="#949390"/>
 <path d="m116 40v-4c0-2.21-1.79-4-4-4s-4 1.79-4 4 1.79 4 4 4z" fill="#d5d3cf"/>
 <path d="M113 38c0 .55.45 1 1 1s1-.45 1-1-.45-1-1-1-1 .45-1 1zm0 0" fill="#68676b"/>
 <use mask="url(#B)" xlink:href="#A"/>
</svg>
