<?xml version="1.0" encoding="UTF-8"?>
<svg width="16px" height="16px" viewBox="0 0 16 16" xmlns="http://www.w3.org/2000/svg">
 <g fill="#2e3436">
  <path d="m3.75 0.0039062c-0.95312 0.0039062-1.75 0.80078-1.75 1.75v5.4961c0 0.95312 0.79688 1.75 1.75 1.75h0.75s0.5 0.007812 0.5 0.50781c0 0.49219-0.5 0.49219-0.5 0.49219h-0.5v1.9922h8v-2h-0.5s-0.5 0.007812-0.5-0.49219 0.5-0.50781 0.5-0.50781h0.75c0.95312 0 1.75-0.79688 1.75-1.75v-5.4922c0-0.95312-0.79688-1.75-1.75-1.75zm0.25 2 8-0.003906v4.9922l-8 0.007812z"/>
  <path d="m6.9688 10.004 0.03125 3.9961h-5.5c-0.27734 0-0.5 0.22266-0.5 0.5v1c0 0.27734 0.22266 0.5 0.5 0.5h13c0.27734 0 0.5-0.22266 0.5-0.5v-1c0-0.27734-0.22266-0.5-0.5-0.5h-5.5v-4z" fill-rule="evenodd"/>
 </g>
</svg>
