<?xml version="1.0" encoding="UTF-8"?>
<svg width="16px" height="16px" viewBox="0 0 16 16" xmlns="http://www.w3.org/2000/svg">
 <path d="m8 0v1.5c0 0.13281-0.054688 0.26172-0.14453 0.35547-0.09375 0.09375-0.21875 0.14453-0.34766 0.14453h-3.0117c-0.53516 0-1.0312 0.28906-1.2969 0.75-0.26562 0.46484-0.26562 1.0352 0 1.5 0.26562 0.46094 0.76172 0.75 1.2969 0.75h3.0078c0.17969 0 0.33984 0.09375 0.42969 0.25 0.042968 0.074219 0.066406 0.16406 0.066406 0.25v0.5h-5c-1.6445 0-3 1.3555-3 3v4c0 1.6445 1.3555 3 3 3h10c1.6445 0 3-1.3555 3-3v-4c0-0.86719-0.37891-1.6484-0.97266-2.1992l-1.4102 1.4023c0.23437 0.17969 0.38281 0.46094 0.38281 0.79688v3c0 0.55469-0.44531 1-1 1h-10c-0.55469 0-1-0.44531-1-1v-3c0-0.57031 0.5-1 1-1h5.1914l1.9922-2h-1.1836v-0.5c0-0.25781-0.066406-0.51562-0.19922-0.75-0.26562-0.46094-0.76172-0.75-1.2969-0.75h-3.0078c-0.17969 0-0.33984-0.09375-0.42969-0.25-0.089844-0.15234-0.089844-0.34766 0-0.5 0.089844-0.15625 0.25-0.25 0.42969-0.25h3.0117c0.39844 0 0.77734-0.16016 1.0547-0.44141 0.28125-0.28125 0.4375-0.66016 0.4375-1.0586v-1.5zm7 3c-0.26562 0-0.51953 0.10547-0.70312 0.29297h-0.003906l-6.293 6.3164v1.3906h1.3906l6.3164-6.293-0.003906-0.003906c0.19141-0.18359 0.29688-0.4375 0.29688-0.70312 0-0.55078-0.44922-1-1-1z" fill="#2e3436"/>
</svg>
