<?xml version="1.0" encoding="UTF-8"?>
<svg width="128" height="128" xmlns="http://www.w3.org/2000/svg" xmlns:xlink="http://www.w3.org/1999/xlink">
 <defs>
  <linearGradient id="O" x1="176" x2="495" y1="799.96" y2="799.96" gradientTransform="matrix(.25 0 0 .24306 -20 -80.436)" gradientUnits="userSpaceOnUse">
   <stop offset="0"/>
   <stop stop-color="#424048" offset=".047"/>
   <stop stop-color="#241f31" offset=".097"/>
   <stop stop-color="#241f31" offset=".9"/>
   <stop stop-color="#424048" offset=".95"/>
   <stop offset="1"/>
  </linearGradient>
  <linearGradient id="P" x1="177" x2="496" y1="619.96" y2="619.96" gradientTransform="matrix(.25 0 0 .24306 -20 -80.436)" gradientUnits="userSpaceOnUse">
   <stop stop-color="#424048" offset="0"/>
   <stop stop-color="#f6f5f4" offset=".047"/>
   <stop stop-color="#949390" offset=".097"/>
   <stop stop-color="#d5d3cf" offset=".9"/>
   <stop stop-color="#f6f5f4" offset=".95"/>
   <stop stop-color="#424048" offset="1"/>
  </linearGradient>
  <linearGradient id="Q" x1="347" x2="323" y1="217" y2="-172" gradientTransform="matrix(.25 0 0 .25 0 53)" gradientUnits="userSpaceOnUse">
   <stop stop-color="#f6f5f4" offset="0"/>
   <stop stop-color="#fff" offset="1"/>
  </linearGradient>
  <radialGradient id="R" cx="128" cy="199.58" r="16" gradientTransform="matrix(.25 0 0 .25 0 53)" gradientUnits="userSpaceOnUse">
   <stop stop-opacity=".251" offset="0"/>
   <stop stop-opacity=".031" offset="1"/>
  </radialGradient>
  <radialGradient id="S" cx="127.94" cy="200.07" r="8" gradientTransform="matrix(.34391 0 0 .34391 -12 34.132)" gradientUnits="userSpaceOnUse">
   <stop stop-color="#949390" offset="0"/>
   <stop stop-color="#424048" offset="1"/>
  </radialGradient>
  <linearGradient id="T" x1="249" x2="249" y1="125" y2="-112.16" gradientTransform="matrix(.25 0 0 .25 0 53)" gradientUnits="userSpaceOnUse">
   <stop stop-color="#c0bfbc" offset="0"/>
   <stop stop-color="#f6f5f4" offset="1"/>
  </linearGradient>
  <radialGradient id="U" cx="128" cy="199.58" r="16" gradientTransform="matrix(.25 0 0 .25 64 53)" gradientUnits="userSpaceOnUse">
   <stop stop-opacity=".251" offset="0"/>
   <stop stop-opacity=".031" offset="1"/>
  </radialGradient>
  <radialGradient id="V" cx="127.94" cy="200.07" r="8" gradientTransform="matrix(.34391 0 0 .34391 52 34.132)" gradientUnits="userSpaceOnUse">
   <stop stop-color="#949390" offset="0"/>
   <stop stop-color="#424048" offset="1"/>
  </radialGradient>
  <filter id="a" x="0%" y="0%" width="100%" height="100%">
   <feColorMatrix in="SourceGraphic" values="0 0 0 0 1 0 0 0 0 1 0 0 0 0 1 0 0 0 1 0"/>
  </filter>
  <clipPath id="b">
   <path d="M0 0h192v152H0z"/>
  </clipPath>
  <g id="q" clip-path="url(#b)">
   <path d="M69.398 58.945c-2.398 0-4.683.547-6.761 1.27a.93.93 0 0 0-.352 1.531l10.649 10.617c1.84 1.836 1.84 4.688 0 6.524l-4.012 4c-1.844 1.836-4.707 1.836-6.547 0L51.723 72.27a.917.917 0 0 0-.86-.247.932.932 0 0 0-.668.594c-.726 2.074-1.273 4.36-1.273 6.75 0 11.27 9.18 20.426 20.476 20.426 2.184 0 4.258-.484 6.184-1.113l28.625 28.61c.234.233.473.44.711.651 3.996-.48 7.082-4.043 7.082-8.398v-10.79L88.766 85.536c.629-1.922 1.109-3.988 1.109-6.168 0-11.27-9.18-20.422-20.477-20.422zm0 0"/>
  </g>
  <radialGradient id="W" cx="128" cy="199.58" r="16" gradientTransform="matrix(.25 0 0 .25 64 -7)" gradientUnits="userSpaceOnUse">
   <stop stop-opacity=".251" offset="0"/>
   <stop stop-opacity=".031" offset="1"/>
  </radialGradient>
  <radialGradient id="X" cx="127.94" cy="200.07" r="8" gradientTransform="matrix(.34391 0 0 .34391 52 -25.868)" gradientUnits="userSpaceOnUse">
   <stop stop-color="#949390" offset="0"/>
   <stop stop-color="#424048" offset="1"/>
  </radialGradient>
  <radialGradient id="Y" cx="128" cy="199.58" r="16" gradientTransform="matrix(.25 0 0 .25 64 -35)" gradientUnits="userSpaceOnUse">
   <stop stop-opacity=".251" offset="0"/>
   <stop stop-opacity=".031" offset="1"/>
  </radialGradient>
  <radialGradient id="Z" cx="127.94" cy="200.07" r="8" gradientTransform="matrix(.34391 0 0 .34391 52 -53.868)" gradientUnits="userSpaceOnUse">
   <stop stop-color="#949390" offset="0"/>
   <stop stop-color="#424048" offset="1"/>
  </radialGradient>
  <radialGradient id="aa" cx="128" cy="199.58" r="16" gradientTransform="matrix(.25 0 0 .25 0 -35)" gradientUnits="userSpaceOnUse">
   <stop stop-opacity=".251" offset="0"/>
   <stop stop-opacity=".031" offset="1"/>
  </radialGradient>
  <radialGradient id="ab" cx="127.94" cy="200.07" r="8" gradientTransform="matrix(.34391 0 0 .34391 -12 -53.868)" gradientUnits="userSpaceOnUse">
   <stop stop-color="#949390" offset="0"/>
   <stop stop-color="#424048" offset="1"/>
  </radialGradient>
  <radialGradient id="ac" cx="128" cy="199.58" r="16" gradientTransform="matrix(.25 0 0 .25 0 -7)" gradientUnits="userSpaceOnUse">
   <stop stop-opacity=".251" offset="0"/>
   <stop stop-opacity=".031" offset="1"/>
  </radialGradient>
  <radialGradient id="ad" cx="127.94" cy="200.07" r="8" gradientTransform="matrix(.34391 0 0 .34391 -12 -25.868)" gradientUnits="userSpaceOnUse">
   <stop stop-color="#949390" offset="0"/>
   <stop stop-color="#424048" offset="1"/>
  </radialGradient>
  <radialGradient id="d" cx="62.562" cy="221.95" r="36.044" gradientTransform="matrix(.59826 .63515 -.11523 .10854 58.71 2.173)" gradientUnits="userSpaceOnUse">
   <stop stop-color="#010101" offset="0"/>
   <stop stop-color="#010101" stop-opacity="0" offset="1"/>
  </radialGradient>
  <clipPath id="c">
   <path d="M0 0h192v152H0z"/>
  </clipPath>
  <g id="B" clip-path="url(#c)">
   <path d="M69.398 53.852c-2.566 0-4.968.578-7.12 1.328a2.018 2.018 0 0 0-.762 3.34L72.16 69.14c1.43 1.426 1.43 3.544 0 4.97l-4.015 4.003c-1.426 1.426-3.57 1.426-5 0L52.5 67.493a2.024 2.024 0 0 0-1.879-.536c-.68.152-1.23.645-1.46 1.3-.75 2.15-1.333 4.548-1.333 7.11 0 11.863 9.684 21.52 21.57 21.52 2.09 0 4.036-.434 5.864-.98l28.172 28.156c5.265 5.265 12.035 4.722 15.734 1.023 3.703-3.695 4.281-10.438-.832-15.547L89.988 81.211c.551-1.824.98-3.762.98-5.844 0-11.863-9.683-21.515-21.57-21.515zm0 0" fill="url(#d)"/>
  </g>
  <mask id="r">
   <g filter="url(#a)">
    <path d="M0 0h128v128H0z" fill-opacity=".1"/>
   </g>
  </mask>
  <linearGradient id="s" x1="298.66" x2="328.1" y1="125.79" y2="70.897" gradientTransform="matrix(.25 0 0 .25 0 53)" gradientUnits="userSpaceOnUse">
   <stop stop-color="#47454b" offset="0"/>
   <stop stop-color="#dfdee0" offset="1"/>
  </linearGradient>
  <mask id="C">
   <g filter="url(#a)">
    <path d="M0 0h128v128H0z" fill-opacity=".58"/>
   </g>
  </mask>
  <linearGradient id="D" x1="301.62" x2="318.91" y1="113.77" y2="59.234" gradientTransform="matrix(.25 0 0 .25 0 53)" gradientUnits="userSpaceOnUse">
   <stop stop-color="#5e5c64" offset="0"/>
   <stop stop-color="#77767b" offset="1"/>
  </linearGradient>
  <clipPath id="h">
   <path d="M0 0h128v128H0z"/>
  </clipPath>
  <g id="F" clip-path="url(#h)">
   <path d="m32 50h64a8 8 0 0 1 8 8v54a8 8 0 0 1-8 8h-64a8 8 0 0 1-8-8v-54a8 8 0 0 1 8-8z" fill="url(#O)"/>
   <path d="m32 44h64a8 8 0 0 1 8 8v54a8 8 0 0 1-8 8h-64a8 8 0 0 1-8-8v-54a8 8 0 0 1 8-8z" fill="url(#P)"/>
   <path d="M32 8h64c4.418 0 8 3.785 8 8.457v87.086c0 4.672-3.582 8.457-8 8.457H32c-4.418 0-8-3.785-8-8.457V16.457C24 11.785 27.582 8 32 8zm0 0" fill="url(#Q)"/>
   <path d="m36 104c0 2.21-1.79 4-4 4s-4-1.79-4-4 1.79-4 4-4 4 1.79 4 4z" fill="url(#R)"/>
   <path d="m34 104a1.999 1.999 0 1 1-4 0 1.999 1.999 0 1 1 4 0z" fill="url(#S)"/>
   <path d="m42 12c-2.215 0-4 1.785-4 4 0 3.313-2.688 6-6 6-2.215 0-4 1.785-4 4v8c0 2.215 1.785 4 4 4 3.313 0 6 2.688 6 6a6.003 6.003 0 0 1-1.54 4c-5.92 6.594-8.444 15.137-8.46 24 0 19.883 16.117 36 36 36s36-16.117 36-36c-0.016-8.863-2.54-17.41-8.465-24a6.018 6.018 0 0 1-1.535-4c0-3.313 2.688-6 6-6 2.215 0 4-1.785 4-4v-8c0-2.215-1.785-4-4-4-3.313 0-6-2.688-6-6 0-2.215-1.785-4-4-4zm22 56c3.313 0 6 2.688 6 6 0 3.313-2.688 6-6 6-3.313 0-6-2.688-6-6 0-3.313 2.688-6 6-6z" fill="#9a9996"/>
   <path d="m42 10c-2.215 0-4 1.785-4 4 0 3.313-2.688 6-6 6-2.215 0-4 1.785-4 4v8c0 2.215 1.785 4 4 4 3.313 0 6 2.688 6 6a6.003 6.003 0 0 1-1.54 4c-5.92 6.594-8.444 15.137-8.46 24 0 19.883 16.117 36 36 36s36-16.117 36-36c-0.016-8.863-2.54-17.41-8.465-24a6.018 6.018 0 0 1-1.535-4c0-3.313 2.688-6 6-6 2.215 0 4-1.785 4-4v-8c0-2.215-1.785-4-4-4-3.313 0-6-2.688-6-6 0-2.215-1.785-4-4-4zm22 56c3.313 0 6 2.688 6 6 0 3.313-2.688 6-6 6-3.313 0-6-2.688-6-6 0-3.313 2.688-6 6-6z" fill="url(#T)"/>
   <path d="m100 104c0 2.21-1.79 4-4 4s-4-1.79-4-4 1.79-4 4-4 4 1.79 4 4z" fill="url(#U)"/>
   <path d="m98 104a1.999 1.999 0 1 1-4 0 1.999 1.999 0 1 1 4 0z" fill="url(#V)"/>
   <use transform="translate(-8 -16)" mask="url(#r)" xlink:href="#q"/>
   <path d="M61.398 37.95c-2.55 0-4.941.581-7.086 1.323a1.924 1.924 0 0 0-.73 3.176L64.23 53.07c1.47 1.465 1.47 3.645 0 5.11l-4.011 4.004c-1.469 1.464-3.676 1.464-5.14 0L44.425 51.563a1.919 1.919 0 0 0-1.785-.512 1.928 1.928 0 0 0-1.387 1.242c-.746 2.14-1.328 4.527-1.328 7.074 0 11.809 9.64 21.422 21.472 21.422 2.098 0 4.051-.437 5.887-.996L95.5 107.988c5.238 5.239 11.934 4.688 15.598 1.028 3.664-3.66 4.25-10.329-.832-15.41L81.879 65.237c.555-1.828.992-3.777.992-5.87 0-11.81-9.64-21.419-21.473-21.419zm0 0" fill="url(#s)"/>
   <path d="m100 44c0 2.21-1.79 4-4 4s-4-1.79-4-4 1.79-4 4-4 4 1.79 4 4z" fill="url(#W)"/>
   <path d="m98 44a1.999 1.999 0 1 1-4 0 1.999 1.999 0 1 1 4 0z" fill="url(#X)"/>
   <path d="m100 16c0 2.21-1.79 4-4 4s-4-1.79-4-4 1.79-4 4-4 4 1.79 4 4z" fill="url(#Y)"/>
   <path d="m98 16a1.999 1.999 0 1 1-4 0 1.999 1.999 0 1 1 4 0z" fill="url(#Z)"/>
   <path d="m36 16c0 2.21-1.79 4-4 4s-4-1.79-4-4 1.79-4 4-4 4 1.79 4 4z" fill="url(#aa)"/>
   <path d="m34 16a1.999 1.999 0 1 1-4 0 1.999 1.999 0 1 1 4 0z" fill="url(#ab)"/>
   <path d="m36 44c0 2.21-1.79 4-4 4s-4-1.79-4-4 1.79-4 4-4 4 1.79 4 4z" fill="url(#ac)"/>
   <path d="m34 44a1.999 1.999 0 1 1-4 0 1.999 1.999 0 1 1 4 0z" fill="url(#ad)"/>
   <use transform="translate(-8 -16)" mask="url(#C)" xlink:href="#B"/>
   <path d="M61.398 39.871c-2.253 0-4.441.516-6.457 1.219L65.59 51.707a5.499 5.499 0 0 1 0 7.836l-4.016 4.004a5.536 5.536 0 0 1-7.855 0L43.07 52.926c-.703 2.011-1.222 4.191-1.222 6.441 0 10.77 8.754 19.496 19.55 19.496 2.258 0 4.442-.515 6.461-1.218l29 28.984c9.325 9.324 21.008-2.7 12.047-11.66l-29.18-29.16c.704-2.012 1.223-4.192 1.223-6.442 0-10.765-8.754-19.496-19.55-19.496zm0 0" fill="url(#D)"/>
  </g>
  <clipPath id="E">
   <path d="M0 0h128v128H0z"/>
  </clipPath>
  <g id="G" clip-path="url(#E)" filter="url(#a)">
   <use xlink:href="#F"/>
  </g>
  <mask id="af">
   <use xlink:href="#G"/>
  </mask>
  <mask id="L">
   <g filter="url(#a)">
    <path d="M0 0h128v128H0z" fill-opacity=".8"/>
   </g>
  </mask>
  <linearGradient id="I" x1="300" x2="428" y1="235" y2="235" gradientTransform="matrix(0 .37 -.98462 0 295.38 -30.36)" gradientUnits="userSpaceOnUse">
   <stop stop-color="#f9f06b" offset="0"/>
   <stop stop-color="#f5c211" offset="1"/>
  </linearGradient>
  <clipPath id="H">
   <path d="M0 0h128v128H0z"/>
  </clipPath>
  <g id="K" clip-path="url(#H)">
   <path d="M128 80.64V128H0V80.64zm0 0" fill="url(#I)"/>
   <path d="M13.309 80.64L60.664 128H81.88l-47.36-47.36zm42.421 0L103.094 128h21.215L76.945 80.64zm42.43 0L128 110.48V89.27l-8.629-8.63zM0 88.548v21.215L18.238 128h21.215zm0 0"/>
  </g>
  <clipPath id="J">
   <path d="M0 0h128v128H0z"/>
  </clipPath>
  <g id="ae" clip-path="url(#J)">
   <use mask="url(#L)" xlink:href="#K"/>
  </g>
  <filter id="M" x="0" y="0" width="1" height="1">
   <feColorMatrix in="SourceGraphic" values="0 0 0 0 1 0 0 0 0 1 0 0 0 0 1 0 0 0 1 0"/>
  </filter>
  <mask id="ag">
   <g filter="url(#M)">
    <path d="M0 0h128v128H0z" fill-opacity=".1"/>
   </g>
  </mask>
  <linearGradient id="ah" x1="86" x2="68" y1="90.25" y2="57.625" gradientUnits="userSpaceOnUse">
   <stop stop-color="#fff" offset="0"/>
   <stop stop-color="#e8e8e8" offset=".694"/>
   <stop stop-color="#fff" offset="1"/>
  </linearGradient>
 </defs>
 <path d="m32 50h64a8 8 0 0 1 8 8v54a8 8 0 0 1-8 8h-64a8 8 0 0 1-8-8v-54a8 8 0 0 1 8-8z" fill="url(#O)"/>
 <path d="m32 44h64a8 8 0 0 1 8 8v54a8 8 0 0 1-8 8h-64a8 8 0 0 1-8-8v-54a8 8 0 0 1 8-8z" fill="url(#P)"/>
 <path d="M32 8h64c4.418 0 8 3.785 8 8.457v87.086c0 4.672-3.582 8.457-8 8.457H32c-4.418 0-8-3.785-8-8.457V16.457C24 11.785 27.582 8 32 8zm0 0" fill="url(#Q)"/>
 <path d="m36 104c0 2.21-1.79 4-4 4s-4-1.79-4-4 1.79-4 4-4 4 1.79 4 4z" fill="url(#R)"/>
 <path d="m34 104a1.999 1.999 0 1 1-4 0 1.999 1.999 0 1 1 4 0z" fill="url(#S)"/>
 <path d="m42 12c-2.215 0-4 1.785-4 4 0 3.313-2.688 6-6 6-2.215 0-4 1.785-4 4v8c0 2.215 1.785 4 4 4 3.313 0 6 2.688 6 6a6.003 6.003 0 0 1-1.54 4c-5.92 6.594-8.444 15.137-8.46 24 0 19.883 16.117 36 36 36s36-16.117 36-36c-0.016-8.863-2.54-17.41-8.465-24a6.018 6.018 0 0 1-1.535-4c0-3.313 2.688-6 6-6 2.215 0 4-1.785 4-4v-8c0-2.215-1.785-4-4-4-3.313 0-6-2.688-6-6 0-2.215-1.785-4-4-4zm22 56c3.313 0 6 2.688 6 6 0 3.313-2.688 6-6 6-3.313 0-6-2.688-6-6 0-3.313 2.688-6 6-6z" fill="#9a9996"/>
 <path d="m42 10c-2.215 0-4 1.785-4 4 0 3.313-2.688 6-6 6-2.215 0-4 1.785-4 4v8c0 2.215 1.785 4 4 4 3.313 0 6 2.688 6 6a6.003 6.003 0 0 1-1.54 4c-5.92 6.594-8.444 15.137-8.46 24 0 19.883 16.117 36 36 36s36-16.117 36-36c-0.016-8.863-2.54-17.41-8.465-24a6.018 6.018 0 0 1-1.535-4c0-3.313 2.688-6 6-6 2.215 0 4-1.785 4-4v-8c0-2.215-1.785-4-4-4-3.313 0-6-2.688-6-6 0-2.215-1.785-4-4-4zm22 56c3.313 0 6 2.688 6 6 0 3.313-2.688 6-6 6-3.313 0-6-2.688-6-6 0-3.313 2.688-6 6-6z" fill="url(#T)"/>
 <path d="m100 104c0 2.21-1.79 4-4 4s-4-1.79-4-4 1.79-4 4-4 4 1.79 4 4z" fill="url(#U)"/>
 <path d="m98 104a1.999 1.999 0 1 1-4 0 1.999 1.999 0 1 1 4 0z" fill="url(#V)"/>
 <path d="m100 44c0 2.21-1.79 4-4 4s-4-1.79-4-4 1.79-4 4-4 4 1.79 4 4z" fill="url(#W)"/>
 <path d="m98 44a1.999 1.999 0 1 1-4 0 1.999 1.999 0 1 1 4 0z" fill="url(#X)"/>
 <path d="m100 16c0 2.21-1.79 4-4 4s-4-1.79-4-4 1.79-4 4-4 4 1.79 4 4z" fill="url(#Y)"/>
 <path d="m98 16a1.999 1.999 0 1 1-4 0 1.999 1.999 0 1 1 4 0z" fill="url(#Z)"/>
 <path d="m36 16c0 2.21-1.79 4-4 4s-4-1.79-4-4 1.79-4 4-4 4 1.79 4 4z" fill="url(#aa)"/>
 <path d="m34 16a1.999 1.999 0 1 1-4 0 1.999 1.999 0 1 1 4 0z" fill="url(#ab)"/>
 <path d="m36 44c0 2.21-1.79 4-4 4s-4-1.79-4-4 1.79-4 4-4 4 1.79 4 4z" fill="url(#ac)"/>
 <path d="m34 44a1.999 1.999 0 1 1-4 0 1.999 1.999 0 1 1 4 0z" fill="url(#ad)"/>
 <use mask="url(#af)" xlink:href="#ae"/>
 <use transform="translate(-8 -16)" width="100%" height="100%" mask="url(#ag)" xlink:href="#q"/>
 <path d="M61.398 37.95c-2.55 0-4.941.581-7.086 1.323a1.924 1.924 0 0 0-.73 3.176L64.23 53.07c1.47 1.465 1.47 3.645 0 5.11l-4.011 4.004c-1.469 1.464-3.676 1.464-5.14 0L44.425 51.563a1.919 1.919 0 0 0-1.785-.512 1.928 1.928 0 0 0-1.387 1.242c-.746 2.14-1.328 4.527-1.328 7.074 0 11.809 9.64 21.422 21.472 21.422 2.098 0 4.051-.437 5.887-.996L95.5 107.988c5.238 5.239 11.934 4.688 15.598 1.028 3.664-3.66 4.25-10.329-.832-15.41L81.879 65.237c.555-1.828.992-3.777.992-5.87 0-11.81-9.64-21.419-21.473-21.419zm0 0" fill="#deddda"/>
 <path d="M61.398 39.871c-2.253 0-4.441.516-6.457 1.219L65.59 51.707a5.499 5.499 0 0 1 0 7.836l-4.016 4.004a5.536 5.536 0 0 1-7.855 0L43.07 52.926c-.703 2.011-1.222 4.191-1.222 6.441 0 10.77 8.754 19.496 19.55 19.496 2.258 0 4.442-.515 6.461-1.218l29 28.984c9.325 9.324 21.008-2.7 12.047-11.66l-29.18-29.16c.704-2.012 1.223-4.192 1.223-6.442 0-10.765-8.754-19.496-19.55-19.496zm0 0" fill="url(#ah)"/>
</svg>
