<?xml version="1.0" encoding="UTF-8"?>
<svg width="16px" height="16px" viewBox="0 0 16 16" xmlns="http://www.w3.org/2000/svg">
 <g fill="#2e3436">
  <path d="m6 8c0 1.6562-1.3438 3-3 3s-3-1.3438-3-3 1.3438-3 3-3 3 1.3438 3 3z"/>
  <path d="m12.555 2.1055-11.789 5.8945 11.789 5.8945 0.89453-1.7891-8.2109-4.1055 8.2109-4.1055z"/>
  <path d="m16 3c0 1.6562-1.3438 3-3 3s-3-1.3438-3-3 1.3438-3 3-3 3 1.3438 3 3z"/>
  <path d="m16 13c0 1.6562-1.3438 3-3 3s-3-1.3438-3-3 1.3438-3 3-3 3 1.3438 3 3z"/>
 </g>
</svg>
