<?xml version="1.0" encoding="UTF-8"?>
<svg width="16px" height="16px" viewBox="0 0 16 16" xmlns="http://www.w3.org/2000/svg">
 <g fill="#2e3436">
  <path d="m3.0117 1c-1.6445 0-3 1.3555-3 3v6c0 1.6445 1.3555 3 3 3h10c1.6445 0 3-1.3555 3-3v-6c0-0.57031-0.16797-1.1016-0.44922-1.5586l-1.5508 1.5547v6.0039c0 0.57031-0.42969 1-1 1h-10c-0.57031 0-1-0.42969-1-1v-6c0-0.57031 0.42969-1 1-1h5.9688l2.0078-2z"/>
  <path d="m11.012 7c0 1.6562-1.3398 3.0078-3 3h-3v-3c0-1.6602 1.3438-3 3-3 1.6602 0 3 1.3398 3 3z"/>
  <path d="m13.41 0-3.4688 3.457c0.68359 0.35547 1.2344 0.91016 1.5898 1.5898l0.17188-0.17188 0.007813 0.007812 4.3008-4.3008v-0.58203z"/>
  <path d="m5.0117 14c-1.1055 0-2 0.89453-2 2h10c0-1.1055-0.89453-2-2-2z"/>
 </g>
</svg>
